solid OpenSCAD_Model
  facet normal -1 0 0
    outer loop
      vertex -1.5 -11.6865 1.82709
      vertex -1.5 -17.5 5
      vertex -1.5 17.5 -8
    endloop
  endfacet
  facet normal -1 0 0
    outer loop
      vertex -1.5 -8.13473 3.37973
      vertex -1.5 -17.5 5
      vertex -1.5 -10.9411 5
    endloop
  endfacet
  facet normal -1 0 0
    outer loop
      vertex -1.5 17.5 -8
      vertex -1.5 -17.5 5
      vertex -1.5 -8.13473 3.37973
    endloop
  endfacet
  facet normal -1 0 0
    outer loop
      vertex -1.5 -12.0842 -1.9563
      vertex -1.5 17.5 -8
      vertex -1.5 -12.5 -2
    endloop
  endfacet
  facet normal -1 0 0
    outer loop
      vertex -1.5 17.5 -8
      vertex -1.5 -4.15823 2.08768
      vertex -1.5 0 1.65064
    endloop
  endfacet
  facet normal -1 0 0
    outer loop
      vertex -1.5 0 1.65064
      vertex -1.5 4.15823 2.08768
      vertex -1.5 17.5 -8
    endloop
  endfacet
  facet normal -1 0 0
    outer loop
      vertex -1.5 13.9863 1.33826
      vertex -1.5 10.9411 5
      vertex -1.5 17.5 5
    endloop
  endfacet
  facet normal -1 0 0
    outer loop
      vertex -1.5 -17.5 -8
      vertex -1.5 -17.5 5
      vertex -1.5 -14.489 0.209057
    endloop
  endfacet
  facet normal -1 0 0
    outer loop
      vertex -1.5 -17.5 -8
      vertex -1.5 -14.489 0.209057
      vertex -1.5 -14.489 -0.209057
    endloop
  endfacet
  facet normal -1 0 0
    outer loop
      vertex -1.5 -17.5 -8
      vertex -1.5 -14.489 -0.209057
      vertex -1.5 -14.4021 -0.618034
    endloop
  endfacet
  facet normal -1 0 0
    outer loop
      vertex -1.5 -17.5 -8
      vertex -1.5 -14.4021 -0.618034
      vertex -1.5 -14.2321 -1
    endloop
  endfacet
  facet normal -1 0 0
    outer loop
      vertex -1.5 -17.5 -8
      vertex -1.5 -14.2321 -1
      vertex -1.5 -13.9863 -1.33826
    endloop
  endfacet
  facet normal -1 0 0
    outer loop
      vertex -1.5 -17.5 -8
      vertex -1.5 -13.9863 -1.33826
      vertex -1.5 -13.6756 -1.61803
    endloop
  endfacet
  facet normal -1 0 0
    outer loop
      vertex -1.5 -17.5 -8
      vertex -1.5 -13.6756 -1.61803
      vertex -1.5 -13.3135 -1.82709
    endloop
  endfacet
  facet normal -1 0 0
    outer loop
      vertex -1.5 -17.5 -8
      vertex -1.5 -13.3135 -1.82709
      vertex -1.5 -12.9158 -1.9563
    endloop
  endfacet
  facet normal -1 0 0
    outer loop
      vertex -1.5 -17.5 -8
      vertex -1.5 -12.9158 -1.9563
      vertex -1.5 17.5 -8
    endloop
  endfacet
  facet normal -1 0 0
    outer loop
      vertex -1.5 -12.9158 -1.9563
      vertex -1.5 -12.5 -2
      vertex -1.5 17.5 -8
    endloop
  endfacet
  facet normal -1 0 0
    outer loop
      vertex -1.5 -11.6865 -1.82709
      vertex -1.5 17.5 -8
      vertex -1.5 -12.0842 -1.9563
    endloop
  endfacet
  facet normal -1 0 0
    outer loop
      vertex -1.5 -11.3244 -1.61803
      vertex -1.5 17.5 -8
      vertex -1.5 -11.6865 -1.82709
    endloop
  endfacet
  facet normal -1 0 0
    outer loop
      vertex -1.5 -11.0137 -1.33826
      vertex -1.5 17.5 -8
      vertex -1.5 -11.3244 -1.61803
    endloop
  endfacet
  facet normal -1 0 0
    outer loop
      vertex -1.5 -10.7679 -1
      vertex -1.5 17.5 -8
      vertex -1.5 -11.0137 -1.33826
    endloop
  endfacet
  facet normal -1 0 0
    outer loop
      vertex -1.5 -10.5979 -0.618034
      vertex -1.5 17.5 -8
      vertex -1.5 -10.7679 -1
    endloop
  endfacet
  facet normal -1 0 0
    outer loop
      vertex -1.5 10.511 0.209057
      vertex -1.5 8.13473 3.37973
      vertex -1.5 10.5979 0.618034
    endloop
  endfacet
  facet normal -1 0 0
    outer loop
      vertex -1.5 -12.0842 1.95629
      vertex -1.5 -17.5 5
      vertex -1.5 -11.6865 1.82709
    endloop
  endfacet
  facet normal -1 0 0
    outer loop
      vertex -1.5 -13.6756 1.61803
      vertex -1.5 -17.5 5
      vertex -1.5 -13.3135 1.82709
    endloop
  endfacet
  facet normal -1 0 0
    outer loop
      vertex -1.5 -10.5979 -0.618034
      vertex -1.5 -10.511 -0.209057
      vertex -1.5 17.5 -8
    endloop
  endfacet
  facet normal -1 0 0
    outer loop
      vertex -1.5 -10.511 -0.209057
      vertex -1.5 -10.511 0.209057
      vertex -1.5 17.5 -8
    endloop
  endfacet
  facet normal -1 0 0
    outer loop
      vertex -1.5 -13.3135 1.82709
      vertex -1.5 -17.5 5
      vertex -1.5 -12.9158 1.95629
    endloop
  endfacet
  facet normal -1 0 0
    outer loop
      vertex -1.5 -10.511 0.209057
      vertex -1.5 -10.5979 0.618034
      vertex -1.5 17.5 -8
    endloop
  endfacet
  facet normal -1 0 0
    outer loop
      vertex -1.5 -12.9158 1.95629
      vertex -1.5 -17.5 5
      vertex -1.5 -12.5 2
    endloop
  endfacet
  facet normal -1 0 0
    outer loop
      vertex -1.5 -10.5979 0.618034
      vertex -1.5 -10.7679 1
      vertex -1.5 17.5 -8
    endloop
  endfacet
  facet normal -1 0 0
    outer loop
      vertex -1.5 -10.7679 1
      vertex -1.5 -11.0137 1.33826
      vertex -1.5 17.5 -8
    endloop
  endfacet
  facet normal -1 0 0
    outer loop
      vertex -1.5 -12.5 2
      vertex -1.5 -17.5 5
      vertex -1.5 -12.0842 1.95629
    endloop
  endfacet
  facet normal -1 0 0
    outer loop
      vertex -1.5 -11.0137 1.33826
      vertex -1.5 -11.3244 1.61803
      vertex -1.5 17.5 -8
    endloop
  endfacet
  facet normal -1 0 0
    outer loop
      vertex -1.5 -11.3244 1.61803
      vertex -1.5 -11.6865 1.82709
      vertex -1.5 17.5 -8
    endloop
  endfacet
  facet normal -1 0 0
    outer loop
      vertex -1.5 -13.9863 1.33826
      vertex -1.5 -17.5 5
      vertex -1.5 -13.6756 1.61803
    endloop
  endfacet
  facet normal -1 0 0
    outer loop
      vertex -1.5 -14.2321 1
      vertex -1.5 -17.5 5
      vertex -1.5 -13.9863 1.33826
    endloop
  endfacet
  facet normal -1 0 0
    outer loop
      vertex -1.5 -14.4021 0.618034
      vertex -1.5 -17.5 5
      vertex -1.5 -14.2321 1
    endloop
  endfacet
  facet normal -1 0 0
    outer loop
      vertex -1.5 -14.489 0.209057
      vertex -1.5 -17.5 5
      vertex -1.5 -14.4021 0.618034
    endloop
  endfacet
  facet normal -1 0 0
    outer loop
      vertex -1.5 4.15823 2.08768
      vertex -1.5 8.13473 3.37973
      vertex -1.5 10.511 0.209057
    endloop
  endfacet
  facet normal -1 0 0
    outer loop
      vertex -1.5 4.15823 2.08768
      vertex -1.5 10.511 0.209057
      vertex -1.5 10.511 -0.209057
    endloop
  endfacet
  facet normal -1 0 0
    outer loop
      vertex -1.5 4.15823 2.08768
      vertex -1.5 10.511 -0.209057
      vertex -1.5 10.5979 -0.618034
    endloop
  endfacet
  facet normal -1 0 0
    outer loop
      vertex -1.5 4.15823 2.08768
      vertex -1.5 10.5979 -0.618034
      vertex -1.5 10.7679 -1
    endloop
  endfacet
  facet normal -1 0 0
    outer loop
      vertex -1.5 4.15823 2.08768
      vertex -1.5 10.7679 -1
      vertex -1.5 11.0137 -1.33826
    endloop
  endfacet
  facet normal -1 0 0
    outer loop
      vertex -1.5 4.15823 2.08768
      vertex -1.5 11.0137 -1.33826
      vertex -1.5 17.5 -8
    endloop
  endfacet
  facet normal -1 0 0
    outer loop
      vertex -1.5 11.0137 -1.33826
      vertex -1.5 11.3244 -1.61803
      vertex -1.5 17.5 -8
    endloop
  endfacet
  facet normal -1 0 0
    outer loop
      vertex -1.5 12.0842 -1.9563
      vertex -1.5 17.5 -8
      vertex -1.5 11.6865 -1.82709
    endloop
  endfacet
  facet normal -1 0 0
    outer loop
      vertex -1.5 12.5 -2
      vertex -1.5 17.5 -8
      vertex -1.5 12.0842 -1.9563
    endloop
  endfacet
  facet normal -1 0 0
    outer loop
      vertex -1.5 11.6865 -1.82709
      vertex -1.5 17.5 -8
      vertex -1.5 11.3244 -1.61803
    endloop
  endfacet
  facet normal -1 0 0
    outer loop
      vertex -1.5 12.9158 -1.9563
      vertex -1.5 17.5 -8
      vertex -1.5 12.5 -2
    endloop
  endfacet
  facet normal -1 0 0
    outer loop
      vertex -1.5 10.5979 0.618034
      vertex -1.5 8.13473 3.37973
      vertex -1.5 10.7679 1
    endloop
  endfacet
  facet normal -1 0 0
    outer loop
      vertex -1.5 14.2321 -1
      vertex -1.5 17.5 -8
      vertex -1.5 13.9863 -1.33826
    endloop
  endfacet
  facet normal -1 0 0
    outer loop
      vertex -1.5 12.9158 -1.9563
      vertex -1.5 13.3135 -1.82709
      vertex -1.5 17.5 -8
    endloop
  endfacet
  facet normal -1 0 0
    outer loop
      vertex -1.5 11.6865 1.82709
      vertex -1.5 10.9411 5
      vertex -1.5 12.0842 1.95629
    endloop
  endfacet
  facet normal -1 0 0
    outer loop
      vertex -1.5 13.3135 -1.82709
      vertex -1.5 13.6756 -1.61803
      vertex -1.5 17.5 -8
    endloop
  endfacet
  facet normal -1 0 0
    outer loop
      vertex -1.5 13.6756 -1.61803
      vertex -1.5 13.9863 -1.33826
      vertex -1.5 17.5 -8
    endloop
  endfacet
  facet normal -1 0 0
    outer loop
      vertex -1.5 12.0842 1.95629
      vertex -1.5 10.9411 5
      vertex -1.5 12.5 2
    endloop
  endfacet
  facet normal -1 0 0
    outer loop
      vertex -1.5 17.5 -8
      vertex -1.5 14.2321 -1
      vertex -1.5 17.5 5
    endloop
  endfacet
  facet normal -1 0 0
    outer loop
      vertex -1.5 14.2321 -1
      vertex -1.5 14.4021 -0.618034
      vertex -1.5 17.5 5
    endloop
  endfacet
  facet normal -1 0 0
    outer loop
      vertex -1.5 12.5 2
      vertex -1.5 10.9411 5
      vertex -1.5 12.9158 1.95629
    endloop
  endfacet
  facet normal -1 0 0
    outer loop
      vertex -1.5 14.4021 -0.618034
      vertex -1.5 14.489 -0.209057
      vertex -1.5 17.5 5
    endloop
  endfacet
  facet normal -1 0 0
    outer loop
      vertex -1.5 14.489 -0.209057
      vertex -1.5 14.489 0.209057
      vertex -1.5 17.5 5
    endloop
  endfacet
  facet normal -1 0 0
    outer loop
      vertex -1.5 12.9158 1.95629
      vertex -1.5 10.9411 5
      vertex -1.5 13.3135 1.82709
    endloop
  endfacet
  facet normal -1 0 0
    outer loop
      vertex -1.5 14.489 0.209057
      vertex -1.5 14.4021 0.618034
      vertex -1.5 17.5 5
    endloop
  endfacet
  facet normal -1 0 0
    outer loop
      vertex -1.5 13.3135 1.82709
      vertex -1.5 10.9411 5
      vertex -1.5 13.6756 1.61803
    endloop
  endfacet
  facet normal -1 0 0
    outer loop
      vertex -1.5 14.4021 0.618034
      vertex -1.5 14.2321 1
      vertex -1.5 17.5 5
    endloop
  endfacet
  facet normal -1 0 0
    outer loop
      vertex -1.5 14.2321 1
      vertex -1.5 13.9863 1.33826
      vertex -1.5 17.5 5
    endloop
  endfacet
  facet normal -1 0 0
    outer loop
      vertex -1.5 13.6756 1.61803
      vertex -1.5 10.9411 5
      vertex -1.5 13.9863 1.33826
    endloop
  endfacet
  facet normal -1 0 0
    outer loop
      vertex -1.5 8.13473 3.37973
      vertex -1.5 10.9411 5
      vertex -1.5 11.6865 1.82709
    endloop
  endfacet
  facet normal -1 0 0
    outer loop
      vertex -1.5 8.13473 3.37973
      vertex -1.5 11.6865 1.82709
      vertex -1.5 11.3244 1.61803
    endloop
  endfacet
  facet normal -1 0 0
    outer loop
      vertex -1.5 8.13473 3.37973
      vertex -1.5 11.3244 1.61803
      vertex -1.5 11.0137 1.33826
    endloop
  endfacet
  facet normal -1 0 0
    outer loop
      vertex -1.5 8.13473 3.37973
      vertex -1.5 11.0137 1.33826
      vertex -1.5 10.7679 1
    endloop
  endfacet
  facet normal -1 0 0
    outer loop
      vertex -1.5 -4.15823 2.08768
      vertex -1.5 17.5 -8
      vertex -1.5 -8.13473 3.37973
    endloop
  endfacet
  facet normal 0 -1 0
    outer loop
      vertex -1.5 -17.5 5
      vertex -1.5 -17.5 -8
      vertex 1.5 -17.5 -8
    endloop
  endfacet
  facet normal 0 -1 0
    outer loop
      vertex 1.5 -17.5 5
      vertex -1.5 -17.5 5
      vertex 1.5 -17.5 -8
    endloop
  endfacet
  facet normal 0 0 -1
    outer loop
      vertex -1.5 -17.5 -8
      vertex -1.5 17.5 -8
      vertex 1.5 -17.5 -8
    endloop
  endfacet
  facet normal 0 0 -1
    outer loop
      vertex 1.5 9.875 -8
      vertex -1.5 17.5 -8
      vertex 1.5 17.5 -8
    endloop
  endfacet
  facet normal 0 0 -1
    outer loop
      vertex 1.5 -17.5 -8
      vertex -1.5 17.5 -8
      vertex 1.5 -9.875 -8
    endloop
  endfacet
  facet normal 0 0 -1
    outer loop
      vertex 5.95514 -3.6339 -8
      vertex 16.2949 3.6339 -8
      vertex 16.6272 3.70453 -8
    endloop
  endfacet
  facet normal 0 0 -1
    outer loop
      vertex 17.7145 -5.58786 -8
      vertex 20.75 9.875 -8
      vertex 20.75 -9.875 -8
    endloop
  endfacet
  facet normal 0 0 -1
    outer loop
      vertex 1.5 9.875 -8
      vertex 1.5 -9.875 -8
      vertex -1.5 17.5 -8
    endloop
  endfacet
  facet normal 0 0 -1
    outer loop
      vertex 4.64049 4.58905 -8
      vertex 5.95514 -3.6339 -8
      vertex 4.53551 4.91214 -8
    endloop
  endfacet
  facet normal 0 0 -1
    outer loop
      vertex 1.5 9.875 -8
      vertex 4.5 -5.25 -8
      vertex 1.5 -9.875 -8
    endloop
  endfacet
  facet normal 0 0 -1
    outer loop
      vertex 4.5 -5.25 -8
      vertex 4.53551 -5.58786 -8
      vertex 1.5 -9.875 -8
    endloop
  endfacet
  facet normal 0 0 -1
    outer loop
      vertex 4.53551 -5.58786 -8
      vertex 4.64049 -5.91095 -8
      vertex 1.5 -9.875 -8
    endloop
  endfacet
  facet normal 0 0 -1
    outer loop
      vertex 4.64049 -5.91095 -8
      vertex 4.81035 -6.20515 -8
      vertex 1.5 -9.875 -8
    endloop
  endfacet
  facet normal 0 0 -1
    outer loop
      vertex 16.2949 -6.8661 -8
      vertex 1.5 -9.875 -8
      vertex 5.95514 -6.8661 -8
    endloop
  endfacet
  facet normal 0 0 -1
    outer loop
      vertex 5.03766 -6.45761 -8
      vertex 1.5 -9.875 -8
      vertex 4.81035 -6.20515 -8
    endloop
  endfacet
  facet normal 0 0 -1
    outer loop
      vertex 16.9375 -3.84271 -8
      vertex 20.75 9.875 -8
      vertex 17.2123 -4.04239 -8
    endloop
  endfacet
  facet normal 0 0 -1
    outer loop
      vertex 16.2949 -6.8661 -8
      vertex 16.6272 -6.79547 -8
      vertex 20.75 -9.875 -8
    endloop
  endfacet
  facet normal 0 0 -1
    outer loop
      vertex 17.2123 -4.04239 -8
      vertex 20.75 9.875 -8
      vertex 17.4397 -4.29485 -8
    endloop
  endfacet
  facet normal 0 0 -1
    outer loop
      vertex 16.6272 -6.79547 -8
      vertex 16.9375 -6.65729 -8
      vertex 20.75 -9.875 -8
    endloop
  endfacet
  facet normal 0 0 -1
    outer loop
      vertex 17.4397 -4.29485 -8
      vertex 20.75 9.875 -8
      vertex 17.6095 -4.58905 -8
    endloop
  endfacet
  facet normal 0 0 -1
    outer loop
      vertex 16.9375 -6.65729 -8
      vertex 17.2123 -6.45761 -8
      vertex 20.75 -9.875 -8
    endloop
  endfacet
  facet normal 0 0 -1
    outer loop
      vertex 17.2123 -6.45761 -8
      vertex 17.4397 -6.20515 -8
      vertex 20.75 -9.875 -8
    endloop
  endfacet
  facet normal 0 0 -1
    outer loop
      vertex 17.6095 -4.58905 -8
      vertex 20.75 9.875 -8
      vertex 17.7145 -4.91214 -8
    endloop
  endfacet
  facet normal 0 0 -1
    outer loop
      vertex 17.4397 -6.20515 -8
      vertex 17.6095 -5.91095 -8
      vertex 20.75 -9.875 -8
    endloop
  endfacet
  facet normal 0 0 -1
    outer loop
      vertex 17.75 -5.25 -8
      vertex 20.75 9.875 -8
      vertex 17.7145 -5.58786 -8
    endloop
  endfacet
  facet normal 0 0 -1
    outer loop
      vertex 17.6095 -5.91095 -8
      vertex 17.7145 -5.58786 -8
      vertex 20.75 -9.875 -8
    endloop
  endfacet
  facet normal 0 0 -1
    outer loop
      vertex 17.2123 6.45761 -8
      vertex 20.75 9.875 -8
      vertex 17.4397 6.20515 -8
    endloop
  endfacet
  facet normal 0 0 -1
    outer loop
      vertex 16.6272 -3.70453 -8
      vertex 20.75 9.875 -8
      vertex 16.9375 -3.84271 -8
    endloop
  endfacet
  facet normal 0 0 -1
    outer loop
      vertex 16.2949 -3.6339 -8
      vertex 20.75 9.875 -8
      vertex 16.6272 -3.70453 -8
    endloop
  endfacet
  facet normal 0 0 -1
    outer loop
      vertex 17.4397 4.29485 -8
      vertex 20.75 9.875 -8
      vertex 16.2949 -3.6339 -8
    endloop
  endfacet
  facet normal 0 0 -1
    outer loop
      vertex 1.5 9.875 -8
      vertex 5.95514 -3.6339 -8
      vertex 5.62285 -3.70453 -8
    endloop
  endfacet
  facet normal 0 0 -1
    outer loop
      vertex 1.5 9.875 -8
      vertex 5.62285 -3.70453 -8
      vertex 5.3125 -3.84271 -8
    endloop
  endfacet
  facet normal 0 0 -1
    outer loop
      vertex 1.5 9.875 -8
      vertex 5.3125 -3.84271 -8
      vertex 5.03766 -4.04239 -8
    endloop
  endfacet
  facet normal 0 0 -1
    outer loop
      vertex 1.5 9.875 -8
      vertex 5.03766 -4.04239 -8
      vertex 4.81035 -4.29485 -8
    endloop
  endfacet
  facet normal 0 0 -1
    outer loop
      vertex 1.5 9.875 -8
      vertex 4.81035 -4.29485 -8
      vertex 4.64049 -4.58905 -8
    endloop
  endfacet
  facet normal 0 0 -1
    outer loop
      vertex 1.5 9.875 -8
      vertex 4.64049 -4.58905 -8
      vertex 4.53551 -4.91214 -8
    endloop
  endfacet
  facet normal 0 0 -1
    outer loop
      vertex 1.5 9.875 -8
      vertex 4.53551 -4.91214 -8
      vertex 4.5 -5.25 -8
    endloop
  endfacet
  facet normal 0 0 -1
    outer loop
      vertex 16.9375 6.65729 -8
      vertex 20.75 9.875 -8
      vertex 17.2123 6.45761 -8
    endloop
  endfacet
  facet normal 0 0 -1
    outer loop
      vertex 1.5 9.875 -8
      vertex 4.5 5.25 -8
      vertex 4.53551 4.91214 -8
    endloop
  endfacet
  facet normal 0 0 -1
    outer loop
      vertex 1.5 9.875 -8
      vertex 4.53551 4.91214 -8
      vertex 5.95514 -3.6339 -8
    endloop
  endfacet
  facet normal 0 0 -1
    outer loop
      vertex 16.2949 3.6339 -8
      vertex 5.95514 -3.6339 -8
      vertex 5.95514 3.6339 -8
    endloop
  endfacet
  facet normal 0 0 -1
    outer loop
      vertex 4.64049 4.58905 -8
      vertex 4.81035 4.29485 -8
      vertex 5.95514 -3.6339 -8
    endloop
  endfacet
  facet normal 0 0 -1
    outer loop
      vertex 4.81035 4.29485 -8
      vertex 5.03766 4.04239 -8
      vertex 5.95514 -3.6339 -8
    endloop
  endfacet
  facet normal 0 0 -1
    outer loop
      vertex 5.03766 4.04239 -8
      vertex 5.3125 3.84271 -8
      vertex 5.95514 -3.6339 -8
    endloop
  endfacet
  facet normal 0 0 -1
    outer loop
      vertex 5.3125 3.84271 -8
      vertex 5.62285 3.70453 -8
      vertex 5.95514 -3.6339 -8
    endloop
  endfacet
  facet normal 0 0 -1
    outer loop
      vertex 5.62285 3.70453 -8
      vertex 5.95514 3.6339 -8
      vertex 5.95514 -3.6339 -8
    endloop
  endfacet
  facet normal 0 0 -1
    outer loop
      vertex 5.95514 6.8661 -8
      vertex 20.75 9.875 -8
      vertex 16.2949 6.8661 -8
    endloop
  endfacet
  facet normal 0 0 -1
    outer loop
      vertex 5.95514 -3.6339 -8
      vertex 16.6272 3.70453 -8
      vertex 16.2949 -3.6339 -8
    endloop
  endfacet
  facet normal 0 0 -1
    outer loop
      vertex 17.7145 5.58786 -8
      vertex 20.75 9.875 -8
      vertex 17.75 5.25 -8
    endloop
  endfacet
  facet normal 0 0 -1
    outer loop
      vertex 16.6272 3.70453 -8
      vertex 16.9375 3.84271 -8
      vertex 16.2949 -3.6339 -8
    endloop
  endfacet
  facet normal 0 0 -1
    outer loop
      vertex 17.75 5.25 -8
      vertex 20.75 9.875 -8
      vertex 17.7145 4.91214 -8
    endloop
  endfacet
  facet normal 0 0 -1
    outer loop
      vertex 16.9375 3.84271 -8
      vertex 17.2123 4.04239 -8
      vertex 16.2949 -3.6339 -8
    endloop
  endfacet
  facet normal 0 0 -1
    outer loop
      vertex 17.6095 4.58905 -8
      vertex 20.75 9.875 -8
      vertex 17.4397 4.29485 -8
    endloop
  endfacet
  facet normal 0 0 -1
    outer loop
      vertex 17.2123 4.04239 -8
      vertex 17.4397 4.29485 -8
      vertex 16.2949 -3.6339 -8
    endloop
  endfacet
  facet normal 0 0 -1
    outer loop
      vertex 17.7145 4.91214 -8
      vertex 20.75 9.875 -8
      vertex 17.6095 4.58905 -8
    endloop
  endfacet
  facet normal 0 0 -1
    outer loop
      vertex 16.6272 6.79547 -8
      vertex 20.75 9.875 -8
      vertex 16.9375 6.65729 -8
    endloop
  endfacet
  facet normal 0 0 -1
    outer loop
      vertex 16.2949 6.8661 -8
      vertex 20.75 9.875 -8
      vertex 16.6272 6.79547 -8
    endloop
  endfacet
  facet normal 0 0 -1
    outer loop
      vertex 1.5 9.875 -8
      vertex 20.75 9.875 -8
      vertex 5.95514 6.8661 -8
    endloop
  endfacet
  facet normal 0 0 -1
    outer loop
      vertex 1.5 9.875 -8
      vertex 5.95514 6.8661 -8
      vertex 5.62285 6.79547 -8
    endloop
  endfacet
  facet normal 0 0 -1
    outer loop
      vertex 1.5 9.875 -8
      vertex 5.62285 6.79547 -8
      vertex 5.3125 6.65729 -8
    endloop
  endfacet
  facet normal 0 0 -1
    outer loop
      vertex 1.5 9.875 -8
      vertex 5.3125 6.65729 -8
      vertex 5.03766 6.45761 -8
    endloop
  endfacet
  facet normal 0 0 -1
    outer loop
      vertex 1.5 9.875 -8
      vertex 5.03766 6.45761 -8
      vertex 4.81035 6.20515 -8
    endloop
  endfacet
  facet normal 0 0 -1
    outer loop
      vertex 1.5 9.875 -8
      vertex 4.81035 6.20515 -8
      vertex 4.64049 5.91095 -8
    endloop
  endfacet
  facet normal 0 0 -1
    outer loop
      vertex 1.5 9.875 -8
      vertex 4.64049 5.91095 -8
      vertex 4.53551 5.58786 -8
    endloop
  endfacet
  facet normal 0 0 -1
    outer loop
      vertex 1.5 9.875 -8
      vertex 4.53551 5.58786 -8
      vertex 4.5 5.25 -8
    endloop
  endfacet
  facet normal 0 0 -1
    outer loop
      vertex 1.5 -9.875 -8
      vertex 5.03766 -6.45761 -8
      vertex 5.3125 -6.65729 -8
    endloop
  endfacet
  facet normal 0 0 -1
    outer loop
      vertex 1.5 -9.875 -8
      vertex 5.3125 -6.65729 -8
      vertex 5.62285 -6.79547 -8
    endloop
  endfacet
  facet normal 0 0 -1
    outer loop
      vertex 1.5 -9.875 -8
      vertex 5.62285 -6.79547 -8
      vertex 5.95514 -6.8661 -8
    endloop
  endfacet
  facet normal 0 0 -1
    outer loop
      vertex 17.6095 5.91095 -8
      vertex 20.75 9.875 -8
      vertex 17.7145 5.58786 -8
    endloop
  endfacet
  facet normal 0 0 -1
    outer loop
      vertex 17.4397 6.20515 -8
      vertex 20.75 9.875 -8
      vertex 17.6095 5.91095 -8
    endloop
  endfacet
  facet normal 0 0 -1
    outer loop
      vertex 17.7145 -4.91214 -8
      vertex 20.75 9.875 -8
      vertex 17.75 -5.25 -8
    endloop
  endfacet
  facet normal 0 0 -1
    outer loop
      vertex 1.5 -9.875 -8
      vertex 16.2949 -6.8661 -8
      vertex 20.75 -9.875 -8
    endloop
  endfacet
  facet normal 0 1 0
    outer loop
      vertex -1.5 17.5 -8
      vertex -1.5 17.5 5
      vertex 1.5 17.5 -8
    endloop
  endfacet
  facet normal 0 1 0
    outer loop
      vertex 1.5 17.5 -8
      vertex -1.5 17.5 5
      vertex 1.5 17.5 5
    endloop
  endfacet
  facet normal 0 0 1
    outer loop
      vertex -1.5 17.5 5
      vertex -1.5 10.9411 5
      vertex 1.5 10.9411 5
    endloop
  endfacet
  facet normal 0 0 1
    outer loop
      vertex 1.5 17.5 5
      vertex -1.5 17.5 5
      vertex 1.5 10.9411 5
    endloop
  endfacet
  facet normal 1.92296e-16 -0.5 0.866025
    outer loop
      vertex 1.5 8.13473 3.37973
      vertex 1.5 10.9411 5
      vertex -1.5 10.9411 5
    endloop
  endfacet
  facet normal 1.92296e-16 -0.5 0.866025
    outer loop
      vertex -1.5 8.13473 3.37973
      vertex 1.5 8.13473 3.37973
      vertex -1.5 10.9411 5
    endloop
  endfacet
  facet normal 2.11177e-16 -0.309017 0.951057
    outer loop
      vertex 1.5 4.15823 2.08768
      vertex 1.5 8.13473 3.37973
      vertex -1.5 8.13473 3.37973
    endloop
  endfacet
  facet normal 2.11177e-16 -0.309017 0.951057
    outer loop
      vertex -1.5 4.15823 2.08768
      vertex 1.5 4.15823 2.08768
      vertex -1.5 8.13473 3.37973
    endloop
  endfacet
  facet normal 2.20828e-16 -0.104528 0.994522
    outer loop
      vertex 1.5 0 1.65064
      vertex 1.5 4.15823 2.08768
      vertex -1.5 4.15823 2.08768
    endloop
  endfacet
  facet normal 2.20828e-16 -0.104528 0.994522
    outer loop
      vertex -1.5 0 1.65064
      vertex 1.5 0 1.65064
      vertex -1.5 4.15823 2.08768
    endloop
  endfacet
  facet normal 2.20828e-16 0.104528 0.994522
    outer loop
      vertex 1.5 -4.15823 2.08768
      vertex 1.5 0 1.65064
      vertex -1.5 0 1.65064
    endloop
  endfacet
  facet normal 2.20828e-16 0.104528 0.994522
    outer loop
      vertex -1.5 -4.15823 2.08768
      vertex 1.5 -4.15823 2.08768
      vertex -1.5 0 1.65064
    endloop
  endfacet
  facet normal 2.11177e-16 0.309017 0.951057
    outer loop
      vertex 1.5 -8.13473 3.37973
      vertex 1.5 -4.15823 2.08768
      vertex -1.5 -4.15823 2.08768
    endloop
  endfacet
  facet normal 2.11177e-16 0.309017 0.951057
    outer loop
      vertex -1.5 -8.13473 3.37973
      vertex 1.5 -8.13473 3.37973
      vertex -1.5 -4.15823 2.08768
    endloop
  endfacet
  facet normal 1.92296e-16 0.5 0.866025
    outer loop
      vertex 1.5 -10.9411 5
      vertex 1.5 -8.13473 3.37973
      vertex -1.5 -8.13473 3.37973
    endloop
  endfacet
  facet normal 1.92296e-16 0.5 0.866025
    outer loop
      vertex -1.5 -10.9411 5
      vertex 1.5 -10.9411 5
      vertex -1.5 -8.13473 3.37973
    endloop
  endfacet
  facet normal 0 0 1
    outer loop
      vertex -1.5 -10.9411 5
      vertex -1.5 -17.5 5
      vertex 1.5 -17.5 5
    endloop
  endfacet
  facet normal 0 0 1
    outer loop
      vertex 1.5 -10.9411 5
      vertex -1.5 -10.9411 5
      vertex 1.5 -17.5 5
    endloop
  endfacet
  facet normal 4.61658e-17 0.978147 -0.207912
    outer loop
      vertex 1.5 -14.4021 0.618034
      vertex 1.5 -14.489 0.209057
      vertex -1.5 -14.4021 0.618034
    endloop
  endfacet
  facet normal 4.61658e-17 0.978147 -0.207912
    outer loop
      vertex -1.5 -14.4021 0.618034
      vertex 1.5 -14.489 0.209057
      vertex -1.5 -14.489 0.209057
    endloop
  endfacet
  facet normal 0 1 0
    outer loop
      vertex 1.5 -14.489 0.209057
      vertex 1.5 -14.489 -0.209057
      vertex -1.5 -14.489 0.209057
    endloop
  endfacet
  facet normal 0 1 0
    outer loop
      vertex -1.5 -14.489 0.209057
      vertex 1.5 -14.489 -0.209057
      vertex -1.5 -14.489 -0.209057
    endloop
  endfacet
  facet normal 9.03136e-17 0.913546 -0.406736
    outer loop
      vertex 1.5 -14.2321 1
      vertex 1.5 -14.4021 0.618034
      vertex -1.5 -14.2321 1
    endloop
  endfacet
  facet normal 9.03136e-17 0.913546 -0.406736
    outer loop
      vertex -1.5 -14.2321 1
      vertex 1.5 -14.4021 0.618034
      vertex -1.5 -14.4021 0.618034
    endloop
  endfacet
  facet normal 1.30515e-16 0.809017 -0.587785
    outer loop
      vertex 1.5 -13.9863 1.33826
      vertex 1.5 -14.2321 1
      vertex -1.5 -13.9863 1.33826
    endloop
  endfacet
  facet normal 1.30515e-16 0.809017 -0.587785
    outer loop
      vertex -1.5 -13.9863 1.33826
      vertex 1.5 -14.2321 1
      vertex -1.5 -14.2321 1
    endloop
  endfacet
  facet normal 1.65011e-16 0.669131 -0.743144
    outer loop
      vertex 1.5 -13.6756 1.61803
      vertex 1.5 -13.9863 1.33826
      vertex -1.5 -13.6756 1.61803
    endloop
  endfacet
  facet normal 1.65011e-16 0.669131 -0.743144
    outer loop
      vertex -1.5 -13.6756 1.61803
      vertex 1.5 -13.9863 1.33826
      vertex -1.5 -13.9863 1.33826
    endloop
  endfacet
  facet normal 1.92296e-16 0.499999 -0.866026
    outer loop
      vertex 1.5 -13.3135 1.82709
      vertex 1.5 -13.6756 1.61803
      vertex -1.5 -13.3135 1.82709
    endloop
  endfacet
  facet normal 1.92296e-16 0.499999 -0.866026
    outer loop
      vertex -1.5 -13.3135 1.82709
      vertex 1.5 -13.6756 1.61803
      vertex -1.5 -13.6756 1.61803
    endloop
  endfacet
  facet normal 2.11177e-16 0.309016 -0.951057
    outer loop
      vertex 1.5 -12.9158 1.9563
      vertex 1.5 -13.3135 1.82709
      vertex -1.5 -12.9158 1.95629
    endloop
  endfacet
  facet normal 2.11177e-16 0.309016 -0.951057
    outer loop
      vertex -1.5 -12.9158 1.95629
      vertex 1.5 -13.3135 1.82709
      vertex -1.5 -13.3135 1.82709
    endloop
  endfacet
  facet normal 2.20828e-16 0.104529 -0.994522
    outer loop
      vertex 1.5 -12.5 2
      vertex 1.5 -12.9158 1.9563
      vertex -1.5 -12.5 2
    endloop
  endfacet
  facet normal 2.20828e-16 0.104529 -0.994522
    outer loop
      vertex -1.5 -12.5 2
      vertex 1.5 -12.9158 1.9563
      vertex -1.5 -12.9158 1.95629
    endloop
  endfacet
  facet normal 2.20828e-16 -0.104529 -0.994522
    outer loop
      vertex 1.5 -12.0842 1.9563
      vertex 1.5 -12.5 2
      vertex -1.5 -12.0842 1.95629
    endloop
  endfacet
  facet normal 2.20828e-16 -0.104529 -0.994522
    outer loop
      vertex -1.5 -12.0842 1.95629
      vertex 1.5 -12.5 2
      vertex -1.5 -12.5 2
    endloop
  endfacet
  facet normal 2.11177e-16 -0.309016 -0.951057
    outer loop
      vertex 1.5 -11.6865 1.82709
      vertex 1.5 -12.0842 1.9563
      vertex -1.5 -11.6865 1.82709
    endloop
  endfacet
  facet normal 2.11177e-16 -0.309016 -0.951057
    outer loop
      vertex -1.5 -11.6865 1.82709
      vertex 1.5 -12.0842 1.9563
      vertex -1.5 -12.0842 1.95629
    endloop
  endfacet
  facet normal 1.92296e-16 -0.499999 -0.866026
    outer loop
      vertex 1.5 -11.3244 1.61803
      vertex 1.5 -11.6865 1.82709
      vertex -1.5 -11.3244 1.61803
    endloop
  endfacet
  facet normal 1.92296e-16 -0.499999 -0.866026
    outer loop
      vertex -1.5 -11.3244 1.61803
      vertex 1.5 -11.6865 1.82709
      vertex -1.5 -11.6865 1.82709
    endloop
  endfacet
  facet normal 1.65011e-16 -0.669131 -0.743144
    outer loop
      vertex 1.5 -11.0137 1.33826
      vertex 1.5 -11.3244 1.61803
      vertex -1.5 -11.0137 1.33826
    endloop
  endfacet
  facet normal 1.65011e-16 -0.669131 -0.743144
    outer loop
      vertex -1.5 -11.0137 1.33826
      vertex 1.5 -11.3244 1.61803
      vertex -1.5 -11.3244 1.61803
    endloop
  endfacet
  facet normal 1.30515e-16 -0.809017 -0.587785
    outer loop
      vertex -1.5 -10.7679 1
      vertex 1.5 -10.7679 1
      vertex 1.5 -11.0137 1.33826
    endloop
  endfacet
  facet normal 1.30515e-16 -0.809017 -0.587785
    outer loop
      vertex -1.5 -11.0137 1.33826
      vertex -1.5 -10.7679 1
      vertex 1.5 -11.0137 1.33826
    endloop
  endfacet
  facet normal 9.03136e-17 -0.913546 -0.406736
    outer loop
      vertex -1.5 -10.5979 0.618034
      vertex 1.5 -10.5979 0.618034
      vertex 1.5 -10.7679 1
    endloop
  endfacet
  facet normal 9.03136e-17 -0.913546 -0.406736
    outer loop
      vertex -1.5 -10.7679 1
      vertex -1.5 -10.5979 0.618034
      vertex 1.5 -10.7679 1
    endloop
  endfacet
  facet normal 4.61658e-17 -0.978147 -0.207912
    outer loop
      vertex -1.5 -10.511 0.209057
      vertex 1.5 -10.511 0.209057
      vertex 1.5 -10.5979 0.618034
    endloop
  endfacet
  facet normal 4.61658e-17 -0.978147 -0.207912
    outer loop
      vertex -1.5 -10.5979 0.618034
      vertex -1.5 -10.511 0.209057
      vertex 1.5 -10.5979 0.618034
    endloop
  endfacet
  facet normal 0 -1 0
    outer loop
      vertex 1.5 -10.511 -0.209057
      vertex 1.5 -10.511 0.209057
      vertex -1.5 -10.511 0.209057
    endloop
  endfacet
  facet normal 0 -1 0
    outer loop
      vertex -1.5 -10.511 -0.209057
      vertex 1.5 -10.511 -0.209057
      vertex -1.5 -10.511 0.209057
    endloop
  endfacet
  facet normal -4.61658e-17 -0.978147 0.207912
    outer loop
      vertex 1.5 -10.5979 -0.618034
      vertex 1.5 -10.511 -0.209057
      vertex -1.5 -10.511 -0.209057
    endloop
  endfacet
  facet normal -4.61658e-17 -0.978147 0.207912
    outer loop
      vertex -1.5 -10.5979 -0.618034
      vertex 1.5 -10.5979 -0.618034
      vertex -1.5 -10.511 -0.209057
    endloop
  endfacet
  facet normal -9.03136e-17 -0.913546 0.406736
    outer loop
      vertex 1.5 -10.7679 -1
      vertex 1.5 -10.5979 -0.618034
      vertex -1.5 -10.5979 -0.618034
    endloop
  endfacet
  facet normal -9.03136e-17 -0.913546 0.406736
    outer loop
      vertex -1.5 -10.7679 -1
      vertex 1.5 -10.7679 -1
      vertex -1.5 -10.5979 -0.618034
    endloop
  endfacet
  facet normal -1.30515e-16 -0.809017 0.587785
    outer loop
      vertex 1.5 -11.0137 -1.33826
      vertex 1.5 -10.7679 -1
      vertex -1.5 -10.7679 -1
    endloop
  endfacet
  facet normal -1.30515e-16 -0.809017 0.587785
    outer loop
      vertex -1.5 -11.0137 -1.33826
      vertex 1.5 -11.0137 -1.33826
      vertex -1.5 -10.7679 -1
    endloop
  endfacet
  facet normal -1.65011e-16 -0.669131 0.743144
    outer loop
      vertex 1.5 -11.3244 -1.61803
      vertex 1.5 -11.0137 -1.33826
      vertex -1.5 -11.0137 -1.33826
    endloop
  endfacet
  facet normal -1.65011e-16 -0.669131 0.743144
    outer loop
      vertex -1.5 -11.3244 -1.61803
      vertex 1.5 -11.3244 -1.61803
      vertex -1.5 -11.0137 -1.33826
    endloop
  endfacet
  facet normal -1.92296e-16 -0.499999 0.866026
    outer loop
      vertex 1.5 -11.6865 -1.82709
      vertex 1.5 -11.3244 -1.61803
      vertex -1.5 -11.3244 -1.61803
    endloop
  endfacet
  facet normal -1.92296e-16 -0.499999 0.866026
    outer loop
      vertex -1.5 -11.6865 -1.82709
      vertex 1.5 -11.6865 -1.82709
      vertex -1.5 -11.3244 -1.61803
    endloop
  endfacet
  facet normal -2.11177e-16 -0.309016 0.951057
    outer loop
      vertex 1.5 -12.0842 -1.95629
      vertex 1.5 -11.6865 -1.82709
      vertex -1.5 -11.6865 -1.82709
    endloop
  endfacet
  facet normal -2.11177e-16 -0.309016 0.951057
    outer loop
      vertex -1.5 -12.0842 -1.9563
      vertex 1.5 -12.0842 -1.95629
      vertex -1.5 -11.6865 -1.82709
    endloop
  endfacet
  facet normal -2.20828e-16 -0.104529 0.994522
    outer loop
      vertex 1.5 -12.5 -2
      vertex 1.5 -12.0842 -1.95629
      vertex -1.5 -12.0842 -1.9563
    endloop
  endfacet
  facet normal -2.20828e-16 -0.104529 0.994522
    outer loop
      vertex -1.5 -12.5 -2
      vertex 1.5 -12.5 -2
      vertex -1.5 -12.0842 -1.9563
    endloop
  endfacet
  facet normal -2.20828e-16 0.104529 0.994522
    outer loop
      vertex 1.5 -12.9158 -1.95629
      vertex 1.5 -12.5 -2
      vertex -1.5 -12.5 -2
    endloop
  endfacet
  facet normal -2.20828e-16 0.104529 0.994522
    outer loop
      vertex -1.5 -12.9158 -1.9563
      vertex 1.5 -12.9158 -1.95629
      vertex -1.5 -12.5 -2
    endloop
  endfacet
  facet normal -2.11177e-16 0.309016 0.951057
    outer loop
      vertex 1.5 -13.3135 -1.82709
      vertex 1.5 -12.9158 -1.95629
      vertex -1.5 -12.9158 -1.9563
    endloop
  endfacet
  facet normal -2.11177e-16 0.309016 0.951057
    outer loop
      vertex -1.5 -13.3135 -1.82709
      vertex 1.5 -13.3135 -1.82709
      vertex -1.5 -12.9158 -1.9563
    endloop
  endfacet
  facet normal -1.92296e-16 0.499999 0.866026
    outer loop
      vertex 1.5 -13.6756 -1.61803
      vertex 1.5 -13.3135 -1.82709
      vertex -1.5 -13.3135 -1.82709
    endloop
  endfacet
  facet normal -1.92296e-16 0.499999 0.866026
    outer loop
      vertex -1.5 -13.6756 -1.61803
      vertex 1.5 -13.6756 -1.61803
      vertex -1.5 -13.3135 -1.82709
    endloop
  endfacet
  facet normal -1.65011e-16 0.669131 0.743144
    outer loop
      vertex 1.5 -13.9863 -1.33826
      vertex 1.5 -13.6756 -1.61803
      vertex -1.5 -13.6756 -1.61803
    endloop
  endfacet
  facet normal -1.65011e-16 0.669131 0.743144
    outer loop
      vertex -1.5 -13.9863 -1.33826
      vertex 1.5 -13.9863 -1.33826
      vertex -1.5 -13.6756 -1.61803
    endloop
  endfacet
  facet normal -1.30515e-16 0.809017 0.587785
    outer loop
      vertex 1.5 -13.9863 -1.33826
      vertex -1.5 -13.9863 -1.33826
      vertex 1.5 -14.2321 -1
    endloop
  endfacet
  facet normal -1.30515e-16 0.809017 0.587785
    outer loop
      vertex 1.5 -14.2321 -1
      vertex -1.5 -13.9863 -1.33826
      vertex -1.5 -14.2321 -1
    endloop
  endfacet
  facet normal -9.03136e-17 0.913546 0.406736
    outer loop
      vertex 1.5 -14.2321 -1
      vertex -1.5 -14.2321 -1
      vertex 1.5 -14.4021 -0.618034
    endloop
  endfacet
  facet normal -9.03136e-17 0.913546 0.406736
    outer loop
      vertex 1.5 -14.4021 -0.618034
      vertex -1.5 -14.2321 -1
      vertex -1.5 -14.4021 -0.618034
    endloop
  endfacet
  facet normal -4.61658e-17 0.978147 0.207912
    outer loop
      vertex 1.5 -14.4021 -0.618034
      vertex -1.5 -14.4021 -0.618034
      vertex 1.5 -14.489 -0.209057
    endloop
  endfacet
  facet normal -4.61658e-17 0.978147 0.207912
    outer loop
      vertex 1.5 -14.489 -0.209057
      vertex -1.5 -14.4021 -0.618034
      vertex -1.5 -14.489 -0.209057
    endloop
  endfacet
  facet normal 4.61658e-17 0.978147 -0.207912
    outer loop
      vertex 1.5 10.5979 0.618034
      vertex 1.5 10.511 0.209057
      vertex -1.5 10.5979 0.618034
    endloop
  endfacet
  facet normal 4.61658e-17 0.978147 -0.207912
    outer loop
      vertex -1.5 10.5979 0.618034
      vertex 1.5 10.511 0.209057
      vertex -1.5 10.511 0.209057
    endloop
  endfacet
  facet normal 0 1 0
    outer loop
      vertex 1.5 10.511 0.209057
      vertex 1.5 10.511 -0.209057
      vertex -1.5 10.511 0.209057
    endloop
  endfacet
  facet normal 0 1 0
    outer loop
      vertex -1.5 10.511 0.209057
      vertex 1.5 10.511 -0.209057
      vertex -1.5 10.511 -0.209057
    endloop
  endfacet
  facet normal 9.03136e-17 0.913546 -0.406736
    outer loop
      vertex 1.5 10.7679 1
      vertex 1.5 10.5979 0.618034
      vertex -1.5 10.7679 1
    endloop
  endfacet
  facet normal 9.03136e-17 0.913546 -0.406736
    outer loop
      vertex -1.5 10.7679 1
      vertex 1.5 10.5979 0.618034
      vertex -1.5 10.5979 0.618034
    endloop
  endfacet
  facet normal 1.30515e-16 0.809017 -0.587785
    outer loop
      vertex 1.5 11.0137 1.33826
      vertex 1.5 10.7679 1
      vertex -1.5 11.0137 1.33826
    endloop
  endfacet
  facet normal 1.30515e-16 0.809017 -0.587785
    outer loop
      vertex -1.5 11.0137 1.33826
      vertex 1.5 10.7679 1
      vertex -1.5 10.7679 1
    endloop
  endfacet
  facet normal 1.65011e-16 0.669131 -0.743144
    outer loop
      vertex 1.5 11.3244 1.61803
      vertex 1.5 11.0137 1.33826
      vertex -1.5 11.3244 1.61803
    endloop
  endfacet
  facet normal 1.65011e-16 0.669131 -0.743144
    outer loop
      vertex -1.5 11.3244 1.61803
      vertex 1.5 11.0137 1.33826
      vertex -1.5 11.0137 1.33826
    endloop
  endfacet
  facet normal 1.92296e-16 0.499999 -0.866026
    outer loop
      vertex 1.5 11.6865 1.82709
      vertex 1.5 11.3244 1.61803
      vertex -1.5 11.6865 1.82709
    endloop
  endfacet
  facet normal 1.92296e-16 0.499999 -0.866026
    outer loop
      vertex -1.5 11.6865 1.82709
      vertex 1.5 11.3244 1.61803
      vertex -1.5 11.3244 1.61803
    endloop
  endfacet
  facet normal 2.11177e-16 0.309016 -0.951057
    outer loop
      vertex 1.5 12.0842 1.9563
      vertex 1.5 11.6865 1.82709
      vertex -1.5 12.0842 1.95629
    endloop
  endfacet
  facet normal 2.11177e-16 0.309016 -0.951057
    outer loop
      vertex -1.5 12.0842 1.95629
      vertex 1.5 11.6865 1.82709
      vertex -1.5 11.6865 1.82709
    endloop
  endfacet
  facet normal 2.20828e-16 0.104529 -0.994522
    outer loop
      vertex 1.5 12.5 2
      vertex 1.5 12.0842 1.9563
      vertex -1.5 12.5 2
    endloop
  endfacet
  facet normal 2.20828e-16 0.104529 -0.994522
    outer loop
      vertex -1.5 12.5 2
      vertex 1.5 12.0842 1.9563
      vertex -1.5 12.0842 1.95629
    endloop
  endfacet
  facet normal 2.20828e-16 -0.104529 -0.994522
    outer loop
      vertex 1.5 12.9158 1.9563
      vertex 1.5 12.5 2
      vertex -1.5 12.9158 1.95629
    endloop
  endfacet
  facet normal 2.20828e-16 -0.104529 -0.994522
    outer loop
      vertex -1.5 12.9158 1.95629
      vertex 1.5 12.5 2
      vertex -1.5 12.5 2
    endloop
  endfacet
  facet normal 2.11177e-16 -0.309016 -0.951057
    outer loop
      vertex 1.5 13.3135 1.82709
      vertex 1.5 12.9158 1.9563
      vertex -1.5 13.3135 1.82709
    endloop
  endfacet
  facet normal 2.11177e-16 -0.309016 -0.951057
    outer loop
      vertex -1.5 13.3135 1.82709
      vertex 1.5 12.9158 1.9563
      vertex -1.5 12.9158 1.95629
    endloop
  endfacet
  facet normal 1.92296e-16 -0.499999 -0.866026
    outer loop
      vertex 1.5 13.6756 1.61803
      vertex 1.5 13.3135 1.82709
      vertex -1.5 13.6756 1.61803
    endloop
  endfacet
  facet normal 1.92296e-16 -0.499999 -0.866026
    outer loop
      vertex -1.5 13.6756 1.61803
      vertex 1.5 13.3135 1.82709
      vertex -1.5 13.3135 1.82709
    endloop
  endfacet
  facet normal 1.65011e-16 -0.669131 -0.743144
    outer loop
      vertex 1.5 13.9863 1.33826
      vertex 1.5 13.6756 1.61803
      vertex -1.5 13.9863 1.33826
    endloop
  endfacet
  facet normal 1.65011e-16 -0.669131 -0.743144
    outer loop
      vertex -1.5 13.9863 1.33826
      vertex 1.5 13.6756 1.61803
      vertex -1.5 13.6756 1.61803
    endloop
  endfacet
  facet normal 1.30515e-16 -0.809017 -0.587785
    outer loop
      vertex -1.5 14.2321 1
      vertex 1.5 14.2321 1
      vertex 1.5 13.9863 1.33826
    endloop
  endfacet
  facet normal 1.30515e-16 -0.809017 -0.587785
    outer loop
      vertex -1.5 13.9863 1.33826
      vertex -1.5 14.2321 1
      vertex 1.5 13.9863 1.33826
    endloop
  endfacet
  facet normal 9.03136e-17 -0.913546 -0.406736
    outer loop
      vertex -1.5 14.4021 0.618034
      vertex 1.5 14.4021 0.618034
      vertex 1.5 14.2321 1
    endloop
  endfacet
  facet normal 9.03136e-17 -0.913546 -0.406736
    outer loop
      vertex -1.5 14.2321 1
      vertex -1.5 14.4021 0.618034
      vertex 1.5 14.2321 1
    endloop
  endfacet
  facet normal 4.61658e-17 -0.978147 -0.207912
    outer loop
      vertex -1.5 14.489 0.209057
      vertex 1.5 14.489 0.209057
      vertex 1.5 14.4021 0.618034
    endloop
  endfacet
  facet normal 4.61658e-17 -0.978147 -0.207912
    outer loop
      vertex -1.5 14.4021 0.618034
      vertex -1.5 14.489 0.209057
      vertex 1.5 14.4021 0.618034
    endloop
  endfacet
  facet normal 0 -1 0
    outer loop
      vertex 1.5 14.489 -0.209057
      vertex 1.5 14.489 0.209057
      vertex -1.5 14.489 0.209057
    endloop
  endfacet
  facet normal 0 -1 0
    outer loop
      vertex -1.5 14.489 -0.209057
      vertex 1.5 14.489 -0.209057
      vertex -1.5 14.489 0.209057
    endloop
  endfacet
  facet normal -4.61658e-17 -0.978147 0.207912
    outer loop
      vertex 1.5 14.4021 -0.618034
      vertex 1.5 14.489 -0.209057
      vertex -1.5 14.489 -0.209057
    endloop
  endfacet
  facet normal -4.61658e-17 -0.978147 0.207912
    outer loop
      vertex -1.5 14.4021 -0.618034
      vertex 1.5 14.4021 -0.618034
      vertex -1.5 14.489 -0.209057
    endloop
  endfacet
  facet normal -9.03136e-17 -0.913546 0.406736
    outer loop
      vertex 1.5 14.2321 -1
      vertex 1.5 14.4021 -0.618034
      vertex -1.5 14.4021 -0.618034
    endloop
  endfacet
  facet normal -9.03136e-17 -0.913546 0.406736
    outer loop
      vertex -1.5 14.2321 -1
      vertex 1.5 14.2321 -1
      vertex -1.5 14.4021 -0.618034
    endloop
  endfacet
  facet normal -1.30515e-16 -0.809017 0.587785
    outer loop
      vertex 1.5 13.9863 -1.33826
      vertex 1.5 14.2321 -1
      vertex -1.5 14.2321 -1
    endloop
  endfacet
  facet normal -1.30515e-16 -0.809017 0.587785
    outer loop
      vertex -1.5 13.9863 -1.33826
      vertex 1.5 13.9863 -1.33826
      vertex -1.5 14.2321 -1
    endloop
  endfacet
  facet normal -1.65011e-16 -0.669131 0.743144
    outer loop
      vertex 1.5 13.6756 -1.61803
      vertex 1.5 13.9863 -1.33826
      vertex -1.5 13.9863 -1.33826
    endloop
  endfacet
  facet normal -1.65011e-16 -0.669131 0.743144
    outer loop
      vertex -1.5 13.6756 -1.61803
      vertex 1.5 13.6756 -1.61803
      vertex -1.5 13.9863 -1.33826
    endloop
  endfacet
  facet normal -1.92296e-16 -0.499999 0.866026
    outer loop
      vertex 1.5 13.3135 -1.82709
      vertex 1.5 13.6756 -1.61803
      vertex -1.5 13.6756 -1.61803
    endloop
  endfacet
  facet normal -1.92296e-16 -0.499999 0.866026
    outer loop
      vertex -1.5 13.3135 -1.82709
      vertex 1.5 13.3135 -1.82709
      vertex -1.5 13.6756 -1.61803
    endloop
  endfacet
  facet normal -2.11177e-16 -0.309016 0.951057
    outer loop
      vertex 1.5 12.9158 -1.95629
      vertex 1.5 13.3135 -1.82709
      vertex -1.5 13.3135 -1.82709
    endloop
  endfacet
  facet normal -2.11177e-16 -0.309016 0.951057
    outer loop
      vertex -1.5 12.9158 -1.9563
      vertex 1.5 12.9158 -1.95629
      vertex -1.5 13.3135 -1.82709
    endloop
  endfacet
  facet normal -2.20828e-16 -0.104529 0.994522
    outer loop
      vertex 1.5 12.5 -2
      vertex 1.5 12.9158 -1.95629
      vertex -1.5 12.9158 -1.9563
    endloop
  endfacet
  facet normal -2.20828e-16 -0.104529 0.994522
    outer loop
      vertex -1.5 12.5 -2
      vertex 1.5 12.5 -2
      vertex -1.5 12.9158 -1.9563
    endloop
  endfacet
  facet normal -2.20828e-16 0.104529 0.994522
    outer loop
      vertex 1.5 12.0842 -1.95629
      vertex 1.5 12.5 -2
      vertex -1.5 12.5 -2
    endloop
  endfacet
  facet normal -2.20828e-16 0.104529 0.994522
    outer loop
      vertex -1.5 12.0842 -1.9563
      vertex 1.5 12.0842 -1.95629
      vertex -1.5 12.5 -2
    endloop
  endfacet
  facet normal -2.11177e-16 0.309016 0.951057
    outer loop
      vertex 1.5 11.6865 -1.82709
      vertex 1.5 12.0842 -1.95629
      vertex -1.5 12.0842 -1.9563
    endloop
  endfacet
  facet normal -2.11177e-16 0.309016 0.951057
    outer loop
      vertex -1.5 11.6865 -1.82709
      vertex 1.5 11.6865 -1.82709
      vertex -1.5 12.0842 -1.9563
    endloop
  endfacet
  facet normal -1.92296e-16 0.499999 0.866026
    outer loop
      vertex 1.5 11.3244 -1.61803
      vertex 1.5 11.6865 -1.82709
      vertex -1.5 11.6865 -1.82709
    endloop
  endfacet
  facet normal -1.92296e-16 0.499999 0.866026
    outer loop
      vertex -1.5 11.3244 -1.61803
      vertex 1.5 11.3244 -1.61803
      vertex -1.5 11.6865 -1.82709
    endloop
  endfacet
  facet normal -1.65011e-16 0.669131 0.743144
    outer loop
      vertex 1.5 11.0137 -1.33826
      vertex 1.5 11.3244 -1.61803
      vertex -1.5 11.3244 -1.61803
    endloop
  endfacet
  facet normal -1.65011e-16 0.669131 0.743144
    outer loop
      vertex -1.5 11.0137 -1.33826
      vertex 1.5 11.0137 -1.33826
      vertex -1.5 11.3244 -1.61803
    endloop
  endfacet
  facet normal -1.30515e-16 0.809017 0.587785
    outer loop
      vertex 1.5 11.0137 -1.33826
      vertex -1.5 11.0137 -1.33826
      vertex 1.5 10.7679 -1
    endloop
  endfacet
  facet normal -1.30515e-16 0.809017 0.587785
    outer loop
      vertex 1.5 10.7679 -1
      vertex -1.5 11.0137 -1.33826
      vertex -1.5 10.7679 -1
    endloop
  endfacet
  facet normal -9.03136e-17 0.913546 0.406736
    outer loop
      vertex 1.5 10.7679 -1
      vertex -1.5 10.7679 -1
      vertex 1.5 10.5979 -0.618034
    endloop
  endfacet
  facet normal -9.03136e-17 0.913546 0.406736
    outer loop
      vertex 1.5 10.5979 -0.618034
      vertex -1.5 10.7679 -1
      vertex -1.5 10.5979 -0.618034
    endloop
  endfacet
  facet normal -4.61658e-17 0.978147 0.207912
    outer loop
      vertex 1.5 10.5979 -0.618034
      vertex -1.5 10.5979 -0.618034
      vertex 1.5 10.511 -0.209057
    endloop
  endfacet
  facet normal -4.61658e-17 0.978147 0.207912
    outer loop
      vertex 1.5 10.511 -0.209057
      vertex -1.5 10.5979 -0.618034
      vertex -1.5 10.511 -0.209057
    endloop
  endfacet
  facet normal 1 0 0
    outer loop
      vertex 1.5 -13.6756 -1.61803
      vertex 1.5 -17.5 -8
      vertex 1.5 -9.875 -8
    endloop
  endfacet
  facet normal 1 0 0
    outer loop
      vertex 1.5 -12.5 -2
      vertex 1.5 -12.9158 -1.95629
      vertex 1.5 -9.875 -5
    endloop
  endfacet
  facet normal 1 0 0
    outer loop
      vertex 1.5 -4.15823 2.08768
      vertex 1.5 -17.5 5
      vertex 1.5 9.875 -5
    endloop
  endfacet
  facet normal 1 0 0
    outer loop
      vertex 1.5 17.5 -8
      vertex 1.5 9.875 -5
      vertex 1.5 9.875 -8
    endloop
  endfacet
  facet normal 1 0 0
    outer loop
      vertex 1.5 13.6756 -1.61803
      vertex 1.5 9.875 -5
      vertex 1.5 17.5 -8
    endloop
  endfacet
  facet normal 1 0 0
    outer loop
      vertex 1.5 10.511 0.209057
      vertex 1.5 10.9411 5
      vertex 1.5 9.875 -5
    endloop
  endfacet
  facet normal 1 0 0
    outer loop
      vertex 1.5 10.9411 5
      vertex 1.5 8.13473 3.37973
      vertex 1.5 9.875 -5
    endloop
  endfacet
  facet normal 1 0 0
    outer loop
      vertex 1.5 10.511 0.209057
      vertex 1.5 10.5979 0.618034
      vertex 1.5 10.9411 5
    endloop
  endfacet
  facet normal 1 0 0
    outer loop
      vertex 1.5 8.13473 3.37973
      vertex 1.5 4.15823 2.08768
      vertex 1.5 9.875 -5
    endloop
  endfacet
  facet normal 1 0 0
    outer loop
      vertex 1.5 -14.489 -0.209057
      vertex 1.5 -14.489 0.209057
      vertex 1.5 -17.5 5
    endloop
  endfacet
  facet normal 1 0 0
    outer loop
      vertex 1.5 4.15823 2.08768
      vertex 1.5 0 1.65064
      vertex 1.5 9.875 -5
    endloop
  endfacet
  facet normal 1 0 0
    outer loop
      vertex 1.5 0 1.65064
      vertex 1.5 -4.15823 2.08768
      vertex 1.5 9.875 -5
    endloop
  endfacet
  facet normal 1 0 0
    outer loop
      vertex 1.5 -12.0842 -1.95629
      vertex 1.5 -12.5 -2
      vertex 1.5 -9.875 -5
    endloop
  endfacet
  facet normal 1 0 0
    outer loop
      vertex 1.5 -14.4021 0.618034
      vertex 1.5 -14.2321 1
      vertex 1.5 -17.5 5
    endloop
  endfacet
  facet normal 1 0 0
    outer loop
      vertex 1.5 -17.5 5
      vertex 1.5 -17.5 -8
      vertex 1.5 -14.489 -0.209057
    endloop
  endfacet
  facet normal 1 0 0
    outer loop
      vertex 1.5 12.0842 1.9563
      vertex 1.5 12.5 2
      vertex 1.5 17.5 5
    endloop
  endfacet
  facet normal 1 0 0
    outer loop
      vertex 1.5 -14.4021 0.618034
      vertex 1.5 -17.5 5
      vertex 1.5 -14.489 0.209057
    endloop
  endfacet
  facet normal 1 0 0
    outer loop
      vertex 1.5 -11.6865 1.82709
      vertex 1.5 -11.3244 1.61803
      vertex 1.5 9.875 -5
    endloop
  endfacet
  facet normal 1 0 0
    outer loop
      vertex 1.5 -13.3135 -1.82709
      vertex 1.5 -13.6756 -1.61803
      vertex 1.5 -9.875 -8
    endloop
  endfacet
  facet normal 1 0 0
    outer loop
      vertex 1.5 -13.9863 1.33826
      vertex 1.5 -17.5 5
      vertex 1.5 -14.2321 1
    endloop
  endfacet
  facet normal 1 0 0
    outer loop
      vertex 1.5 -13.6756 1.61803
      vertex 1.5 -17.5 5
      vertex 1.5 -13.9863 1.33826
    endloop
  endfacet
  facet normal 1 0 0
    outer loop
      vertex 1.5 -13.3135 1.82709
      vertex 1.5 -17.5 5
      vertex 1.5 -13.6756 1.61803
    endloop
  endfacet
  facet normal 1 0 0
    outer loop
      vertex 1.5 -12.9158 1.9563
      vertex 1.5 -17.5 5
      vertex 1.5 -13.3135 1.82709
    endloop
  endfacet
  facet normal 1 0 0
    outer loop
      vertex 1.5 -12.5 2
      vertex 1.5 -17.5 5
      vertex 1.5 -12.9158 1.9563
    endloop
  endfacet
  facet normal 1 0 0
    outer loop
      vertex 1.5 -12.0842 1.9563
      vertex 1.5 -17.5 5
      vertex 1.5 -12.5 2
    endloop
  endfacet
  facet normal 1 0 0
    outer loop
      vertex 1.5 9.875 -5
      vertex 1.5 -17.5 5
      vertex 1.5 -12.0842 1.9563
    endloop
  endfacet
  facet normal 1 0 0
    outer loop
      vertex 1.5 -11.3244 1.61803
      vertex 1.5 -11.0137 1.33826
      vertex 1.5 9.875 -5
    endloop
  endfacet
  facet normal 1 0 0
    outer loop
      vertex 1.5 9.875 -5
      vertex 1.5 -12.0842 1.9563
      vertex 1.5 -11.6865 1.82709
    endloop
  endfacet
  facet normal 1 0 0
    outer loop
      vertex 1.5 -11.0137 1.33826
      vertex 1.5 -10.7679 1
      vertex 1.5 9.875 -5
    endloop
  endfacet
  facet normal 1 0 0
    outer loop
      vertex 1.5 -10.7679 1
      vertex 1.5 -10.5979 0.618034
      vertex 1.5 9.875 -5
    endloop
  endfacet
  facet normal 1 0 0
    outer loop
      vertex 1.5 -10.5979 0.618034
      vertex 1.5 -10.511 0.209057
      vertex 1.5 9.875 -5
    endloop
  endfacet
  facet normal 1 0 0
    outer loop
      vertex 1.5 -10.511 0.209057
      vertex 1.5 -10.511 -0.209057
      vertex 1.5 9.875 -5
    endloop
  endfacet
  facet normal 1 0 0
    outer loop
      vertex 1.5 9.875 -5
      vertex 1.5 -10.511 -0.209057
      vertex 1.5 -9.875 -5
    endloop
  endfacet
  facet normal 1 0 0
    outer loop
      vertex 1.5 -10.511 -0.209057
      vertex 1.5 -10.5979 -0.618034
      vertex 1.5 -9.875 -5
    endloop
  endfacet
  facet normal 1 0 0
    outer loop
      vertex 1.5 -10.5979 -0.618034
      vertex 1.5 -10.7679 -1
      vertex 1.5 -9.875 -5
    endloop
  endfacet
  facet normal 1 0 0
    outer loop
      vertex 1.5 -10.7679 -1
      vertex 1.5 -11.0137 -1.33826
      vertex 1.5 -9.875 -5
    endloop
  endfacet
  facet normal 1 0 0
    outer loop
      vertex 1.5 -11.0137 -1.33826
      vertex 1.5 -11.3244 -1.61803
      vertex 1.5 -9.875 -5
    endloop
  endfacet
  facet normal 1 0 0
    outer loop
      vertex 1.5 -11.3244 -1.61803
      vertex 1.5 -11.6865 -1.82709
      vertex 1.5 -9.875 -5
    endloop
  endfacet
  facet normal 1 0 0
    outer loop
      vertex 1.5 -11.6865 -1.82709
      vertex 1.5 -12.0842 -1.95629
      vertex 1.5 -9.875 -5
    endloop
  endfacet
  facet normal 1 0 0
    outer loop
      vertex 1.5 -9.875 -5
      vertex 1.5 -12.9158 -1.95629
      vertex 1.5 -9.875 -8
    endloop
  endfacet
  facet normal 1 0 0
    outer loop
      vertex 1.5 -12.9158 -1.95629
      vertex 1.5 -13.3135 -1.82709
      vertex 1.5 -9.875 -8
    endloop
  endfacet
  facet normal 1 0 0
    outer loop
      vertex 1.5 -13.9863 -1.33826
      vertex 1.5 -17.5 -8
      vertex 1.5 -13.6756 -1.61803
    endloop
  endfacet
  facet normal 1 0 0
    outer loop
      vertex 1.5 -14.2321 -1
      vertex 1.5 -17.5 -8
      vertex 1.5 -13.9863 -1.33826
    endloop
  endfacet
  facet normal 1 0 0
    outer loop
      vertex 1.5 -14.4021 -0.618034
      vertex 1.5 -17.5 -8
      vertex 1.5 -14.2321 -1
    endloop
  endfacet
  facet normal 1 0 0
    outer loop
      vertex 1.5 -14.489 -0.209057
      vertex 1.5 -17.5 -8
      vertex 1.5 -14.4021 -0.618034
    endloop
  endfacet
  facet normal 1 0 0
    outer loop
      vertex 1.5 10.5979 -0.618034
      vertex 1.5 10.511 -0.209057
      vertex 1.5 9.875 -5
    endloop
  endfacet
  facet normal 1 0 0
    outer loop
      vertex 1.5 10.511 -0.209057
      vertex 1.5 10.511 0.209057
      vertex 1.5 9.875 -5
    endloop
  endfacet
  facet normal 1 0 0
    outer loop
      vertex 1.5 11.6865 1.82709
      vertex 1.5 12.0842 1.9563
      vertex 1.5 17.5 5
    endloop
  endfacet
  facet normal 1 0 0
    outer loop
      vertex 1.5 10.7679 1
      vertex 1.5 10.9411 5
      vertex 1.5 10.5979 0.618034
    endloop
  endfacet
  facet normal 1 0 0
    outer loop
      vertex 1.5 11.0137 1.33826
      vertex 1.5 10.9411 5
      vertex 1.5 10.7679 1
    endloop
  endfacet
  facet normal 1 0 0
    outer loop
      vertex 1.5 12.5 2
      vertex 1.5 12.9158 1.9563
      vertex 1.5 17.5 5
    endloop
  endfacet
  facet normal 1 0 0
    outer loop
      vertex 1.5 11.3244 1.61803
      vertex 1.5 10.9411 5
      vertex 1.5 11.0137 1.33826
    endloop
  endfacet
  facet normal 1 0 0
    outer loop
      vertex 1.5 11.6865 1.82709
      vertex 1.5 10.9411 5
      vertex 1.5 11.3244 1.61803
    endloop
  endfacet
  facet normal 1 0 0
    outer loop
      vertex 1.5 17.5 5
      vertex 1.5 10.9411 5
      vertex 1.5 11.6865 1.82709
    endloop
  endfacet
  facet normal 1 0 0
    outer loop
      vertex 1.5 13.6756 -1.61803
      vertex 1.5 13.3135 -1.82709
      vertex 1.5 9.875 -5
    endloop
  endfacet
  facet normal 1 0 0
    outer loop
      vertex 1.5 12.9158 1.9563
      vertex 1.5 13.3135 1.82709
      vertex 1.5 17.5 5
    endloop
  endfacet
  facet normal 1 0 0
    outer loop
      vertex 1.5 14.2321 1
      vertex 1.5 14.4021 0.618034
      vertex 1.5 17.5 5
    endloop
  endfacet
  facet normal 1 0 0
    outer loop
      vertex 1.5 11.6865 -1.82709
      vertex 1.5 11.3244 -1.61803
      vertex 1.5 9.875 -5
    endloop
  endfacet
  facet normal 1 0 0
    outer loop
      vertex 1.5 17.5 5
      vertex 1.5 13.3135 1.82709
      vertex 1.5 13.6756 1.61803
    endloop
  endfacet
  facet normal 1 0 0
    outer loop
      vertex 1.5 17.5 5
      vertex 1.5 13.6756 1.61803
      vertex 1.5 13.9863 1.33826
    endloop
  endfacet
  facet normal 1 0 0
    outer loop
      vertex 1.5 17.5 5
      vertex 1.5 13.9863 1.33826
      vertex 1.5 14.2321 1
    endloop
  endfacet
  facet normal 1 0 0
    outer loop
      vertex 1.5 17.5 5
      vertex 1.5 14.4021 0.618034
      vertex 1.5 17.5 -8
    endloop
  endfacet
  facet normal 1 0 0
    outer loop
      vertex 1.5 14.4021 0.618034
      vertex 1.5 14.489 0.209057
      vertex 1.5 17.5 -8
    endloop
  endfacet
  facet normal 1 0 0
    outer loop
      vertex 1.5 14.489 0.209057
      vertex 1.5 14.489 -0.209057
      vertex 1.5 17.5 -8
    endloop
  endfacet
  facet normal 1 0 0
    outer loop
      vertex 1.5 14.489 -0.209057
      vertex 1.5 14.4021 -0.618034
      vertex 1.5 17.5 -8
    endloop
  endfacet
  facet normal 1 0 0
    outer loop
      vertex 1.5 14.4021 -0.618034
      vertex 1.5 14.2321 -1
      vertex 1.5 17.5 -8
    endloop
  endfacet
  facet normal 1 0 0
    outer loop
      vertex 1.5 14.2321 -1
      vertex 1.5 13.9863 -1.33826
      vertex 1.5 17.5 -8
    endloop
  endfacet
  facet normal 1 0 0
    outer loop
      vertex 1.5 13.3135 -1.82709
      vertex 1.5 12.9158 -1.95629
      vertex 1.5 9.875 -5
    endloop
  endfacet
  facet normal 1 0 0
    outer loop
      vertex 1.5 13.9863 -1.33826
      vertex 1.5 13.6756 -1.61803
      vertex 1.5 17.5 -8
    endloop
  endfacet
  facet normal 1 0 0
    outer loop
      vertex 1.5 12.9158 -1.95629
      vertex 1.5 12.5 -2
      vertex 1.5 9.875 -5
    endloop
  endfacet
  facet normal 1 0 0
    outer loop
      vertex 1.5 12.5 -2
      vertex 1.5 12.0842 -1.95629
      vertex 1.5 9.875 -5
    endloop
  endfacet
  facet normal 1 0 0
    outer loop
      vertex 1.5 12.0842 -1.95629
      vertex 1.5 11.6865 -1.82709
      vertex 1.5 9.875 -5
    endloop
  endfacet
  facet normal 1 0 0
    outer loop
      vertex 1.5 11.3244 -1.61803
      vertex 1.5 11.0137 -1.33826
      vertex 1.5 9.875 -5
    endloop
  endfacet
  facet normal 1 0 0
    outer loop
      vertex 1.5 11.0137 -1.33826
      vertex 1.5 10.7679 -1
      vertex 1.5 9.875 -5
    endloop
  endfacet
  facet normal 1 0 0
    outer loop
      vertex 1.5 10.7679 -1
      vertex 1.5 10.5979 -0.618034
      vertex 1.5 9.875 -5
    endloop
  endfacet
  facet normal 1 0 0
    outer loop
      vertex 1.5 -4.15823 2.08768
      vertex 1.5 -8.13473 3.37973
      vertex 1.5 -17.5 5
    endloop
  endfacet
  facet normal 1 0 0
    outer loop
      vertex 1.5 -8.13473 3.37973
      vertex 1.5 -10.9411 5
      vertex 1.5 -17.5 5
    endloop
  endfacet
  facet normal 0 -1 0
    outer loop
      vertex 1.5 -9.875 -5
      vertex 1.5 -9.875 -8
      vertex 20.75 -9.875 -8
    endloop
  endfacet
  facet normal 0 -1 0
    outer loop
      vertex 20.75 -9.875 -5
      vertex 1.5 -9.875 -5
      vertex 20.75 -9.875 -8
    endloop
  endfacet
  facet normal 1 0 0
    outer loop
      vertex 20.75 -9.875 -5
      vertex 20.75 -9.875 -8
      vertex 20.75 9.875 -8
    endloop
  endfacet
  facet normal 1 0 0
    outer loop
      vertex 20.75 9.875 -5
      vertex 20.75 -9.875 -5
      vertex 20.75 9.875 -8
    endloop
  endfacet
  facet normal 0 1 0
    outer loop
      vertex 1.5 9.875 -8
      vertex 1.5 9.875 -5
      vertex 20.75 9.875 -8
    endloop
  endfacet
  facet normal 0 1 0
    outer loop
      vertex 20.75 9.875 -8
      vertex 1.5 9.875 -5
      vertex 20.75 9.875 -5
    endloop
  endfacet
  facet normal 0.994522 -0.104528 0
    outer loop
      vertex 4.53551 -4.91214 -8
      vertex 4.53551 -4.91214 -5
      vertex 4.5 -5.25 -5
    endloop
  endfacet
  facet normal 0.994522 -0.104528 0
    outer loop
      vertex 4.5 -5.25 -8
      vertex 4.53551 -4.91214 -8
      vertex 4.5 -5.25 -5
    endloop
  endfacet
  facet normal 0.994522 0.104528 0
    outer loop
      vertex 4.5 -5.25 -5
      vertex 4.53551 -5.58786 -5
      vertex 4.53551 -5.58786 -8
    endloop
  endfacet
  facet normal 0.994522 0.104528 0
    outer loop
      vertex 4.5 -5.25 -8
      vertex 4.5 -5.25 -5
      vertex 4.53551 -5.58786 -8
    endloop
  endfacet
  facet normal 0.951056 -0.309018 0
    outer loop
      vertex 4.64049 -4.58905 -8
      vertex 4.64049 -4.58905 -5
      vertex 4.53551 -4.91214 -5
    endloop
  endfacet
  facet normal 0.951056 -0.309018 0
    outer loop
      vertex 4.53551 -4.91214 -8
      vertex 4.64049 -4.58905 -8
      vertex 4.53551 -4.91214 -5
    endloop
  endfacet
  facet normal 0.866026 -0.499998 0
    outer loop
      vertex 4.81035 -4.29485 -8
      vertex 4.81035 -4.29485 -5
      vertex 4.64049 -4.58905 -5
    endloop
  endfacet
  facet normal 0.866026 -0.499998 0
    outer loop
      vertex 4.64049 -4.58905 -8
      vertex 4.81035 -4.29485 -8
      vertex 4.64049 -4.58905 -5
    endloop
  endfacet
  facet normal 0.743144 -0.669132 0
    outer loop
      vertex 5.03766 -4.04239 -8
      vertex 5.03766 -4.04239 -5
      vertex 4.81035 -4.29485 -5
    endloop
  endfacet
  facet normal 0.743144 -0.669132 0
    outer loop
      vertex 4.81035 -4.29485 -8
      vertex 5.03766 -4.04239 -8
      vertex 4.81035 -4.29485 -5
    endloop
  endfacet
  facet normal 0.587786 -0.809017 0
    outer loop
      vertex 5.3125 -3.84271 -8
      vertex 5.3125 -3.84271 -5
      vertex 5.03766 -4.04239 -5
    endloop
  endfacet
  facet normal 0.587786 -0.809017 0
    outer loop
      vertex 5.03766 -4.04239 -8
      vertex 5.3125 -3.84271 -8
      vertex 5.03766 -4.04239 -5
    endloop
  endfacet
  facet normal 0.406738 -0.913545 0
    outer loop
      vertex 5.62285 -3.70453 -8
      vertex 5.62285 -3.70453 -5
      vertex 5.3125 -3.84271 -5
    endloop
  endfacet
  facet normal 0.406738 -0.913545 0
    outer loop
      vertex 5.3125 -3.84271 -8
      vertex 5.62285 -3.70453 -8
      vertex 5.3125 -3.84271 -5
    endloop
  endfacet
  facet normal 0.207911 -0.978148 0
    outer loop
      vertex 5.95514 -3.6339 -8
      vertex 5.95514 -3.6339 -5
      vertex 5.62285 -3.70453 -5
    endloop
  endfacet
  facet normal 0.207911 -0.978148 0
    outer loop
      vertex 5.62285 -3.70453 -8
      vertex 5.95514 -3.6339 -8
      vertex 5.62285 -3.70453 -5
    endloop
  endfacet
  facet normal 0 -1 0
    outer loop
      vertex 16.2949 -3.6339 -8
      vertex 16.2949 -3.6339 -5
      vertex 5.95514 -3.6339 -5
    endloop
  endfacet
  facet normal 0 -1 0
    outer loop
      vertex 5.95514 -3.6339 -8
      vertex 16.2949 -3.6339 -8
      vertex 5.95514 -3.6339 -5
    endloop
  endfacet
  facet normal -0.207911 -0.978148 0
    outer loop
      vertex 16.6272 -3.70453 -8
      vertex 16.6272 -3.70453 -5
      vertex 16.2949 -3.6339 -5
    endloop
  endfacet
  facet normal -0.207911 -0.978148 0
    outer loop
      vertex 16.2949 -3.6339 -8
      vertex 16.6272 -3.70453 -8
      vertex 16.2949 -3.6339 -5
    endloop
  endfacet
  facet normal -0.406738 -0.913545 0
    outer loop
      vertex 16.9375 -3.84271 -8
      vertex 16.9375 -3.84271 -5
      vertex 16.6272 -3.70453 -5
    endloop
  endfacet
  facet normal -0.406738 -0.913545 0
    outer loop
      vertex 16.6272 -3.70453 -8
      vertex 16.9375 -3.84271 -8
      vertex 16.6272 -3.70453 -5
    endloop
  endfacet
  facet normal -0.587786 -0.809017 0
    outer loop
      vertex 17.2123 -4.04239 -8
      vertex 17.2123 -4.04239 -5
      vertex 16.9375 -3.84271 -5
    endloop
  endfacet
  facet normal -0.587786 -0.809017 0
    outer loop
      vertex 16.9375 -3.84271 -8
      vertex 17.2123 -4.04239 -8
      vertex 16.9375 -3.84271 -5
    endloop
  endfacet
  facet normal -0.743144 -0.669132 0
    outer loop
      vertex 17.4397 -4.29485 -5
      vertex 17.2123 -4.04239 -5
      vertex 17.4397 -4.29485 -8
    endloop
  endfacet
  facet normal -0.743144 -0.669132 0
    outer loop
      vertex 17.4397 -4.29485 -8
      vertex 17.2123 -4.04239 -5
      vertex 17.2123 -4.04239 -8
    endloop
  endfacet
  facet normal -0.866026 -0.499998 0
    outer loop
      vertex 17.6095 -4.58905 -5
      vertex 17.4397 -4.29485 -5
      vertex 17.6095 -4.58905 -8
    endloop
  endfacet
  facet normal -0.866026 -0.499998 0
    outer loop
      vertex 17.6095 -4.58905 -8
      vertex 17.4397 -4.29485 -5
      vertex 17.4397 -4.29485 -8
    endloop
  endfacet
  facet normal -0.951056 -0.309018 0
    outer loop
      vertex 17.7145 -4.91214 -5
      vertex 17.6095 -4.58905 -5
      vertex 17.7145 -4.91214 -8
    endloop
  endfacet
  facet normal -0.951056 -0.309018 0
    outer loop
      vertex 17.7145 -4.91214 -8
      vertex 17.6095 -4.58905 -5
      vertex 17.6095 -4.58905 -8
    endloop
  endfacet
  facet normal -0.994522 -0.104528 0
    outer loop
      vertex 17.75 -5.25 -5
      vertex 17.7145 -4.91214 -5
      vertex 17.75 -5.25 -8
    endloop
  endfacet
  facet normal -0.994522 -0.104528 0
    outer loop
      vertex 17.75 -5.25 -8
      vertex 17.7145 -4.91214 -5
      vertex 17.7145 -4.91214 -8
    endloop
  endfacet
  facet normal -0.994522 0.104528 0
    outer loop
      vertex 17.75 -5.25 -5
      vertex 17.75 -5.25 -8
      vertex 17.7145 -5.58786 -5
    endloop
  endfacet
  facet normal -0.994522 0.104528 0
    outer loop
      vertex 17.7145 -5.58786 -5
      vertex 17.75 -5.25 -8
      vertex 17.7145 -5.58786 -8
    endloop
  endfacet
  facet normal -0.951056 0.309018 0
    outer loop
      vertex 17.7145 -5.58786 -5
      vertex 17.7145 -5.58786 -8
      vertex 17.6095 -5.91095 -5
    endloop
  endfacet
  facet normal -0.951056 0.309018 0
    outer loop
      vertex 17.6095 -5.91095 -5
      vertex 17.7145 -5.58786 -8
      vertex 17.6095 -5.91095 -8
    endloop
  endfacet
  facet normal -0.866026 0.499998 0
    outer loop
      vertex 17.6095 -5.91095 -5
      vertex 17.6095 -5.91095 -8
      vertex 17.4397 -6.20515 -5
    endloop
  endfacet
  facet normal -0.866026 0.499998 0
    outer loop
      vertex 17.4397 -6.20515 -5
      vertex 17.6095 -5.91095 -8
      vertex 17.4397 -6.20515 -8
    endloop
  endfacet
  facet normal -0.743144 0.669132 0
    outer loop
      vertex 17.4397 -6.20515 -5
      vertex 17.4397 -6.20515 -8
      vertex 17.2123 -6.45761 -5
    endloop
  endfacet
  facet normal -0.743144 0.669132 0
    outer loop
      vertex 17.2123 -6.45761 -5
      vertex 17.4397 -6.20515 -8
      vertex 17.2123 -6.45761 -8
    endloop
  endfacet
  facet normal -0.587786 0.809017 0
    outer loop
      vertex 17.2123 -6.45761 -5
      vertex 17.2123 -6.45761 -8
      vertex 16.9375 -6.65729 -5
    endloop
  endfacet
  facet normal -0.587786 0.809017 0
    outer loop
      vertex 16.9375 -6.65729 -5
      vertex 17.2123 -6.45761 -8
      vertex 16.9375 -6.65729 -8
    endloop
  endfacet
  facet normal -0.406738 0.913545 0
    outer loop
      vertex 16.9375 -6.65729 -5
      vertex 16.9375 -6.65729 -8
      vertex 16.6272 -6.79547 -5
    endloop
  endfacet
  facet normal -0.406738 0.913545 0
    outer loop
      vertex 16.6272 -6.79547 -5
      vertex 16.9375 -6.65729 -8
      vertex 16.6272 -6.79547 -8
    endloop
  endfacet
  facet normal -0.207911 0.978148 0
    outer loop
      vertex 16.6272 -6.79547 -5
      vertex 16.6272 -6.79547 -8
      vertex 16.2949 -6.8661 -5
    endloop
  endfacet
  facet normal -0.207911 0.978148 0
    outer loop
      vertex 16.2949 -6.8661 -5
      vertex 16.6272 -6.79547 -8
      vertex 16.2949 -6.8661 -8
    endloop
  endfacet
  facet normal 0 1 0
    outer loop
      vertex 16.2949 -6.8661 -5
      vertex 16.2949 -6.8661 -8
      vertex 5.95514 -6.8661 -5
    endloop
  endfacet
  facet normal 0 1 0
    outer loop
      vertex 5.95514 -6.8661 -5
      vertex 16.2949 -6.8661 -8
      vertex 5.95514 -6.8661 -8
    endloop
  endfacet
  facet normal 0.207911 0.978148 0
    outer loop
      vertex 5.95514 -6.8661 -5
      vertex 5.95514 -6.8661 -8
      vertex 5.62285 -6.79547 -5
    endloop
  endfacet
  facet normal 0.207911 0.978148 0
    outer loop
      vertex 5.62285 -6.79547 -5
      vertex 5.95514 -6.8661 -8
      vertex 5.62285 -6.79547 -8
    endloop
  endfacet
  facet normal 0.406738 0.913545 0
    outer loop
      vertex 5.62285 -6.79547 -5
      vertex 5.62285 -6.79547 -8
      vertex 5.3125 -6.65729 -5
    endloop
  endfacet
  facet normal 0.406738 0.913545 0
    outer loop
      vertex 5.3125 -6.65729 -5
      vertex 5.62285 -6.79547 -8
      vertex 5.3125 -6.65729 -8
    endloop
  endfacet
  facet normal 0.587786 0.809017 0
    outer loop
      vertex 5.3125 -6.65729 -5
      vertex 5.3125 -6.65729 -8
      vertex 5.03766 -6.45761 -5
    endloop
  endfacet
  facet normal 0.587786 0.809017 0
    outer loop
      vertex 5.03766 -6.45761 -5
      vertex 5.3125 -6.65729 -8
      vertex 5.03766 -6.45761 -8
    endloop
  endfacet
  facet normal 0.743144 0.669132 0
    outer loop
      vertex 4.81035 -6.20515 -5
      vertex 5.03766 -6.45761 -5
      vertex 5.03766 -6.45761 -8
    endloop
  endfacet
  facet normal 0.743144 0.669132 0
    outer loop
      vertex 4.81035 -6.20515 -8
      vertex 4.81035 -6.20515 -5
      vertex 5.03766 -6.45761 -8
    endloop
  endfacet
  facet normal 0.866026 0.499998 0
    outer loop
      vertex 4.64049 -5.91095 -5
      vertex 4.81035 -6.20515 -5
      vertex 4.81035 -6.20515 -8
    endloop
  endfacet
  facet normal 0.866026 0.499998 0
    outer loop
      vertex 4.64049 -5.91095 -8
      vertex 4.64049 -5.91095 -5
      vertex 4.81035 -6.20515 -8
    endloop
  endfacet
  facet normal 0.951056 0.309018 0
    outer loop
      vertex 4.53551 -5.58786 -5
      vertex 4.64049 -5.91095 -5
      vertex 4.64049 -5.91095 -8
    endloop
  endfacet
  facet normal 0.951056 0.309018 0
    outer loop
      vertex 4.53551 -5.58786 -8
      vertex 4.53551 -5.58786 -5
      vertex 4.64049 -5.91095 -8
    endloop
  endfacet
  facet normal 0.994522 -0.104528 0
    outer loop
      vertex 4.53551 5.58786 -8
      vertex 4.53551 5.58786 -5
      vertex 4.5 5.25 -5
    endloop
  endfacet
  facet normal 0.994522 -0.104528 0
    outer loop
      vertex 4.5 5.25 -8
      vertex 4.53551 5.58786 -8
      vertex 4.5 5.25 -5
    endloop
  endfacet
  facet normal 0.994522 0.104528 0
    outer loop
      vertex 4.5 5.25 -5
      vertex 4.53551 4.91214 -5
      vertex 4.53551 4.91214 -8
    endloop
  endfacet
  facet normal 0.994522 0.104528 0
    outer loop
      vertex 4.5 5.25 -8
      vertex 4.5 5.25 -5
      vertex 4.53551 4.91214 -8
    endloop
  endfacet
  facet normal 0.951056 -0.309018 0
    outer loop
      vertex 4.64049 5.91095 -8
      vertex 4.64049 5.91095 -5
      vertex 4.53551 5.58786 -5
    endloop
  endfacet
  facet normal 0.951056 -0.309018 0
    outer loop
      vertex 4.53551 5.58786 -8
      vertex 4.64049 5.91095 -8
      vertex 4.53551 5.58786 -5
    endloop
  endfacet
  facet normal 0.866026 -0.499998 0
    outer loop
      vertex 4.81035 6.20515 -8
      vertex 4.81035 6.20515 -5
      vertex 4.64049 5.91095 -5
    endloop
  endfacet
  facet normal 0.866026 -0.499998 0
    outer loop
      vertex 4.64049 5.91095 -8
      vertex 4.81035 6.20515 -8
      vertex 4.64049 5.91095 -5
    endloop
  endfacet
  facet normal 0.743144 -0.669132 0
    outer loop
      vertex 5.03766 6.45761 -8
      vertex 5.03766 6.45761 -5
      vertex 4.81035 6.20515 -5
    endloop
  endfacet
  facet normal 0.743144 -0.669132 0
    outer loop
      vertex 4.81035 6.20515 -8
      vertex 5.03766 6.45761 -8
      vertex 4.81035 6.20515 -5
    endloop
  endfacet
  facet normal 0.587786 -0.809017 0
    outer loop
      vertex 5.3125 6.65729 -8
      vertex 5.3125 6.65729 -5
      vertex 5.03766 6.45761 -5
    endloop
  endfacet
  facet normal 0.587786 -0.809017 0
    outer loop
      vertex 5.03766 6.45761 -8
      vertex 5.3125 6.65729 -8
      vertex 5.03766 6.45761 -5
    endloop
  endfacet
  facet normal 0.406738 -0.913545 0
    outer loop
      vertex 5.62285 6.79547 -8
      vertex 5.62285 6.79547 -5
      vertex 5.3125 6.65729 -5
    endloop
  endfacet
  facet normal 0.406738 -0.913545 0
    outer loop
      vertex 5.3125 6.65729 -8
      vertex 5.62285 6.79547 -8
      vertex 5.3125 6.65729 -5
    endloop
  endfacet
  facet normal 0.207911 -0.978148 0
    outer loop
      vertex 5.95514 6.8661 -8
      vertex 5.95514 6.8661 -5
      vertex 5.62285 6.79547 -5
    endloop
  endfacet
  facet normal 0.207911 -0.978148 0
    outer loop
      vertex 5.62285 6.79547 -8
      vertex 5.95514 6.8661 -8
      vertex 5.62285 6.79547 -5
    endloop
  endfacet
  facet normal 0 -1 0
    outer loop
      vertex 16.2949 6.8661 -8
      vertex 16.2949 6.8661 -5
      vertex 5.95514 6.8661 -5
    endloop
  endfacet
  facet normal 0 -1 0
    outer loop
      vertex 5.95514 6.8661 -8
      vertex 16.2949 6.8661 -8
      vertex 5.95514 6.8661 -5
    endloop
  endfacet
  facet normal -0.207911 -0.978148 0
    outer loop
      vertex 16.6272 6.79547 -8
      vertex 16.6272 6.79547 -5
      vertex 16.2949 6.8661 -5
    endloop
  endfacet
  facet normal -0.207911 -0.978148 0
    outer loop
      vertex 16.2949 6.8661 -8
      vertex 16.6272 6.79547 -8
      vertex 16.2949 6.8661 -5
    endloop
  endfacet
  facet normal -0.406738 -0.913545 0
    outer loop
      vertex 16.9375 6.65729 -8
      vertex 16.9375 6.65729 -5
      vertex 16.6272 6.79547 -5
    endloop
  endfacet
  facet normal -0.406738 -0.913545 0
    outer loop
      vertex 16.6272 6.79547 -8
      vertex 16.9375 6.65729 -8
      vertex 16.6272 6.79547 -5
    endloop
  endfacet
  facet normal -0.587786 -0.809017 0
    outer loop
      vertex 17.2123 6.45761 -8
      vertex 17.2123 6.45761 -5
      vertex 16.9375 6.65729 -5
    endloop
  endfacet
  facet normal -0.587786 -0.809017 0
    outer loop
      vertex 16.9375 6.65729 -8
      vertex 17.2123 6.45761 -8
      vertex 16.9375 6.65729 -5
    endloop
  endfacet
  facet normal -0.743144 -0.669132 0
    outer loop
      vertex 17.4397 6.20515 -5
      vertex 17.2123 6.45761 -5
      vertex 17.4397 6.20515 -8
    endloop
  endfacet
  facet normal -0.743144 -0.669132 0
    outer loop
      vertex 17.4397 6.20515 -8
      vertex 17.2123 6.45761 -5
      vertex 17.2123 6.45761 -8
    endloop
  endfacet
  facet normal -0.866026 -0.499998 0
    outer loop
      vertex 17.6095 5.91095 -5
      vertex 17.4397 6.20515 -5
      vertex 17.6095 5.91095 -8
    endloop
  endfacet
  facet normal -0.866026 -0.499998 0
    outer loop
      vertex 17.6095 5.91095 -8
      vertex 17.4397 6.20515 -5
      vertex 17.4397 6.20515 -8
    endloop
  endfacet
  facet normal -0.951056 -0.309018 0
    outer loop
      vertex 17.7145 5.58786 -5
      vertex 17.6095 5.91095 -5
      vertex 17.7145 5.58786 -8
    endloop
  endfacet
  facet normal -0.951056 -0.309018 0
    outer loop
      vertex 17.7145 5.58786 -8
      vertex 17.6095 5.91095 -5
      vertex 17.6095 5.91095 -8
    endloop
  endfacet
  facet normal -0.994522 -0.104528 0
    outer loop
      vertex 17.75 5.25 -5
      vertex 17.7145 5.58786 -5
      vertex 17.75 5.25 -8
    endloop
  endfacet
  facet normal -0.994522 -0.104528 0
    outer loop
      vertex 17.75 5.25 -8
      vertex 17.7145 5.58786 -5
      vertex 17.7145 5.58786 -8
    endloop
  endfacet
  facet normal -0.994522 0.104528 0
    outer loop
      vertex 17.75 5.25 -5
      vertex 17.75 5.25 -8
      vertex 17.7145 4.91214 -5
    endloop
  endfacet
  facet normal -0.994522 0.104528 0
    outer loop
      vertex 17.7145 4.91214 -5
      vertex 17.75 5.25 -8
      vertex 17.7145 4.91214 -8
    endloop
  endfacet
  facet normal -0.951056 0.309018 0
    outer loop
      vertex 17.7145 4.91214 -5
      vertex 17.7145 4.91214 -8
      vertex 17.6095 4.58905 -5
    endloop
  endfacet
  facet normal -0.951056 0.309018 0
    outer loop
      vertex 17.6095 4.58905 -5
      vertex 17.7145 4.91214 -8
      vertex 17.6095 4.58905 -8
    endloop
  endfacet
  facet normal -0.866026 0.499998 0
    outer loop
      vertex 17.6095 4.58905 -5
      vertex 17.6095 4.58905 -8
      vertex 17.4397 4.29485 -5
    endloop
  endfacet
  facet normal -0.866026 0.499998 0
    outer loop
      vertex 17.4397 4.29485 -5
      vertex 17.6095 4.58905 -8
      vertex 17.4397 4.29485 -8
    endloop
  endfacet
  facet normal -0.743144 0.669132 0
    outer loop
      vertex 17.4397 4.29485 -5
      vertex 17.4397 4.29485 -8
      vertex 17.2123 4.04239 -5
    endloop
  endfacet
  facet normal -0.743144 0.669132 0
    outer loop
      vertex 17.2123 4.04239 -5
      vertex 17.4397 4.29485 -8
      vertex 17.2123 4.04239 -8
    endloop
  endfacet
  facet normal -0.587786 0.809017 0
    outer loop
      vertex 17.2123 4.04239 -5
      vertex 17.2123 4.04239 -8
      vertex 16.9375 3.84271 -5
    endloop
  endfacet
  facet normal -0.587786 0.809017 0
    outer loop
      vertex 16.9375 3.84271 -5
      vertex 17.2123 4.04239 -8
      vertex 16.9375 3.84271 -8
    endloop
  endfacet
  facet normal -0.406738 0.913545 0
    outer loop
      vertex 16.9375 3.84271 -5
      vertex 16.9375 3.84271 -8
      vertex 16.6272 3.70453 -5
    endloop
  endfacet
  facet normal -0.406738 0.913545 0
    outer loop
      vertex 16.6272 3.70453 -5
      vertex 16.9375 3.84271 -8
      vertex 16.6272 3.70453 -8
    endloop
  endfacet
  facet normal -0.207911 0.978148 0
    outer loop
      vertex 16.6272 3.70453 -5
      vertex 16.6272 3.70453 -8
      vertex 16.2949 3.6339 -5
    endloop
  endfacet
  facet normal -0.207911 0.978148 0
    outer loop
      vertex 16.2949 3.6339 -5
      vertex 16.6272 3.70453 -8
      vertex 16.2949 3.6339 -8
    endloop
  endfacet
  facet normal 0 1 0
    outer loop
      vertex 16.2949 3.6339 -5
      vertex 16.2949 3.6339 -8
      vertex 5.95514 3.6339 -5
    endloop
  endfacet
  facet normal 0 1 0
    outer loop
      vertex 5.95514 3.6339 -5
      vertex 16.2949 3.6339 -8
      vertex 5.95514 3.6339 -8
    endloop
  endfacet
  facet normal 0.207911 0.978148 0
    outer loop
      vertex 5.95514 3.6339 -5
      vertex 5.95514 3.6339 -8
      vertex 5.62285 3.70453 -5
    endloop
  endfacet
  facet normal 0.207911 0.978148 0
    outer loop
      vertex 5.62285 3.70453 -5
      vertex 5.95514 3.6339 -8
      vertex 5.62285 3.70453 -8
    endloop
  endfacet
  facet normal 0.406738 0.913545 0
    outer loop
      vertex 5.62285 3.70453 -5
      vertex 5.62285 3.70453 -8
      vertex 5.3125 3.84271 -5
    endloop
  endfacet
  facet normal 0.406738 0.913545 0
    outer loop
      vertex 5.3125 3.84271 -5
      vertex 5.62285 3.70453 -8
      vertex 5.3125 3.84271 -8
    endloop
  endfacet
  facet normal 0.587786 0.809017 0
    outer loop
      vertex 5.3125 3.84271 -5
      vertex 5.3125 3.84271 -8
      vertex 5.03766 4.04239 -5
    endloop
  endfacet
  facet normal 0.587786 0.809017 0
    outer loop
      vertex 5.03766 4.04239 -5
      vertex 5.3125 3.84271 -8
      vertex 5.03766 4.04239 -8
    endloop
  endfacet
  facet normal 0.743144 0.669132 0
    outer loop
      vertex 4.81035 4.29485 -5
      vertex 5.03766 4.04239 -5
      vertex 5.03766 4.04239 -8
    endloop
  endfacet
  facet normal 0.743144 0.669132 0
    outer loop
      vertex 4.81035 4.29485 -8
      vertex 4.81035 4.29485 -5
      vertex 5.03766 4.04239 -8
    endloop
  endfacet
  facet normal 0.866026 0.499998 0
    outer loop
      vertex 4.64049 4.58905 -5
      vertex 4.81035 4.29485 -5
      vertex 4.81035 4.29485 -8
    endloop
  endfacet
  facet normal 0.866026 0.499998 0
    outer loop
      vertex 4.64049 4.58905 -8
      vertex 4.64049 4.58905 -5
      vertex 4.81035 4.29485 -8
    endloop
  endfacet
  facet normal 0.951056 0.309018 0
    outer loop
      vertex 4.53551 4.91214 -5
      vertex 4.64049 4.58905 -5
      vertex 4.64049 4.58905 -8
    endloop
  endfacet
  facet normal 0.951056 0.309018 0
    outer loop
      vertex 4.53551 4.91214 -8
      vertex 4.53551 4.91214 -5
      vertex 4.64049 4.58905 -8
    endloop
  endfacet
  facet normal 0 0 1
    outer loop
      vertex 5.95514 -6.8661 -5
      vertex 1.5 -9.875 -5
      vertex 20.75 -9.875 -5
    endloop
  endfacet
  facet normal 0 0 1
    outer loop
      vertex 5.03766 6.45761 -5
      vertex 5.3125 6.65729 -5
      vertex 1.5 9.875 -5
    endloop
  endfacet
  facet normal 0 0 1
    outer loop
      vertex 1.5 9.875 -5
      vertex 1.5 -9.875 -5
      vertex 4.53551 -5.58786 -5
    endloop
  endfacet
  facet normal 0 0 1
    outer loop
      vertex 5.95514 6.8661 -5
      vertex 16.2949 6.8661 -5
      vertex 20.75 9.875 -5
    endloop
  endfacet
  facet normal 0 0 1
    outer loop
      vertex 1.5 9.875 -5
      vertex 4.53551 -5.58786 -5
      vertex 4.5 -5.25 -5
    endloop
  endfacet
  facet normal 0 0 1
    outer loop
      vertex 1.5 9.875 -5
      vertex 4.5 -5.25 -5
      vertex 4.53551 -4.91214 -5
    endloop
  endfacet
  facet normal 0 0 1
    outer loop
      vertex 1.5 9.875 -5
      vertex 4.53551 -4.91214 -5
      vertex 4.64049 -4.58905 -5
    endloop
  endfacet
  facet normal 0 0 1
    outer loop
      vertex 1.5 9.875 -5
      vertex 4.64049 -4.58905 -5
      vertex 4.81035 -4.29485 -5
    endloop
  endfacet
  facet normal 0 0 1
    outer loop
      vertex 1.5 9.875 -5
      vertex 4.81035 -4.29485 -5
      vertex 5.03766 -4.04239 -5
    endloop
  endfacet
  facet normal 0 0 1
    outer loop
      vertex 1.5 9.875 -5
      vertex 5.03766 -4.04239 -5
      vertex 5.3125 -3.84271 -5
    endloop
  endfacet
  facet normal 0 0 1
    outer loop
      vertex 1.5 9.875 -5
      vertex 5.3125 -3.84271 -5
      vertex 5.62285 -3.70453 -5
    endloop
  endfacet
  facet normal 0 0 1
    outer loop
      vertex 1.5 9.875 -5
      vertex 5.62285 -3.70453 -5
      vertex 5.95514 -3.6339 -5
    endloop
  endfacet
  facet normal 0 0 1
    outer loop
      vertex 17.7145 -5.58786 -5
      vertex 17.6095 -5.91095 -5
      vertex 20.75 -9.875 -5
    endloop
  endfacet
  facet normal 0 0 1
    outer loop
      vertex 20.75 9.875 -5
      vertex 16.2949 -3.6339 -5
      vertex 16.6272 -3.70453 -5
    endloop
  endfacet
  facet normal 0 0 1
    outer loop
      vertex 17.75 -5.25 -5
      vertex 17.7145 -5.58786 -5
      vertex 20.75 -9.875 -5
    endloop
  endfacet
  facet normal 0 0 1
    outer loop
      vertex 20.75 9.875 -5
      vertex 16.6272 -3.70453 -5
      vertex 16.9375 -3.84271 -5
    endloop
  endfacet
  facet normal 0 0 1
    outer loop
      vertex 17.7145 -4.91214 -5
      vertex 17.75 -5.25 -5
      vertex 20.75 -9.875 -5
    endloop
  endfacet
  facet normal 0 0 1
    outer loop
      vertex 20.75 9.875 -5
      vertex 16.9375 -3.84271 -5
      vertex 17.2123 -4.04239 -5
    endloop
  endfacet
  facet normal 0 0 1
    outer loop
      vertex 20.75 9.875 -5
      vertex 17.4397 -4.29485 -5
      vertex 20.75 -9.875 -5
    endloop
  endfacet
  facet normal 0 0 1
    outer loop
      vertex 20.75 9.875 -5
      vertex 17.2123 -4.04239 -5
      vertex 17.4397 -4.29485 -5
    endloop
  endfacet
  facet normal 0 0 1
    outer loop
      vertex 17.4397 -4.29485 -5
      vertex 17.6095 -4.58905 -5
      vertex 20.75 -9.875 -5
    endloop
  endfacet
  facet normal 0 0 1
    outer loop
      vertex 17.6095 -4.58905 -5
      vertex 17.7145 -4.91214 -5
      vertex 20.75 -9.875 -5
    endloop
  endfacet
  facet normal 0 0 1
    outer loop
      vertex 17.6095 -5.91095 -5
      vertex 17.4397 -6.20515 -5
      vertex 20.75 -9.875 -5
    endloop
  endfacet
  facet normal 0 0 1
    outer loop
      vertex 17.2123 -6.45761 -5
      vertex 16.9375 -6.65729 -5
      vertex 20.75 -9.875 -5
    endloop
  endfacet
  facet normal 0 0 1
    outer loop
      vertex 16.9375 -6.65729 -5
      vertex 16.6272 -6.79547 -5
      vertex 20.75 -9.875 -5
    endloop
  endfacet
  facet normal 0 0 1
    outer loop
      vertex 16.6272 -6.79547 -5
      vertex 16.2949 -6.8661 -5
      vertex 20.75 -9.875 -5
    endloop
  endfacet
  facet normal 0 0 1
    outer loop
      vertex 5.62285 -6.79547 -5
      vertex 1.5 -9.875 -5
      vertex 5.95514 -6.8661 -5
    endloop
  endfacet
  facet normal 0 0 1
    outer loop
      vertex 5.3125 -6.65729 -5
      vertex 1.5 -9.875 -5
      vertex 5.62285 -6.79547 -5
    endloop
  endfacet
  facet normal 0 0 1
    outer loop
      vertex 5.03766 -6.45761 -5
      vertex 1.5 -9.875 -5
      vertex 5.3125 -6.65729 -5
    endloop
  endfacet
  facet normal 0 0 1
    outer loop
      vertex 4.81035 -6.20515 -5
      vertex 1.5 -9.875 -5
      vertex 5.03766 -6.45761 -5
    endloop
  endfacet
  facet normal 0 0 1
    outer loop
      vertex 4.64049 -5.91095 -5
      vertex 1.5 -9.875 -5
      vertex 4.81035 -6.20515 -5
    endloop
  endfacet
  facet normal 0 0 1
    outer loop
      vertex 4.53551 -5.58786 -5
      vertex 1.5 -9.875 -5
      vertex 4.64049 -5.91095 -5
    endloop
  endfacet
  facet normal 0 0 1
    outer loop
      vertex 16.2949 -6.8661 -5
      vertex 5.95514 -6.8661 -5
      vertex 20.75 -9.875 -5
    endloop
  endfacet
  facet normal 0 0 1
    outer loop
      vertex 1.5 9.875 -5
      vertex 5.95514 -3.6339 -5
      vertex 4.53551 4.91214 -5
    endloop
  endfacet
  facet normal 0 0 1
    outer loop
      vertex 1.5 9.875 -5
      vertex 4.53551 4.91214 -5
      vertex 4.5 5.25 -5
    endloop
  endfacet
  facet normal 0 0 1
    outer loop
      vertex 1.5 9.875 -5
      vertex 4.5 5.25 -5
      vertex 4.53551 5.58786 -5
    endloop
  endfacet
  facet normal 0 0 1
    outer loop
      vertex 1.5 9.875 -5
      vertex 4.53551 5.58786 -5
      vertex 4.64049 5.91095 -5
    endloop
  endfacet
  facet normal 0 0 1
    outer loop
      vertex 1.5 9.875 -5
      vertex 4.64049 5.91095 -5
      vertex 4.81035 6.20515 -5
    endloop
  endfacet
  facet normal 0 0 1
    outer loop
      vertex 5.62285 6.79547 -5
      vertex 1.5 9.875 -5
      vertex 5.3125 6.65729 -5
    endloop
  endfacet
  facet normal 0 0 1
    outer loop
      vertex 17.7145 4.91214 -5
      vertex 17.6095 4.58905 -5
      vertex 16.2949 -3.6339 -5
    endloop
  endfacet
  facet normal 0 0 1
    outer loop
      vertex 5.95514 6.8661 -5
      vertex 1.5 9.875 -5
      vertex 5.62285 6.79547 -5
    endloop
  endfacet
  facet normal 0 0 1
    outer loop
      vertex 17.2123 4.04239 -5
      vertex 16.9375 3.84271 -5
      vertex 16.2949 -3.6339 -5
    endloop
  endfacet
  facet normal 0 0 1
    outer loop
      vertex 20.75 9.875 -5
      vertex 1.5 9.875 -5
      vertex 5.95514 6.8661 -5
    endloop
  endfacet
  facet normal 0 0 1
    outer loop
      vertex 20.75 9.875 -5
      vertex 16.2949 6.8661 -5
      vertex 16.6272 6.79547 -5
    endloop
  endfacet
  facet normal 0 0 1
    outer loop
      vertex 16.6272 3.70453 -5
      vertex 16.2949 3.6339 -5
      vertex 16.2949 -3.6339 -5
    endloop
  endfacet
  facet normal 0 0 1
    outer loop
      vertex 20.75 9.875 -5
      vertex 16.6272 6.79547 -5
      vertex 16.9375 6.65729 -5
    endloop
  endfacet
  facet normal 0 0 1
    outer loop
      vertex 16.9375 3.84271 -5
      vertex 16.6272 3.70453 -5
      vertex 16.2949 -3.6339 -5
    endloop
  endfacet
  facet normal 0 0 1
    outer loop
      vertex 20.75 9.875 -5
      vertex 16.9375 6.65729 -5
      vertex 17.2123 6.45761 -5
    endloop
  endfacet
  facet normal 0 0 1
    outer loop
      vertex 16.2949 3.6339 -5
      vertex 5.95514 3.6339 -5
      vertex 16.2949 -3.6339 -5
    endloop
  endfacet
  facet normal 0 0 1
    outer loop
      vertex 20.75 9.875 -5
      vertex 17.2123 6.45761 -5
      vertex 17.4397 6.20515 -5
    endloop
  endfacet
  facet normal 0 0 1
    outer loop
      vertex 20.75 9.875 -5
      vertex 17.4397 6.20515 -5
      vertex 17.6095 5.91095 -5
    endloop
  endfacet
  facet normal 0 0 1
    outer loop
      vertex 17.4397 4.29485 -5
      vertex 17.2123 4.04239 -5
      vertex 16.2949 -3.6339 -5
    endloop
  endfacet
  facet normal 0 0 1
    outer loop
      vertex 20.75 9.875 -5
      vertex 17.6095 5.91095 -5
      vertex 17.7145 5.58786 -5
    endloop
  endfacet
  facet normal 0 0 1
    outer loop
      vertex 17.6095 4.58905 -5
      vertex 17.4397 4.29485 -5
      vertex 16.2949 -3.6339 -5
    endloop
  endfacet
  facet normal 0 0 1
    outer loop
      vertex 20.75 9.875 -5
      vertex 17.7145 5.58786 -5
      vertex 17.75 5.25 -5
    endloop
  endfacet
  facet normal 0 0 1
    outer loop
      vertex 20.75 9.875 -5
      vertex 17.7145 4.91214 -5
      vertex 16.2949 -3.6339 -5
    endloop
  endfacet
  facet normal 0 0 1
    outer loop
      vertex 20.75 9.875 -5
      vertex 17.75 5.25 -5
      vertex 17.7145 4.91214 -5
    endloop
  endfacet
  facet normal 0 0 1
    outer loop
      vertex 5.62285 3.70453 -5
      vertex 5.95514 -3.6339 -5
      vertex 5.95514 3.6339 -5
    endloop
  endfacet
  facet normal 0 0 1
    outer loop
      vertex 5.3125 3.84271 -5
      vertex 5.95514 -3.6339 -5
      vertex 5.62285 3.70453 -5
    endloop
  endfacet
  facet normal 0 0 1
    outer loop
      vertex 5.03766 4.04239 -5
      vertex 5.95514 -3.6339 -5
      vertex 5.3125 3.84271 -5
    endloop
  endfacet
  facet normal 0 0 1
    outer loop
      vertex 4.81035 4.29485 -5
      vertex 5.95514 -3.6339 -5
      vertex 5.03766 4.04239 -5
    endloop
  endfacet
  facet normal 0 0 1
    outer loop
      vertex 4.64049 4.58905 -5
      vertex 5.95514 -3.6339 -5
      vertex 4.81035 4.29485 -5
    endloop
  endfacet
  facet normal 0 0 1
    outer loop
      vertex 4.53551 4.91214 -5
      vertex 5.95514 -3.6339 -5
      vertex 4.64049 4.58905 -5
    endloop
  endfacet
  facet normal 0 0 1
    outer loop
      vertex 17.4397 -6.20515 -5
      vertex 17.2123 -6.45761 -5
      vertex 20.75 -9.875 -5
    endloop
  endfacet
  facet normal 0 0 1
    outer loop
      vertex 4.81035 6.20515 -5
      vertex 5.03766 6.45761 -5
      vertex 1.5 9.875 -5
    endloop
  endfacet
  facet normal 0 0 1
    outer loop
      vertex 5.95514 -3.6339 -5
      vertex 16.2949 -3.6339 -5
      vertex 5.95514 3.6339 -5
    endloop
  endfacet
endsolid OpenSCAD_Model
