solid OpenSCAD_Model
  facet normal -1 0 0
    outer loop
      vertex -27.5 -4.9 1.6
      vertex -27.5 23 -4
      vertex -27.5 -16.32 1.6
    endloop
  endfacet
  facet normal -1 0 0
    outer loop
      vertex -27.5 -19.8534 3.64
      vertex -27.5 -23 4
      vertex -27.5 -20.0137 4
    endloop
  endfacet
  facet normal -1 0 0
    outer loop
      vertex -27.5 -23 -4
      vertex -27.5 -23 4
      vertex -27.5 -19.352 2.94995
    endloop
  endfacet
  facet normal -1 0 0
    outer loop
      vertex -27.5 -23 -4
      vertex -27.5 -19.352 2.94995
      vertex -27.5 -18.7182 2.37921
    endloop
  endfacet
  facet normal -1 0 0
    outer loop
      vertex -27.5 -23 -4
      vertex -27.5 -18.7182 2.37921
      vertex -27.5 -17.9795 1.95274
    endloop
  endfacet
  facet normal -1 0 0
    outer loop
      vertex -27.5 -23 -4
      vertex -27.5 -17.9795 1.95274
      vertex -27.5 -17.1683 1.68916
    endloop
  endfacet
  facet normal -1 0 0
    outer loop
      vertex -27.5 -23 -4
      vertex -27.5 -17.1683 1.68916
      vertex -27.5 23 -4
    endloop
  endfacet
  facet normal -1 0 0
    outer loop
      vertex -27.5 -17.1683 1.68916
      vertex -27.5 -16.32 1.6
      vertex -27.5 23 -4
    endloop
  endfacet
  facet normal -1 0 0
    outer loop
      vertex -27.5 16.32 1.6
      vertex -27.5 23 -4
      vertex -27.5 4.9 1.6
    endloop
  endfacet
  facet normal -1 0 0
    outer loop
      vertex -27.5 23 -4
      vertex -27.5 -4.9 1.6
      vertex -27.5 -3.75 2.75
    endloop
  endfacet
  facet normal -1 0 0
    outer loop
      vertex -27.5 -3.75 2.75
      vertex -27.5 -3.75 4
      vertex -27.5 23 -4
    endloop
  endfacet
  facet normal -1 0 0
    outer loop
      vertex -27.5 3.75 2.75
      vertex -27.5 -3.75 4
      vertex -27.5 3.75 4
    endloop
  endfacet
  facet normal -1 0 0
    outer loop
      vertex -27.5 4.9 1.6
      vertex -27.5 -3.75 4
      vertex -27.5 3.75 2.75
    endloop
  endfacet
  facet normal -1 0 0
    outer loop
      vertex -27.5 23 -4
      vertex -27.5 -3.75 4
      vertex -27.5 4.9 1.6
    endloop
  endfacet
  facet normal -1 0 0
    outer loop
      vertex -27.5 23 -4
      vertex -27.5 16.32 1.6
      vertex -27.5 17.1683 1.68916
    endloop
  endfacet
  facet normal -1 0 0
    outer loop
      vertex -27.5 17.1683 1.68916
      vertex -27.5 17.9795 1.95274
      vertex -27.5 23 -4
    endloop
  endfacet
  facet normal -1 0 0
    outer loop
      vertex -27.5 17.9795 1.95274
      vertex -27.5 18.7182 2.37921
      vertex -27.5 23 -4
    endloop
  endfacet
  facet normal -1 0 0
    outer loop
      vertex -27.5 18.7182 2.37921
      vertex -27.5 19.352 2.94995
      vertex -27.5 23 -4
    endloop
  endfacet
  facet normal -1 0 0
    outer loop
      vertex -27.5 19.352 2.94995
      vertex -27.5 19.8534 3.64
      vertex -27.5 23 -4
    endloop
  endfacet
  facet normal -1 0 0
    outer loop
      vertex -27.5 19.8534 3.64
      vertex -27.5 20.0137 4
      vertex -27.5 23 -4
    endloop
  endfacet
  facet normal -1 0 0
    outer loop
      vertex -27.5 23 -4
      vertex -27.5 20.0137 4
      vertex -27.5 23 4
    endloop
  endfacet
  facet normal -1 0 0
    outer loop
      vertex -27.5 -19.352 2.94995
      vertex -27.5 -23 4
      vertex -27.5 -19.8534 3.64
    endloop
  endfacet
  facet normal 0 -1 0
    outer loop
      vertex -27.5 -23 4
      vertex -27.5 -23 -4
      vertex -17.5 -23 -4
    endloop
  endfacet
  facet normal 0 -1 0
    outer loop
      vertex -17.5 -23 4
      vertex -27.5 -23 4
      vertex -17.5 -23 -4
    endloop
  endfacet
  facet normal 0 0 -1
    outer loop
      vertex -17.5 15 -4
      vertex -27.5 23 -4
      vertex -17.5 23 -4
    endloop
  endfacet
  facet normal 0 0 -1
    outer loop
      vertex -23.75 -2.16506 -4
      vertex -17.5 -23 -4
      vertex -24.6651 -1.25 -4
    endloop
  endfacet
  facet normal 0 0 -1
    outer loop
      vertex 17.5 15 -4
      vertex 17.5 23 -4
      vertex 27.5 23 -4
    endloop
  endfacet
  facet normal 0 0 -1
    outer loop
      vertex 25 0 -4
      vertex 27.5 23 -4
      vertex 27.5 -23 -4
    endloop
  endfacet
  facet normal 0 0 -1
    outer loop
      vertex 21.25 2.16506 -4
      vertex 27.5 23 -4
      vertex 22.5 2.5 -4
    endloop
  endfacet
  facet normal 0 0 -1
    outer loop
      vertex -20.3349 1.25 -4
      vertex -17.5 15 -4
      vertex -20 0 -4
    endloop
  endfacet
  facet normal 0 0 -1
    outer loop
      vertex -27.5 -23 -4
      vertex -27.5 23 -4
      vertex -25 0 -4
    endloop
  endfacet
  facet normal 0 0 -1
    outer loop
      vertex -27.5 -23 -4
      vertex -25 0 -4
      vertex -24.6651 -1.25 -4
    endloop
  endfacet
  facet normal 0 0 -1
    outer loop
      vertex -27.5 -23 -4
      vertex -24.6651 -1.25 -4
      vertex -17.5 -23 -4
    endloop
  endfacet
  facet normal 0 0 -1
    outer loop
      vertex -16.5 -10.5981 -4
      vertex -17.5 -15 -4
      vertex -17.5981 -9.5 -4
    endloop
  endfacet
  facet normal 0 0 -1
    outer loop
      vertex -21.25 -2.16506 -4
      vertex -17.5 -23 -4
      vertex -22.5 -2.5 -4
    endloop
  endfacet
  facet normal 0 0 -1
    outer loop
      vertex -24.6651 1.25 -4
      vertex -27.5 23 -4
      vertex -23.75 2.16506 -4
    endloop
  endfacet
  facet normal 0 0 -1
    outer loop
      vertex -23.75 -2.16506 -4
      vertex -22.5 -2.5 -4
      vertex -17.5 -23 -4
    endloop
  endfacet
  facet normal 0 0 -1
    outer loop
      vertex -23.75 2.16506 -4
      vertex -27.5 23 -4
      vertex -22.5 2.5 -4
    endloop
  endfacet
  facet normal 0 0 -1
    outer loop
      vertex -17.5 -23 -4
      vertex -21.25 -2.16506 -4
      vertex -17.5 -15 -4
    endloop
  endfacet
  facet normal 0 0 -1
    outer loop
      vertex -20 0 -4
      vertex -17.5 -15 -4
      vertex -20.3349 -1.25 -4
    endloop
  endfacet
  facet normal 0 0 -1
    outer loop
      vertex -18 -8 -4
      vertex -17.5 -15 -4
      vertex -20 0 -4
    endloop
  endfacet
  facet normal 0 0 -1
    outer loop
      vertex -22.5 2.5 -4
      vertex -27.5 23 -4
      vertex -21.25 2.16506 -4
    endloop
  endfacet
  facet normal 0 0 -1
    outer loop
      vertex -17.5 15 -4
      vertex -20.3349 1.25 -4
      vertex -27.5 23 -4
    endloop
  endfacet
  facet normal 0 0 -1
    outer loop
      vertex -20.3349 1.25 -4
      vertex -21.25 2.16506 -4
      vertex -27.5 23 -4
    endloop
  endfacet
  facet normal 0 0 -1
    outer loop
      vertex -20.3349 -1.25 -4
      vertex -17.5 -15 -4
      vertex -21.25 -2.16506 -4
    endloop
  endfacet
  facet normal 0 0 -1
    outer loop
      vertex -16.5 5.40192 -4
      vertex -17.5981 -6.5 -4
      vertex -17.5981 6.5 -4
    endloop
  endfacet
  facet normal 0 0 -1
    outer loop
      vertex -25 0 -4
      vertex -27.5 23 -4
      vertex -24.6651 1.25 -4
    endloop
  endfacet
  facet normal 0 0 -1
    outer loop
      vertex -17.5981 -9.5 -4
      vertex -17.5 -15 -4
      vertex -18 -8 -4
    endloop
  endfacet
  facet normal 0 0 -1
    outer loop
      vertex -18 8 -4
      vertex -18 -8 -4
      vertex -20 0 -4
    endloop
  endfacet
  facet normal 0 0 -1
    outer loop
      vertex 15 -11 -4
      vertex -17.5 -15 -4
      vertex -15 -11 -4
    endloop
  endfacet
  facet normal 0 0 -1
    outer loop
      vertex -16.5 -10.5981 -4
      vertex -15 -11 -4
      vertex -17.5 -15 -4
    endloop
  endfacet
  facet normal 0 0 -1
    outer loop
      vertex 15 -11 -4
      vertex 16.5 -10.5981 -4
      vertex 17.5 -15 -4
    endloop
  endfacet
  facet normal 0 0 -1
    outer loop
      vertex 16.5 -10.5981 -4
      vertex 17.5981 -9.5 -4
      vertex 17.5 -15 -4
    endloop
  endfacet
  facet normal 0 0 -1
    outer loop
      vertex 15 -5 -4
      vertex 27.5 23 -4
      vertex 16.5 -5.40192 -4
    endloop
  endfacet
  facet normal 0 0 -1
    outer loop
      vertex 17.5981 6.5 -4
      vertex 27.5 23 -4
      vertex 15 -5 -4
    endloop
  endfacet
  facet normal 0 0 -1
    outer loop
      vertex -16.5 5.40192 -4
      vertex -15 -5 -4
      vertex -16.5 -5.40192 -4
    endloop
  endfacet
  facet normal 0 0 -1
    outer loop
      vertex 20.3349 -1.25 -4
      vertex 18 -8 -4
      vertex 20 0 -4
    endloop
  endfacet
  facet normal 0 0 -1
    outer loop
      vertex -18 8 -4
      vertex -17.5 15 -4
      vertex -17.5981 9.5 -4
    endloop
  endfacet
  facet normal 0 0 -1
    outer loop
      vertex -17.5981 6.5 -4
      vertex -17.5981 -6.5 -4
      vertex -18 -8 -4
    endloop
  endfacet
  facet normal 0 0 -1
    outer loop
      vertex -17.5981 6.5 -4
      vertex -18 -8 -4
      vertex -18 8 -4
    endloop
  endfacet
  facet normal 0 0 -1
    outer loop
      vertex -17.5 15 -4
      vertex -18 8 -4
      vertex -20 0 -4
    endloop
  endfacet
  facet normal 0 0 -1
    outer loop
      vertex -16.5 5.40192 -4
      vertex -16.5 -5.40192 -4
      vertex -17.5981 -6.5 -4
    endloop
  endfacet
  facet normal 0 0 -1
    outer loop
      vertex -15 5 -4
      vertex -15 -5 -4
      vertex -16.5 5.40192 -4
    endloop
  endfacet
  facet normal 0 0 -1
    outer loop
      vertex -16.5 10.5981 -4
      vertex -17.5 15 -4
      vertex -15 11 -4
    endloop
  endfacet
  facet normal 0 0 -1
    outer loop
      vertex 15 5 -4
      vertex -15 -5 -4
      vertex -15 5 -4
    endloop
  endfacet
  facet normal 0 0 -1
    outer loop
      vertex -15 11 -4
      vertex 17.5 15 -4
      vertex 15 11 -4
    endloop
  endfacet
  facet normal 0 0 -1
    outer loop
      vertex 17.5981 9.5 -4
      vertex 27.5 23 -4
      vertex 18 8 -4
    endloop
  endfacet
  facet normal 0 0 -1
    outer loop
      vertex 15 5 -4
      vertex 16.5 5.40192 -4
      vertex 15 -5 -4
    endloop
  endfacet
  facet normal 0 0 -1
    outer loop
      vertex 16.5 5.40192 -4
      vertex 17.5981 6.5 -4
      vertex 15 -5 -4
    endloop
  endfacet
  facet normal 0 0 -1
    outer loop
      vertex 16.5 10.5981 -4
      vertex 27.5 23 -4
      vertex 17.5981 9.5 -4
    endloop
  endfacet
  facet normal 0 0 -1
    outer loop
      vertex 17.5 15 -4
      vertex 27.5 23 -4
      vertex 15 11 -4
    endloop
  endfacet
  facet normal 0 0 -1
    outer loop
      vertex -17.5 15 -4
      vertex 17.5 15 -4
      vertex -15 11 -4
    endloop
  endfacet
  facet normal 0 0 -1
    outer loop
      vertex -17.5981 9.5 -4
      vertex -17.5 15 -4
      vertex -16.5 10.5981 -4
    endloop
  endfacet
  facet normal 0 0 -1
    outer loop
      vertex 20.3349 -1.25 -4
      vertex 17.5981 -9.5 -4
      vertex 18 -8 -4
    endloop
  endfacet
  facet normal 0 0 -1
    outer loop
      vertex 18 8 -4
      vertex 27.5 23 -4
      vertex 17.5981 6.5 -4
    endloop
  endfacet
  facet normal 0 0 -1
    outer loop
      vertex 20.3349 1.25 -4
      vertex 27.5 23 -4
      vertex 21.25 2.16506 -4
    endloop
  endfacet
  facet normal 0 0 -1
    outer loop
      vertex 17.5981 -9.5 -4
      vertex 20.3349 -1.25 -4
      vertex 17.5 -15 -4
    endloop
  endfacet
  facet normal 0 0 -1
    outer loop
      vertex 22.5 -2.5 -4
      vertex 17.5 -23 -4
      vertex 21.25 -2.16506 -4
    endloop
  endfacet
  facet normal 0 0 -1
    outer loop
      vertex 17.5 -15 -4
      vertex 21.25 -2.16506 -4
      vertex 17.5 -23 -4
    endloop
  endfacet
  facet normal 0 0 -1
    outer loop
      vertex 24.6651 1.25 -4
      vertex 27.5 23 -4
      vertex 25 0 -4
    endloop
  endfacet
  facet normal 0 0 -1
    outer loop
      vertex 17.5 -23 -4
      vertex 22.5 -2.5 -4
      vertex 27.5 -23 -4
    endloop
  endfacet
  facet normal 0 0 -1
    outer loop
      vertex 22.5 2.5 -4
      vertex 27.5 23 -4
      vertex 23.75 2.16506 -4
    endloop
  endfacet
  facet normal 0 0 -1
    outer loop
      vertex 22.5 -2.5 -4
      vertex 23.75 -2.16506 -4
      vertex 27.5 -23 -4
    endloop
  endfacet
  facet normal 0 0 -1
    outer loop
      vertex 23.75 2.16506 -4
      vertex 27.5 23 -4
      vertex 24.6651 1.25 -4
    endloop
  endfacet
  facet normal 0 0 -1
    outer loop
      vertex 23.75 -2.16506 -4
      vertex 24.6651 -1.25 -4
      vertex 27.5 -23 -4
    endloop
  endfacet
  facet normal 0 0 -1
    outer loop
      vertex 24.6651 -1.25 -4
      vertex 25 0 -4
      vertex 27.5 -23 -4
    endloop
  endfacet
  facet normal 0 0 -1
    outer loop
      vertex 21.25 -2.16506 -4
      vertex 17.5 -15 -4
      vertex 20.3349 -1.25 -4
    endloop
  endfacet
  facet normal 0 0 -1
    outer loop
      vertex 17.5981 -6.5 -4
      vertex 27.5 23 -4
      vertex 20.3349 1.25 -4
    endloop
  endfacet
  facet normal 0 0 -1
    outer loop
      vertex 16.5 -5.40192 -4
      vertex 27.5 23 -4
      vertex 17.5981 -6.5 -4
    endloop
  endfacet
  facet normal 0 0 -1
    outer loop
      vertex 15 11 -4
      vertex 27.5 23 -4
      vertex 16.5 10.5981 -4
    endloop
  endfacet
  facet normal 0 0 -1
    outer loop
      vertex -15 -5 -4
      vertex 15 5 -4
      vertex 15 -5 -4
    endloop
  endfacet
  facet normal 0 0 -1
    outer loop
      vertex 17.5981 -6.5 -4
      vertex 20 0 -4
      vertex 18 -8 -4
    endloop
  endfacet
  facet normal 0 0 -1
    outer loop
      vertex 17.5981 -6.5 -4
      vertex 20.3349 1.25 -4
      vertex 20 0 -4
    endloop
  endfacet
  facet normal 0 0 -1
    outer loop
      vertex -17.5 -15 -4
      vertex 15 -11 -4
      vertex 17.5 -15 -4
    endloop
  endfacet
  facet normal 0 1 0
    outer loop
      vertex -27.5 23 -4
      vertex -27.5 23 4
      vertex -17.5 23 -4
    endloop
  endfacet
  facet normal 0 1 0
    outer loop
      vertex -17.5 23 -4
      vertex -27.5 23 4
      vertex -17.5 23 4
    endloop
  endfacet
  facet normal 0 0 1
    outer loop
      vertex -27.5 23 4
      vertex -27.5 20.0137 4
      vertex -17.5 20.0137 4
    endloop
  endfacet
  facet normal 0 0 1
    outer loop
      vertex -17.5 23 4
      vertex -27.5 23 4
      vertex -17.5 20.0137 4
    endloop
  endfacet
  facet normal -9.03137e-17 -0.913545 0.406737
    outer loop
      vertex -17.5 19.8534 3.64
      vertex -17.5 20.0137 4
      vertex -27.5 20.0137 4
    endloop
  endfacet
  facet normal -9.03137e-17 -0.913545 0.406737
    outer loop
      vertex -27.5 19.8534 3.64
      vertex -17.5 19.8534 3.64
      vertex -27.5 20.0137 4
    endloop
  endfacet
  facet normal -1.30515e-16 -0.809017 0.587785
    outer loop
      vertex -17.5 19.352 2.94995
      vertex -17.5 19.8534 3.64
      vertex -27.5 19.8534 3.64
    endloop
  endfacet
  facet normal -1.30515e-16 -0.809017 0.587785
    outer loop
      vertex -27.5 19.352 2.94995
      vertex -17.5 19.352 2.94995
      vertex -27.5 19.8534 3.64
    endloop
  endfacet
  facet normal -1.65011e-16 -0.66913 0.743145
    outer loop
      vertex -17.5 18.7182 2.37921
      vertex -17.5 19.352 2.94995
      vertex -27.5 19.352 2.94995
    endloop
  endfacet
  facet normal -1.65011e-16 -0.66913 0.743145
    outer loop
      vertex -27.5 18.7182 2.37921
      vertex -17.5 18.7182 2.37921
      vertex -27.5 19.352 2.94995
    endloop
  endfacet
  facet normal -1.92296e-16 -0.5 0.866025
    outer loop
      vertex -17.5 17.9795 1.95274
      vertex -17.5 18.7182 2.37921
      vertex -27.5 18.7182 2.37921
    endloop
  endfacet
  facet normal -1.92296e-16 -0.5 0.866025
    outer loop
      vertex -27.5 17.9795 1.95274
      vertex -17.5 17.9795 1.95274
      vertex -27.5 18.7182 2.37921
    endloop
  endfacet
  facet normal -2.11177e-16 -0.309017 0.951056
    outer loop
      vertex -17.5 17.1683 1.68916
      vertex -17.5 17.9795 1.95274
      vertex -27.5 17.9795 1.95274
    endloop
  endfacet
  facet normal -2.11177e-16 -0.309017 0.951056
    outer loop
      vertex -27.5 17.1683 1.68916
      vertex -17.5 17.1683 1.68916
      vertex -27.5 17.9795 1.95274
    endloop
  endfacet
  facet normal -2.20828e-16 -0.104529 0.994522
    outer loop
      vertex -17.5 16.32 1.6
      vertex -17.5 17.1683 1.68916
      vertex -27.5 17.1683 1.68916
    endloop
  endfacet
  facet normal -2.20828e-16 -0.104529 0.994522
    outer loop
      vertex -27.5 16.32 1.6
      vertex -17.5 16.32 1.6
      vertex -27.5 17.1683 1.68916
    endloop
  endfacet
  facet normal -2.22045e-16 0 1
    outer loop
      vertex 27.5 4.9 1.6
      vertex 27.5 16.32 1.6
      vertex 17.5 16.32 1.6
    endloop
  endfacet
  facet normal -2.22045e-16 0 1
    outer loop
      vertex 16.5 10.5981 1.6
      vertex 27.5 4.9 1.6
      vertex 17.5 15 1.6
    endloop
  endfacet
  facet normal -2.22045e-16 0 1
    outer loop
      vertex 17.5 15 1.6
      vertex 27.5 4.9 1.6
      vertex 17.5 16.32 1.6
    endloop
  endfacet
  facet normal -2.22045e-16 0 1
    outer loop
      vertex -27.5 16.32 1.6
      vertex -17.5 15 1.6
      vertex -17.5 16.32 1.6
    endloop
  endfacet
  facet normal -2.22045e-16 0 1
    outer loop
      vertex 17.5981 6.5 1.6
      vertex 16.5 5.40192 1.6
      vertex 27.5 4.9 1.6
    endloop
  endfacet
  facet normal -2.22045e-16 0 1
    outer loop
      vertex -27.5 4.9 1.6
      vertex -18 8 1.6
      vertex -27.5 16.32 1.6
    endloop
  endfacet
  facet normal -2.22045e-16 0 1
    outer loop
      vertex -18 8 1.6
      vertex -17.5981 9.5 1.6
      vertex -27.5 16.32 1.6
    endloop
  endfacet
  facet normal -2.22045e-16 0 1
    outer loop
      vertex -15 5 1.6
      vertex -16.5 5.40192 1.6
      vertex -27.5 4.9 1.6
    endloop
  endfacet
  facet normal -2.22045e-16 0 1
    outer loop
      vertex -17.5981 9.5 1.6
      vertex -16.5 10.5981 1.6
      vertex -27.5 16.32 1.6
    endloop
  endfacet
  facet normal -2.22045e-16 0 1
    outer loop
      vertex -16.5 10.5981 1.6
      vertex -15 11 1.6
      vertex -27.5 16.32 1.6
    endloop
  endfacet
  facet normal -2.22045e-16 0 1
    outer loop
      vertex -17.5 15 1.6
      vertex 15 11 1.6
      vertex 17.5 15 1.6
    endloop
  endfacet
  facet normal -2.22045e-16 0 1
    outer loop
      vertex 15 11 1.6
      vertex 16.5 10.5981 1.6
      vertex 17.5 15 1.6
    endloop
  endfacet
  facet normal -2.22045e-16 0 1
    outer loop
      vertex 18 8 1.6
      vertex 27.5 4.9 1.6
      vertex 17.5981 9.5 1.6
    endloop
  endfacet
  facet normal -2.22045e-16 0 1
    outer loop
      vertex 16.5 10.5981 1.6
      vertex 17.5981 9.5 1.6
      vertex 27.5 4.9 1.6
    endloop
  endfacet
  facet normal -2.22045e-16 0 1
    outer loop
      vertex 15 5 1.6
      vertex 27.5 4.9 1.6
      vertex 16.5 5.40192 1.6
    endloop
  endfacet
  facet normal -2.22045e-16 0 1
    outer loop
      vertex -27.5 4.9 1.6
      vertex 27.5 4.9 1.6
      vertex 15 5 1.6
    endloop
  endfacet
  facet normal -2.22045e-16 0 1
    outer loop
      vertex -27.5 4.9 1.6
      vertex 15 5 1.6
      vertex -15 5 1.6
    endloop
  endfacet
  facet normal -2.22045e-16 0 1
    outer loop
      vertex -27.5 4.9 1.6
      vertex -17.5981 6.5 1.6
      vertex -18 8 1.6
    endloop
  endfacet
  facet normal -2.22045e-16 0 1
    outer loop
      vertex -27.5 4.9 1.6
      vertex -16.5 5.40192 1.6
      vertex -17.5981 6.5 1.6
    endloop
  endfacet
  facet normal -2.22045e-16 0 1
    outer loop
      vertex 18 8 1.6
      vertex 17.5981 6.5 1.6
      vertex 27.5 4.9 1.6
    endloop
  endfacet
  facet normal -2.22045e-16 0 1
    outer loop
      vertex -15 11 1.6
      vertex -17.5 15 1.6
      vertex -27.5 16.32 1.6
    endloop
  endfacet
  facet normal -2.22045e-16 0 1
    outer loop
      vertex -15 11 1.6
      vertex 15 11 1.6
      vertex -17.5 15 1.6
    endloop
  endfacet
  facet normal -1.57009e-16 0.707107 0.707107
    outer loop
      vertex -27.5 3.75 2.75
      vertex 27.5 3.75 2.75
      vertex -27.5 4.9 1.6
    endloop
  endfacet
  facet normal -1.57009e-16 0.707107 0.707107
    outer loop
      vertex -27.5 4.9 1.6
      vertex 27.5 3.75 2.75
      vertex 27.5 4.9 1.6
    endloop
  endfacet
  facet normal 4.93038e-32 1 -2.22045e-16
    outer loop
      vertex -27.5 3.75 2.75
      vertex -27.5 3.75 4
      vertex 27.5 3.75 2.75
    endloop
  endfacet
  facet normal 4.93038e-32 1 -2.22045e-16
    outer loop
      vertex 27.5 3.75 2.75
      vertex -27.5 3.75 4
      vertex 27.5 3.75 4
    endloop
  endfacet
  facet normal 0 0 1
    outer loop
      vertex -22.5 -2.5 4
      vertex -27.5 -3.75 4
      vertex 27.5 -3.75 4
    endloop
  endfacet
  facet normal 0 0 1
    outer loop
      vertex 22.5 -2.5 4
      vertex -27.5 3.75 4
      vertex 27.5 -3.75 4
    endloop
  endfacet
  facet normal 0 0 1
    outer loop
      vertex -22.5 -2.5 4
      vertex -23.75 -2.16506 4
      vertex -27.5 -3.75 4
    endloop
  endfacet
  facet normal 0 0 1
    outer loop
      vertex -27.5 3.75 4
      vertex -27.5 -3.75 4
      vertex -24.6651 -1.25 4
    endloop
  endfacet
  facet normal 0 0 1
    outer loop
      vertex -20.3349 -1.25 4
      vertex -21.25 -2.16506 4
      vertex 27.5 -3.75 4
    endloop
  endfacet
  facet normal 0 0 1
    outer loop
      vertex -27.5 3.75 4
      vertex -24.6651 -1.25 4
      vertex -25 0 4
    endloop
  endfacet
  facet normal 0 0 1
    outer loop
      vertex -20 0 4
      vertex -20.3349 -1.25 4
      vertex 27.5 -3.75 4
    endloop
  endfacet
  facet normal 0 0 1
    outer loop
      vertex -27.5 3.75 4
      vertex -25 0 4
      vertex -24.6651 1.25 4
    endloop
  endfacet
  facet normal 0 0 1
    outer loop
      vertex -20.3349 1.25 4
      vertex -20 0 4
      vertex 27.5 -3.75 4
    endloop
  endfacet
  facet normal 0 0 1
    outer loop
      vertex -27.5 3.75 4
      vertex -24.6651 1.25 4
      vertex -23.75 2.16506 4
    endloop
  endfacet
  facet normal 0 0 1
    outer loop
      vertex -27.5 3.75 4
      vertex -22.5 2.5 4
      vertex 27.5 -3.75 4
    endloop
  endfacet
  facet normal 0 0 1
    outer loop
      vertex -27.5 3.75 4
      vertex -23.75 2.16506 4
      vertex -22.5 2.5 4
    endloop
  endfacet
  facet normal 0 0 1
    outer loop
      vertex -22.5 2.5 4
      vertex -21.25 2.16506 4
      vertex 27.5 -3.75 4
    endloop
  endfacet
  facet normal 0 0 1
    outer loop
      vertex -21.25 -2.16506 4
      vertex -22.5 -2.5 4
      vertex 27.5 -3.75 4
    endloop
  endfacet
  facet normal 0 0 1
    outer loop
      vertex -24.6651 -1.25 4
      vertex -27.5 -3.75 4
      vertex -23.75 -2.16506 4
    endloop
  endfacet
  facet normal 0 0 1
    outer loop
      vertex 20 0 4
      vertex -27.5 3.75 4
      vertex 20.3349 -1.25 4
    endloop
  endfacet
  facet normal 0 0 1
    outer loop
      vertex 23.75 -2.16506 4
      vertex 22.5 -2.5 4
      vertex 27.5 -3.75 4
    endloop
  endfacet
  facet normal 0 0 1
    outer loop
      vertex 20.3349 1.25 4
      vertex -27.5 3.75 4
      vertex 20 0 4
    endloop
  endfacet
  facet normal 0 0 1
    outer loop
      vertex 21.25 2.16506 4
      vertex -27.5 3.75 4
      vertex 20.3349 1.25 4
    endloop
  endfacet
  facet normal 0 0 1
    outer loop
      vertex 22.5 2.5 4
      vertex -27.5 3.75 4
      vertex 21.25 2.16506 4
    endloop
  endfacet
  facet normal 0 0 1
    outer loop
      vertex 23.75 2.16506 4
      vertex 24.6651 1.25 4
      vertex 27.5 3.75 4
    endloop
  endfacet
  facet normal 0 0 1
    outer loop
      vertex 27.5 3.75 4
      vertex -27.5 3.75 4
      vertex 22.5 2.5 4
    endloop
  endfacet
  facet normal 0 0 1
    outer loop
      vertex 27.5 3.75 4
      vertex 24.6651 1.25 4
      vertex 27.5 -3.75 4
    endloop
  endfacet
  facet normal 0 0 1
    outer loop
      vertex 24.6651 1.25 4
      vertex 25 0 4
      vertex 27.5 -3.75 4
    endloop
  endfacet
  facet normal 0 0 1
    outer loop
      vertex 25 0 4
      vertex 24.6651 -1.25 4
      vertex 27.5 -3.75 4
    endloop
  endfacet
  facet normal 0 0 1
    outer loop
      vertex 24.6651 -1.25 4
      vertex 23.75 -2.16506 4
      vertex 27.5 -3.75 4
    endloop
  endfacet
  facet normal 0 0 1
    outer loop
      vertex 21.25 -2.16506 4
      vertex -27.5 3.75 4
      vertex 22.5 -2.5 4
    endloop
  endfacet
  facet normal 0 0 1
    outer loop
      vertex 20.3349 -1.25 4
      vertex -27.5 3.75 4
      vertex 21.25 -2.16506 4
    endloop
  endfacet
  facet normal 0 0 1
    outer loop
      vertex -21.25 2.16506 4
      vertex -20.3349 1.25 4
      vertex 27.5 -3.75 4
    endloop
  endfacet
  facet normal 0 0 1
    outer loop
      vertex 22.5 2.5 4
      vertex 23.75 2.16506 4
      vertex 27.5 3.75 4
    endloop
  endfacet
  facet normal -4.93038e-32 -1 2.22045e-16
    outer loop
      vertex -27.5 -3.75 4
      vertex -27.5 -3.75 2.75
      vertex 27.5 -3.75 2.75
    endloop
  endfacet
  facet normal -4.93038e-32 -1 2.22045e-16
    outer loop
      vertex 27.5 -3.75 4
      vertex -27.5 -3.75 4
      vertex 27.5 -3.75 2.75
    endloop
  endfacet
  facet normal -1.57009e-16 -0.707107 0.707107
    outer loop
      vertex -27.5 -3.75 2.75
      vertex -27.5 -4.9 1.6
      vertex 27.5 -4.9 1.6
    endloop
  endfacet
  facet normal -1.57009e-16 -0.707107 0.707107
    outer loop
      vertex 27.5 -3.75 2.75
      vertex -27.5 -3.75 2.75
      vertex 27.5 -4.9 1.6
    endloop
  endfacet
  facet normal -2.22045e-16 0 1
    outer loop
      vertex 15 -11 1.6
      vertex -17.5 -15 1.6
      vertex 17.5 -15 1.6
    endloop
  endfacet
  facet normal -2.22045e-16 0 1
    outer loop
      vertex -17.5 -16.32 1.6
      vertex -17.5 -15 1.6
      vertex -27.5 -4.9 1.6
    endloop
  endfacet
  facet normal -2.22045e-16 0 1
    outer loop
      vertex 17.5 -16.32 1.6
      vertex 27.5 -16.32 1.6
      vertex 17.5 -15 1.6
    endloop
  endfacet
  facet normal -2.22045e-16 0 1
    outer loop
      vertex 27.5 -16.32 1.6
      vertex 27.5 -4.9 1.6
      vertex 17.5 -15 1.6
    endloop
  endfacet
  facet normal -2.22045e-16 0 1
    outer loop
      vertex -18 -8 1.6
      vertex -27.5 -4.9 1.6
      vertex -17.5 -15 1.6
    endloop
  endfacet
  facet normal -2.22045e-16 0 1
    outer loop
      vertex -27.5 -4.9 1.6
      vertex -27.5 -16.32 1.6
      vertex -17.5 -16.32 1.6
    endloop
  endfacet
  facet normal -2.22045e-16 0 1
    outer loop
      vertex -17.5981 -9.5 1.6
      vertex -18 -8 1.6
      vertex -17.5 -15 1.6
    endloop
  endfacet
  facet normal -2.22045e-16 0 1
    outer loop
      vertex -17.5981 -6.5 1.6
      vertex -27.5 -4.9 1.6
      vertex -18 -8 1.6
    endloop
  endfacet
  facet normal -2.22045e-16 0 1
    outer loop
      vertex -16.5 -5.40192 1.6
      vertex -27.5 -4.9 1.6
      vertex -17.5981 -6.5 1.6
    endloop
  endfacet
  facet normal -2.22045e-16 0 1
    outer loop
      vertex 16.5 -5.40192 1.6
      vertex 17.5981 -6.5 1.6
      vertex 27.5 -4.9 1.6
    endloop
  endfacet
  facet normal -2.22045e-16 0 1
    outer loop
      vertex -15 -5 1.6
      vertex -27.5 -4.9 1.6
      vertex -16.5 -5.40192 1.6
    endloop
  endfacet
  facet normal -2.22045e-16 0 1
    outer loop
      vertex 27.5 -4.9 1.6
      vertex -27.5 -4.9 1.6
      vertex -15 -5 1.6
    endloop
  endfacet
  facet normal -2.22045e-16 0 1
    outer loop
      vertex 27.5 -4.9 1.6
      vertex -15 -5 1.6
      vertex 15 -5 1.6
    endloop
  endfacet
  facet normal -2.22045e-16 0 1
    outer loop
      vertex 17.5981 -6.5 1.6
      vertex 18 -8 1.6
      vertex 27.5 -4.9 1.6
    endloop
  endfacet
  facet normal -2.22045e-16 0 1
    outer loop
      vertex 27.5 -4.9 1.6
      vertex 18 -8 1.6
      vertex 17.5 -15 1.6
    endloop
  endfacet
  facet normal -2.22045e-16 0 1
    outer loop
      vertex 18 -8 1.6
      vertex 17.5981 -9.5 1.6
      vertex 17.5 -15 1.6
    endloop
  endfacet
  facet normal -2.22045e-16 0 1
    outer loop
      vertex 17.5981 -9.5 1.6
      vertex 16.5 -10.5981 1.6
      vertex 17.5 -15 1.6
    endloop
  endfacet
  facet normal -2.22045e-16 0 1
    outer loop
      vertex 16.5 -10.5981 1.6
      vertex 15 -11 1.6
      vertex 17.5 -15 1.6
    endloop
  endfacet
  facet normal -2.22045e-16 0 1
    outer loop
      vertex -15 -11 1.6
      vertex -16.5 -10.5981 1.6
      vertex -17.5 -15 1.6
    endloop
  endfacet
  facet normal -2.22045e-16 0 1
    outer loop
      vertex -16.5 -10.5981 1.6
      vertex -17.5981 -9.5 1.6
      vertex -17.5 -15 1.6
    endloop
  endfacet
  facet normal -2.22045e-16 0 1
    outer loop
      vertex 15 -5 1.6
      vertex 16.5 -5.40192 1.6
      vertex 27.5 -4.9 1.6
    endloop
  endfacet
  facet normal -2.22045e-16 0 1
    outer loop
      vertex 15 -11 1.6
      vertex -15 -11 1.6
      vertex -17.5 -15 1.6
    endloop
  endfacet
  facet normal -2.20828e-16 0.104529 0.994522
    outer loop
      vertex -17.5 -17.1683 1.68916
      vertex -17.5 -16.32 1.6
      vertex -27.5 -16.32 1.6
    endloop
  endfacet
  facet normal -2.20828e-16 0.104529 0.994522
    outer loop
      vertex -27.5 -17.1683 1.68916
      vertex -17.5 -17.1683 1.68916
      vertex -27.5 -16.32 1.6
    endloop
  endfacet
  facet normal -2.11177e-16 0.309017 0.951056
    outer loop
      vertex -17.5 -17.9795 1.95274
      vertex -17.5 -17.1683 1.68916
      vertex -27.5 -17.1683 1.68916
    endloop
  endfacet
  facet normal -2.11177e-16 0.309017 0.951056
    outer loop
      vertex -27.5 -17.9795 1.95274
      vertex -17.5 -17.9795 1.95274
      vertex -27.5 -17.1683 1.68916
    endloop
  endfacet
  facet normal -1.92296e-16 0.5 0.866025
    outer loop
      vertex -17.5 -18.7182 2.37921
      vertex -17.5 -17.9795 1.95274
      vertex -27.5 -17.9795 1.95274
    endloop
  endfacet
  facet normal -1.92296e-16 0.5 0.866025
    outer loop
      vertex -27.5 -18.7182 2.37921
      vertex -17.5 -18.7182 2.37921
      vertex -27.5 -17.9795 1.95274
    endloop
  endfacet
  facet normal -1.65011e-16 0.66913 0.743145
    outer loop
      vertex -17.5 -19.352 2.94995
      vertex -17.5 -18.7182 2.37921
      vertex -27.5 -18.7182 2.37921
    endloop
  endfacet
  facet normal -1.65011e-16 0.66913 0.743145
    outer loop
      vertex -27.5 -19.352 2.94995
      vertex -17.5 -19.352 2.94995
      vertex -27.5 -18.7182 2.37921
    endloop
  endfacet
  facet normal -1.30515e-16 0.809017 0.587785
    outer loop
      vertex -17.5 -19.352 2.94995
      vertex -27.5 -19.352 2.94995
      vertex -17.5 -19.8534 3.64
    endloop
  endfacet
  facet normal -1.30515e-16 0.809017 0.587785
    outer loop
      vertex -17.5 -19.8534 3.64
      vertex -27.5 -19.352 2.94995
      vertex -27.5 -19.8534 3.64
    endloop
  endfacet
  facet normal -9.03137e-17 0.913545 0.406737
    outer loop
      vertex -17.5 -19.8534 3.64
      vertex -27.5 -19.8534 3.64
      vertex -17.5 -20.0137 4
    endloop
  endfacet
  facet normal -9.03137e-17 0.913545 0.406737
    outer loop
      vertex -17.5 -20.0137 4
      vertex -27.5 -19.8534 3.64
      vertex -27.5 -20.0137 4
    endloop
  endfacet
  facet normal 0 0 1
    outer loop
      vertex -27.5 -20.0137 4
      vertex -27.5 -23 4
      vertex -17.5 -23 4
    endloop
  endfacet
  facet normal 0 0 1
    outer loop
      vertex -17.5 -20.0137 4
      vertex -27.5 -20.0137 4
      vertex -17.5 -23 4
    endloop
  endfacet
  facet normal 1 0 0
    outer loop
      vertex -17.5 -23 4
      vertex -17.5 -23 -4
      vertex -17.5 -15 -4
    endloop
  endfacet
  facet normal 1 0 0
    outer loop
      vertex -17.5 -17.9795 1.95274
      vertex -17.5 -23 4
      vertex -17.5 -15 -4
    endloop
  endfacet
  facet normal 1 0 0
    outer loop
      vertex -17.5 -15 1.6
      vertex -17.5 -16.32 1.6
      vertex -17.5 -15 -4
    endloop
  endfacet
  facet normal 1 0 0
    outer loop
      vertex -17.5 -16.32 1.6
      vertex -17.5 -17.1683 1.68916
      vertex -17.5 -15 -4
    endloop
  endfacet
  facet normal 1 0 0
    outer loop
      vertex -17.5 -17.1683 1.68916
      vertex -17.5 -17.9795 1.95274
      vertex -17.5 -15 -4
    endloop
  endfacet
  facet normal 1 0 0
    outer loop
      vertex -17.5 -19.8534 3.64
      vertex -17.5 -23 4
      vertex -17.5 -19.352 2.94995
    endloop
  endfacet
  facet normal 1 0 0
    outer loop
      vertex -17.5 -20.0137 4
      vertex -17.5 -23 4
      vertex -17.5 -19.8534 3.64
    endloop
  endfacet
  facet normal 1 0 0
    outer loop
      vertex -17.5 -17.9795 1.95274
      vertex -17.5 -18.7182 2.37921
      vertex -17.5 -23 4
    endloop
  endfacet
  facet normal 1 0 0
    outer loop
      vertex -17.5 -18.7182 2.37921
      vertex -17.5 -19.352 2.94995
      vertex -17.5 -23 4
    endloop
  endfacet
  facet normal 0 -1 0
    outer loop
      vertex -17.5 -15 1.6
      vertex -17.5 -15 -4
      vertex 17.5 -15 -4
    endloop
  endfacet
  facet normal 0 -1 0
    outer loop
      vertex 17.5 -15 1.6
      vertex -17.5 -15 1.6
      vertex 17.5 -15 -4
    endloop
  endfacet
  facet normal -1 0 0
    outer loop
      vertex 17.5 -23 -4
      vertex 17.5 -23 4
      vertex 17.5 -15 -4
    endloop
  endfacet
  facet normal -1 0 0
    outer loop
      vertex 17.5 -19.8534 3.64
      vertex 17.5 -23 4
      vertex 17.5 -20.0137 4
    endloop
  endfacet
  facet normal -1 0 0
    outer loop
      vertex 17.5 -15 -4
      vertex 17.5 -23 4
      vertex 17.5 -19.8534 3.64
    endloop
  endfacet
  facet normal -1 0 0
    outer loop
      vertex 17.5 -15 -4
      vertex 17.5 -19.352 2.94995
      vertex 17.5 -18.7182 2.37921
    endloop
  endfacet
  facet normal -1 0 0
    outer loop
      vertex 17.5 -18.7182 2.37921
      vertex 17.5 -17.9795 1.95274
      vertex 17.5 -15 -4
    endloop
  endfacet
  facet normal -1 0 0
    outer loop
      vertex 17.5 -17.9795 1.95274
      vertex 17.5 -17.1683 1.68916
      vertex 17.5 -15 -4
    endloop
  endfacet
  facet normal -1 0 0
    outer loop
      vertex 17.5 -17.1683 1.68916
      vertex 17.5 -16.32 1.6
      vertex 17.5 -15 -4
    endloop
  endfacet
  facet normal -1 0 0
    outer loop
      vertex 17.5 -16.32 1.6
      vertex 17.5 -15 1.6
      vertex 17.5 -15 -4
    endloop
  endfacet
  facet normal -1 0 0
    outer loop
      vertex 17.5 -19.352 2.94995
      vertex 17.5 -15 -4
      vertex 17.5 -19.8534 3.64
    endloop
  endfacet
  facet normal 0 -1 0
    outer loop
      vertex 17.5 -23 4
      vertex 17.5 -23 -4
      vertex 27.5 -23 -4
    endloop
  endfacet
  facet normal 0 -1 0
    outer loop
      vertex 27.5 -23 4
      vertex 17.5 -23 4
      vertex 27.5 -23 -4
    endloop
  endfacet
  facet normal 1 0 0
    outer loop
      vertex 27.5 -16.32 1.6
      vertex 27.5 -23 -4
      vertex 27.5 23 -4
    endloop
  endfacet
  facet normal 1 0 0
    outer loop
      vertex 27.5 23 4
      vertex 27.5 20.0137 4
      vertex 27.5 23 -4
    endloop
  endfacet
  facet normal 1 0 0
    outer loop
      vertex 27.5 20.0137 4
      vertex 27.5 19.8534 3.64
      vertex 27.5 23 -4
    endloop
  endfacet
  facet normal 1 0 0
    outer loop
      vertex 27.5 -3.75 4
      vertex 27.5 -3.75 2.75
      vertex 27.5 3.75 2.75
    endloop
  endfacet
  facet normal 1 0 0
    outer loop
      vertex 27.5 19.8534 3.64
      vertex 27.5 19.352 2.94995
      vertex 27.5 23 -4
    endloop
  endfacet
  facet normal 1 0 0
    outer loop
      vertex 27.5 19.352 2.94995
      vertex 27.5 18.7182 2.37921
      vertex 27.5 23 -4
    endloop
  endfacet
  facet normal 1 0 0
    outer loop
      vertex 27.5 18.7182 2.37921
      vertex 27.5 17.9795 1.95274
      vertex 27.5 23 -4
    endloop
  endfacet
  facet normal 1 0 0
    outer loop
      vertex 27.5 17.9795 1.95274
      vertex 27.5 17.1683 1.68916
      vertex 27.5 23 -4
    endloop
  endfacet
  facet normal 1 0 0
    outer loop
      vertex 27.5 17.1683 1.68916
      vertex 27.5 16.32 1.6
      vertex 27.5 23 -4
    endloop
  endfacet
  facet normal 1 0 0
    outer loop
      vertex 27.5 16.32 1.6
      vertex 27.5 4.9 1.6
      vertex 27.5 23 -4
    endloop
  endfacet
  facet normal 1 0 0
    outer loop
      vertex 27.5 -4.9 1.6
      vertex 27.5 -16.32 1.6
      vertex 27.5 23 -4
    endloop
  endfacet
  facet normal 1 0 0
    outer loop
      vertex 27.5 -3.75 2.75
      vertex 27.5 -4.9 1.6
      vertex 27.5 4.9 1.6
    endloop
  endfacet
  facet normal 1 0 0
    outer loop
      vertex 27.5 4.9 1.6
      vertex 27.5 -4.9 1.6
      vertex 27.5 23 -4
    endloop
  endfacet
  facet normal 1 0 0
    outer loop
      vertex 27.5 -17.1683 1.68916
      vertex 27.5 -23 -4
      vertex 27.5 -16.32 1.6
    endloop
  endfacet
  facet normal 1 0 0
    outer loop
      vertex 27.5 -17.9795 1.95274
      vertex 27.5 -23 -4
      vertex 27.5 -17.1683 1.68916
    endloop
  endfacet
  facet normal 1 0 0
    outer loop
      vertex 27.5 -18.7182 2.37921
      vertex 27.5 -19.352 2.94995
      vertex 27.5 -23 4
    endloop
  endfacet
  facet normal 1 0 0
    outer loop
      vertex 27.5 -23 4
      vertex 27.5 -23 -4
      vertex 27.5 -17.9795 1.95274
    endloop
  endfacet
  facet normal 1 0 0
    outer loop
      vertex 27.5 -19.352 2.94995
      vertex 27.5 -19.8534 3.64
      vertex 27.5 -23 4
    endloop
  endfacet
  facet normal 1 0 0
    outer loop
      vertex 27.5 -17.9795 1.95274
      vertex 27.5 -18.7182 2.37921
      vertex 27.5 -23 4
    endloop
  endfacet
  facet normal 1 0 0
    outer loop
      vertex 27.5 -19.8534 3.64
      vertex 27.5 -20.0137 4
      vertex 27.5 -23 4
    endloop
  endfacet
  facet normal 1 0 0
    outer loop
      vertex 27.5 4.9 1.6
      vertex 27.5 3.75 2.75
      vertex 27.5 -3.75 2.75
    endloop
  endfacet
  facet normal 1 0 0
    outer loop
      vertex 27.5 3.75 2.75
      vertex 27.5 3.75 4
      vertex 27.5 -3.75 4
    endloop
  endfacet
  facet normal 0 1 0
    outer loop
      vertex 17.5 23 -4
      vertex 17.5 23 4
      vertex 27.5 23 -4
    endloop
  endfacet
  facet normal 0 1 0
    outer loop
      vertex 27.5 23 -4
      vertex 17.5 23 4
      vertex 27.5 23 4
    endloop
  endfacet
  facet normal -1 0 0
    outer loop
      vertex 17.5 15 -4
      vertex 17.5 15 1.6
      vertex 17.5 23 -4
    endloop
  endfacet
  facet normal -1 0 0
    outer loop
      vertex 17.5 23 -4
      vertex 17.5 15 1.6
      vertex 17.5 16.32 1.6
    endloop
  endfacet
  facet normal -1 0 0
    outer loop
      vertex 17.5 23 -4
      vertex 17.5 16.32 1.6
      vertex 17.5 17.1683 1.68916
    endloop
  endfacet
  facet normal -1 0 0
    outer loop
      vertex 17.5 17.1683 1.68916
      vertex 17.5 17.9795 1.95274
      vertex 17.5 23 -4
    endloop
  endfacet
  facet normal -1 0 0
    outer loop
      vertex 17.5 17.9795 1.95274
      vertex 17.5 18.7182 2.37921
      vertex 17.5 23 -4
    endloop
  endfacet
  facet normal -1 0 0
    outer loop
      vertex 17.5 18.7182 2.37921
      vertex 17.5 19.352 2.94995
      vertex 17.5 23 -4
    endloop
  endfacet
  facet normal -1 0 0
    outer loop
      vertex 17.5 19.352 2.94995
      vertex 17.5 19.8534 3.64
      vertex 17.5 23 -4
    endloop
  endfacet
  facet normal -1 0 0
    outer loop
      vertex 17.5 19.8534 3.64
      vertex 17.5 20.0137 4
      vertex 17.5 23 -4
    endloop
  endfacet
  facet normal -1 0 0
    outer loop
      vertex 17.5 23 -4
      vertex 17.5 20.0137 4
      vertex 17.5 23 4
    endloop
  endfacet
  facet normal 0 1 0
    outer loop
      vertex -17.5 15 -4
      vertex -17.5 15 1.6
      vertex 17.5 15 -4
    endloop
  endfacet
  facet normal 0 1 0
    outer loop
      vertex 17.5 15 -4
      vertex -17.5 15 1.6
      vertex 17.5 15 1.6
    endloop
  endfacet
  facet normal 1 0 0
    outer loop
      vertex -17.5 15 1.6
      vertex -17.5 15 -4
      vertex -17.5 23 -4
    endloop
  endfacet
  facet normal 1 0 0
    outer loop
      vertex -17.5 16.32 1.6
      vertex -17.5 15 1.6
      vertex -17.5 23 -4
    endloop
  endfacet
  facet normal 1 0 0
    outer loop
      vertex -17.5 20.0137 4
      vertex -17.5 19.8534 3.64
      vertex -17.5 23 4
    endloop
  endfacet
  facet normal 1 0 0
    outer loop
      vertex -17.5 19.8534 3.64
      vertex -17.5 19.352 2.94995
      vertex -17.5 23 4
    endloop
  endfacet
  facet normal 1 0 0
    outer loop
      vertex -17.5 23 4
      vertex -17.5 18.7182 2.37921
      vertex -17.5 23 -4
    endloop
  endfacet
  facet normal 1 0 0
    outer loop
      vertex -17.5 18.7182 2.37921
      vertex -17.5 17.9795 1.95274
      vertex -17.5 23 -4
    endloop
  endfacet
  facet normal 1 0 0
    outer loop
      vertex -17.5 17.9795 1.95274
      vertex -17.5 17.1683 1.68916
      vertex -17.5 23 -4
    endloop
  endfacet
  facet normal 1 0 0
    outer loop
      vertex -17.5 17.1683 1.68916
      vertex -17.5 16.32 1.6
      vertex -17.5 23 -4
    endloop
  endfacet
  facet normal 1 0 0
    outer loop
      vertex -17.5 19.352 2.94995
      vertex -17.5 18.7182 2.37921
      vertex -17.5 23 4
    endloop
  endfacet
  facet normal 0.965926 0.258819 0
    outer loop
      vertex -25 0 4
      vertex -24.6651 -1.25 4
      vertex -24.6651 -1.25 -4
    endloop
  endfacet
  facet normal 0.965926 0.258819 0
    outer loop
      vertex -25 0 -4
      vertex -25 0 4
      vertex -24.6651 -1.25 -4
    endloop
  endfacet
  facet normal 0.965926 -0.258819 0
    outer loop
      vertex -24.6651 1.25 -4
      vertex -24.6651 1.25 4
      vertex -25 0 4
    endloop
  endfacet
  facet normal 0.965926 -0.258819 0
    outer loop
      vertex -25 0 -4
      vertex -24.6651 1.25 -4
      vertex -25 0 4
    endloop
  endfacet
  facet normal 0.707107 -0.707107 0
    outer loop
      vertex -23.75 2.16506 -4
      vertex -23.75 2.16506 4
      vertex -24.6651 1.25 4
    endloop
  endfacet
  facet normal 0.707107 -0.707107 0
    outer loop
      vertex -24.6651 1.25 -4
      vertex -23.75 2.16506 -4
      vertex -24.6651 1.25 4
    endloop
  endfacet
  facet normal 0.258819 -0.965926 0
    outer loop
      vertex -22.5 2.5 -4
      vertex -22.5 2.5 4
      vertex -23.75 2.16506 4
    endloop
  endfacet
  facet normal 0.258819 -0.965926 0
    outer loop
      vertex -23.75 2.16506 -4
      vertex -22.5 2.5 -4
      vertex -23.75 2.16506 4
    endloop
  endfacet
  facet normal -0.258819 -0.965926 0
    outer loop
      vertex -21.25 2.16506 -4
      vertex -21.25 2.16506 4
      vertex -22.5 2.5 4
    endloop
  endfacet
  facet normal -0.258819 -0.965926 0
    outer loop
      vertex -22.5 2.5 -4
      vertex -21.25 2.16506 -4
      vertex -22.5 2.5 4
    endloop
  endfacet
  facet normal -0.707107 -0.707107 0
    outer loop
      vertex -20.3349 1.25 -4
      vertex -20.3349 1.25 4
      vertex -21.25 2.16506 4
    endloop
  endfacet
  facet normal -0.707107 -0.707107 0
    outer loop
      vertex -21.25 2.16506 -4
      vertex -20.3349 1.25 -4
      vertex -21.25 2.16506 4
    endloop
  endfacet
  facet normal -0.965926 -0.258819 0
    outer loop
      vertex -20 0 4
      vertex -20.3349 1.25 4
      vertex -20 0 -4
    endloop
  endfacet
  facet normal -0.965926 -0.258819 0
    outer loop
      vertex -20 0 -4
      vertex -20.3349 1.25 4
      vertex -20.3349 1.25 -4
    endloop
  endfacet
  facet normal -0.965926 0.258819 0
    outer loop
      vertex -20 0 4
      vertex -20 0 -4
      vertex -20.3349 -1.25 4
    endloop
  endfacet
  facet normal -0.965926 0.258819 0
    outer loop
      vertex -20.3349 -1.25 4
      vertex -20 0 -4
      vertex -20.3349 -1.25 -4
    endloop
  endfacet
  facet normal -0.707107 0.707107 0
    outer loop
      vertex -20.3349 -1.25 4
      vertex -20.3349 -1.25 -4
      vertex -21.25 -2.16506 4
    endloop
  endfacet
  facet normal -0.707107 0.707107 0
    outer loop
      vertex -21.25 -2.16506 4
      vertex -20.3349 -1.25 -4
      vertex -21.25 -2.16506 -4
    endloop
  endfacet
  facet normal -0.258819 0.965926 0
    outer loop
      vertex -21.25 -2.16506 4
      vertex -21.25 -2.16506 -4
      vertex -22.5 -2.5 4
    endloop
  endfacet
  facet normal -0.258819 0.965926 0
    outer loop
      vertex -22.5 -2.5 4
      vertex -21.25 -2.16506 -4
      vertex -22.5 -2.5 -4
    endloop
  endfacet
  facet normal 0.258819 0.965926 0
    outer loop
      vertex -22.5 -2.5 4
      vertex -22.5 -2.5 -4
      vertex -23.75 -2.16506 4
    endloop
  endfacet
  facet normal 0.258819 0.965926 0
    outer loop
      vertex -23.75 -2.16506 4
      vertex -22.5 -2.5 -4
      vertex -23.75 -2.16506 -4
    endloop
  endfacet
  facet normal 0.707107 0.707107 0
    outer loop
      vertex -23.75 -2.16506 4
      vertex -23.75 -2.16506 -4
      vertex -24.6651 -1.25 4
    endloop
  endfacet
  facet normal 0.707107 0.707107 0
    outer loop
      vertex -24.6651 -1.25 4
      vertex -23.75 -2.16506 -4
      vertex -24.6651 -1.25 -4
    endloop
  endfacet
  facet normal 0.965926 0.258819 0
    outer loop
      vertex -18 -8 1.6
      vertex -17.5981 -9.5 1.6
      vertex -17.5981 -9.5 -4
    endloop
  endfacet
  facet normal 0.965926 0.258819 0
    outer loop
      vertex -18 -8 -4
      vertex -18 -8 1.6
      vertex -17.5981 -9.5 -4
    endloop
  endfacet
  facet normal 0.965926 -0.258819 0
    outer loop
      vertex -17.5981 -6.5 -4
      vertex -17.5981 -6.5 1.6
      vertex -18 -8 1.6
    endloop
  endfacet
  facet normal 0.965926 -0.258819 0
    outer loop
      vertex -18 -8 -4
      vertex -17.5981 -6.5 -4
      vertex -18 -8 1.6
    endloop
  endfacet
  facet normal 0.707107 -0.707107 0
    outer loop
      vertex -16.5 -5.40192 -4
      vertex -16.5 -5.40192 1.6
      vertex -17.5981 -6.5 1.6
    endloop
  endfacet
  facet normal 0.707107 -0.707107 0
    outer loop
      vertex -17.5981 -6.5 -4
      vertex -16.5 -5.40192 -4
      vertex -17.5981 -6.5 1.6
    endloop
  endfacet
  facet normal 0.258819 -0.965926 0
    outer loop
      vertex -15 -5 -4
      vertex -15 -5 1.6
      vertex -16.5 -5.40192 1.6
    endloop
  endfacet
  facet normal 0.258819 -0.965926 0
    outer loop
      vertex -16.5 -5.40192 -4
      vertex -15 -5 -4
      vertex -16.5 -5.40192 1.6
    endloop
  endfacet
  facet normal 0 -1 0
    outer loop
      vertex 15 -5 -4
      vertex 15 -5 1.6
      vertex -15 -5 1.6
    endloop
  endfacet
  facet normal 0 -1 0
    outer loop
      vertex -15 -5 -4
      vertex 15 -5 -4
      vertex -15 -5 1.6
    endloop
  endfacet
  facet normal -0.258819 -0.965926 0
    outer loop
      vertex 16.5 -5.40192 -4
      vertex 16.5 -5.40192 1.6
      vertex 15 -5 1.6
    endloop
  endfacet
  facet normal -0.258819 -0.965926 0
    outer loop
      vertex 15 -5 -4
      vertex 16.5 -5.40192 -4
      vertex 15 -5 1.6
    endloop
  endfacet
  facet normal -0.707107 -0.707107 0
    outer loop
      vertex 17.5981 -6.5 -4
      vertex 17.5981 -6.5 1.6
      vertex 16.5 -5.40192 1.6
    endloop
  endfacet
  facet normal -0.707107 -0.707107 0
    outer loop
      vertex 16.5 -5.40192 -4
      vertex 17.5981 -6.5 -4
      vertex 16.5 -5.40192 1.6
    endloop
  endfacet
  facet normal -0.965926 -0.258819 0
    outer loop
      vertex 18 -8 1.6
      vertex 17.5981 -6.5 1.6
      vertex 18 -8 -4
    endloop
  endfacet
  facet normal -0.965926 -0.258819 0
    outer loop
      vertex 18 -8 -4
      vertex 17.5981 -6.5 1.6
      vertex 17.5981 -6.5 -4
    endloop
  endfacet
  facet normal -0.965926 0.258819 0
    outer loop
      vertex 18 -8 1.6
      vertex 18 -8 -4
      vertex 17.5981 -9.5 1.6
    endloop
  endfacet
  facet normal -0.965926 0.258819 0
    outer loop
      vertex 17.5981 -9.5 1.6
      vertex 18 -8 -4
      vertex 17.5981 -9.5 -4
    endloop
  endfacet
  facet normal -0.707107 0.707107 0
    outer loop
      vertex 17.5981 -9.5 1.6
      vertex 17.5981 -9.5 -4
      vertex 16.5 -10.5981 1.6
    endloop
  endfacet
  facet normal -0.707107 0.707107 0
    outer loop
      vertex 16.5 -10.5981 1.6
      vertex 17.5981 -9.5 -4
      vertex 16.5 -10.5981 -4
    endloop
  endfacet
  facet normal -0.258819 0.965926 0
    outer loop
      vertex 16.5 -10.5981 1.6
      vertex 16.5 -10.5981 -4
      vertex 15 -11 1.6
    endloop
  endfacet
  facet normal -0.258819 0.965926 0
    outer loop
      vertex 15 -11 1.6
      vertex 16.5 -10.5981 -4
      vertex 15 -11 -4
    endloop
  endfacet
  facet normal 0 1 0
    outer loop
      vertex 15 -11 1.6
      vertex 15 -11 -4
      vertex -15 -11 1.6
    endloop
  endfacet
  facet normal 0 1 0
    outer loop
      vertex -15 -11 1.6
      vertex 15 -11 -4
      vertex -15 -11 -4
    endloop
  endfacet
  facet normal 0.258819 0.965926 0
    outer loop
      vertex -15 -11 1.6
      vertex -15 -11 -4
      vertex -16.5 -10.5981 1.6
    endloop
  endfacet
  facet normal 0.258819 0.965926 0
    outer loop
      vertex -16.5 -10.5981 1.6
      vertex -15 -11 -4
      vertex -16.5 -10.5981 -4
    endloop
  endfacet
  facet normal 0.707107 0.707107 0
    outer loop
      vertex -16.5 -10.5981 1.6
      vertex -16.5 -10.5981 -4
      vertex -17.5981 -9.5 1.6
    endloop
  endfacet
  facet normal 0.707107 0.707107 0
    outer loop
      vertex -17.5981 -9.5 1.6
      vertex -16.5 -10.5981 -4
      vertex -17.5981 -9.5 -4
    endloop
  endfacet
  facet normal 0.965926 0.258819 0
    outer loop
      vertex -18 8 1.6
      vertex -17.5981 6.5 1.6
      vertex -17.5981 6.5 -4
    endloop
  endfacet
  facet normal 0.965926 0.258819 0
    outer loop
      vertex -18 8 -4
      vertex -18 8 1.6
      vertex -17.5981 6.5 -4
    endloop
  endfacet
  facet normal 0.965926 -0.258819 0
    outer loop
      vertex -17.5981 9.5 -4
      vertex -17.5981 9.5 1.6
      vertex -18 8 1.6
    endloop
  endfacet
  facet normal 0.965926 -0.258819 0
    outer loop
      vertex -18 8 -4
      vertex -17.5981 9.5 -4
      vertex -18 8 1.6
    endloop
  endfacet
  facet normal 0.707107 -0.707107 0
    outer loop
      vertex -16.5 10.5981 -4
      vertex -16.5 10.5981 1.6
      vertex -17.5981 9.5 1.6
    endloop
  endfacet
  facet normal 0.707107 -0.707107 0
    outer loop
      vertex -17.5981 9.5 -4
      vertex -16.5 10.5981 -4
      vertex -17.5981 9.5 1.6
    endloop
  endfacet
  facet normal 0.258819 -0.965926 0
    outer loop
      vertex -15 11 -4
      vertex -15 11 1.6
      vertex -16.5 10.5981 1.6
    endloop
  endfacet
  facet normal 0.258819 -0.965926 0
    outer loop
      vertex -16.5 10.5981 -4
      vertex -15 11 -4
      vertex -16.5 10.5981 1.6
    endloop
  endfacet
  facet normal 0 -1 0
    outer loop
      vertex 15 11 -4
      vertex 15 11 1.6
      vertex -15 11 1.6
    endloop
  endfacet
  facet normal 0 -1 0
    outer loop
      vertex -15 11 -4
      vertex 15 11 -4
      vertex -15 11 1.6
    endloop
  endfacet
  facet normal -0.258819 -0.965926 0
    outer loop
      vertex 16.5 10.5981 -4
      vertex 16.5 10.5981 1.6
      vertex 15 11 1.6
    endloop
  endfacet
  facet normal -0.258819 -0.965926 0
    outer loop
      vertex 15 11 -4
      vertex 16.5 10.5981 -4
      vertex 15 11 1.6
    endloop
  endfacet
  facet normal -0.707107 -0.707107 0
    outer loop
      vertex 17.5981 9.5 -4
      vertex 17.5981 9.5 1.6
      vertex 16.5 10.5981 1.6
    endloop
  endfacet
  facet normal -0.707107 -0.707107 0
    outer loop
      vertex 16.5 10.5981 -4
      vertex 17.5981 9.5 -4
      vertex 16.5 10.5981 1.6
    endloop
  endfacet
  facet normal -0.965926 -0.258819 0
    outer loop
      vertex 18 8 1.6
      vertex 17.5981 9.5 1.6
      vertex 18 8 -4
    endloop
  endfacet
  facet normal -0.965926 -0.258819 0
    outer loop
      vertex 18 8 -4
      vertex 17.5981 9.5 1.6
      vertex 17.5981 9.5 -4
    endloop
  endfacet
  facet normal -0.965926 0.258819 0
    outer loop
      vertex 18 8 1.6
      vertex 18 8 -4
      vertex 17.5981 6.5 1.6
    endloop
  endfacet
  facet normal -0.965926 0.258819 0
    outer loop
      vertex 17.5981 6.5 1.6
      vertex 18 8 -4
      vertex 17.5981 6.5 -4
    endloop
  endfacet
  facet normal -0.707107 0.707107 0
    outer loop
      vertex 17.5981 6.5 1.6
      vertex 17.5981 6.5 -4
      vertex 16.5 5.40192 1.6
    endloop
  endfacet
  facet normal -0.707107 0.707107 0
    outer loop
      vertex 16.5 5.40192 1.6
      vertex 17.5981 6.5 -4
      vertex 16.5 5.40192 -4
    endloop
  endfacet
  facet normal -0.258819 0.965926 0
    outer loop
      vertex 16.5 5.40192 1.6
      vertex 16.5 5.40192 -4
      vertex 15 5 1.6
    endloop
  endfacet
  facet normal -0.258819 0.965926 0
    outer loop
      vertex 15 5 1.6
      vertex 16.5 5.40192 -4
      vertex 15 5 -4
    endloop
  endfacet
  facet normal 0 1 0
    outer loop
      vertex 15 5 1.6
      vertex 15 5 -4
      vertex -15 5 1.6
    endloop
  endfacet
  facet normal 0 1 0
    outer loop
      vertex -15 5 1.6
      vertex 15 5 -4
      vertex -15 5 -4
    endloop
  endfacet
  facet normal 0.258819 0.965926 0
    outer loop
      vertex -15 5 1.6
      vertex -15 5 -4
      vertex -16.5 5.40192 1.6
    endloop
  endfacet
  facet normal 0.258819 0.965926 0
    outer loop
      vertex -16.5 5.40192 1.6
      vertex -15 5 -4
      vertex -16.5 5.40192 -4
    endloop
  endfacet
  facet normal 0.707107 0.707107 0
    outer loop
      vertex -16.5 5.40192 1.6
      vertex -16.5 5.40192 -4
      vertex -17.5981 6.5 1.6
    endloop
  endfacet
  facet normal 0.707107 0.707107 0
    outer loop
      vertex -17.5981 6.5 1.6
      vertex -16.5 5.40192 -4
      vertex -17.5981 6.5 -4
    endloop
  endfacet
  facet normal 0.965926 0.258819 0
    outer loop
      vertex 20 0 4
      vertex 20.3349 -1.25 4
      vertex 20.3349 -1.25 -4
    endloop
  endfacet
  facet normal 0.965926 0.258819 0
    outer loop
      vertex 20 0 -4
      vertex 20 0 4
      vertex 20.3349 -1.25 -4
    endloop
  endfacet
  facet normal 0.965926 -0.258819 0
    outer loop
      vertex 20.3349 1.25 -4
      vertex 20.3349 1.25 4
      vertex 20 0 4
    endloop
  endfacet
  facet normal 0.965926 -0.258819 0
    outer loop
      vertex 20 0 -4
      vertex 20.3349 1.25 -4
      vertex 20 0 4
    endloop
  endfacet
  facet normal 0.707107 -0.707107 0
    outer loop
      vertex 21.25 2.16506 -4
      vertex 21.25 2.16506 4
      vertex 20.3349 1.25 4
    endloop
  endfacet
  facet normal 0.707107 -0.707107 0
    outer loop
      vertex 20.3349 1.25 -4
      vertex 21.25 2.16506 -4
      vertex 20.3349 1.25 4
    endloop
  endfacet
  facet normal 0.258819 -0.965926 0
    outer loop
      vertex 22.5 2.5 -4
      vertex 22.5 2.5 4
      vertex 21.25 2.16506 4
    endloop
  endfacet
  facet normal 0.258819 -0.965926 0
    outer loop
      vertex 21.25 2.16506 -4
      vertex 22.5 2.5 -4
      vertex 21.25 2.16506 4
    endloop
  endfacet
  facet normal -0.258819 -0.965926 0
    outer loop
      vertex 23.75 2.16506 -4
      vertex 23.75 2.16506 4
      vertex 22.5 2.5 4
    endloop
  endfacet
  facet normal -0.258819 -0.965926 0
    outer loop
      vertex 22.5 2.5 -4
      vertex 23.75 2.16506 -4
      vertex 22.5 2.5 4
    endloop
  endfacet
  facet normal -0.707107 -0.707107 0
    outer loop
      vertex 24.6651 1.25 -4
      vertex 24.6651 1.25 4
      vertex 23.75 2.16506 4
    endloop
  endfacet
  facet normal -0.707107 -0.707107 0
    outer loop
      vertex 23.75 2.16506 -4
      vertex 24.6651 1.25 -4
      vertex 23.75 2.16506 4
    endloop
  endfacet
  facet normal -0.965926 -0.258819 0
    outer loop
      vertex 25 0 4
      vertex 24.6651 1.25 4
      vertex 25 0 -4
    endloop
  endfacet
  facet normal -0.965926 -0.258819 0
    outer loop
      vertex 25 0 -4
      vertex 24.6651 1.25 4
      vertex 24.6651 1.25 -4
    endloop
  endfacet
  facet normal -0.965926 0.258819 0
    outer loop
      vertex 25 0 4
      vertex 25 0 -4
      vertex 24.6651 -1.25 4
    endloop
  endfacet
  facet normal -0.965926 0.258819 0
    outer loop
      vertex 24.6651 -1.25 4
      vertex 25 0 -4
      vertex 24.6651 -1.25 -4
    endloop
  endfacet
  facet normal -0.707107 0.707107 0
    outer loop
      vertex 24.6651 -1.25 4
      vertex 24.6651 -1.25 -4
      vertex 23.75 -2.16506 4
    endloop
  endfacet
  facet normal -0.707107 0.707107 0
    outer loop
      vertex 23.75 -2.16506 4
      vertex 24.6651 -1.25 -4
      vertex 23.75 -2.16506 -4
    endloop
  endfacet
  facet normal -0.258819 0.965926 0
    outer loop
      vertex 23.75 -2.16506 4
      vertex 23.75 -2.16506 -4
      vertex 22.5 -2.5 4
    endloop
  endfacet
  facet normal -0.258819 0.965926 0
    outer loop
      vertex 22.5 -2.5 4
      vertex 23.75 -2.16506 -4
      vertex 22.5 -2.5 -4
    endloop
  endfacet
  facet normal 0.258819 0.965926 0
    outer loop
      vertex 22.5 -2.5 4
      vertex 22.5 -2.5 -4
      vertex 21.25 -2.16506 4
    endloop
  endfacet
  facet normal 0.258819 0.965926 0
    outer loop
      vertex 21.25 -2.16506 4
      vertex 22.5 -2.5 -4
      vertex 21.25 -2.16506 -4
    endloop
  endfacet
  facet normal 0.707107 0.707107 0
    outer loop
      vertex 21.25 -2.16506 4
      vertex 21.25 -2.16506 -4
      vertex 20.3349 -1.25 4
    endloop
  endfacet
  facet normal 0.707107 0.707107 0
    outer loop
      vertex 20.3349 -1.25 4
      vertex 21.25 -2.16506 -4
      vertex 20.3349 -1.25 -4
    endloop
  endfacet
  facet normal -2.20828e-16 -0.104529 0.994522
    outer loop
      vertex 27.5 16.32 1.6
      vertex 27.5 17.1683 1.68916
      vertex 17.5 17.1683 1.68916
    endloop
  endfacet
  facet normal -2.20828e-16 -0.104529 0.994522
    outer loop
      vertex 17.5 16.32 1.6
      vertex 27.5 16.32 1.6
      vertex 17.5 17.1683 1.68916
    endloop
  endfacet
  facet normal -2.20828e-16 0.104529 0.994522
    outer loop
      vertex 27.5 -17.1683 1.68916
      vertex 27.5 -16.32 1.6
      vertex 17.5 -16.32 1.6
    endloop
  endfacet
  facet normal -2.20828e-16 0.104529 0.994522
    outer loop
      vertex 17.5 -17.1683 1.68916
      vertex 27.5 -17.1683 1.68916
      vertex 17.5 -16.32 1.6
    endloop
  endfacet
  facet normal -2.11177e-16 0.309017 0.951056
    outer loop
      vertex 27.5 -17.9795 1.95274
      vertex 27.5 -17.1683 1.68916
      vertex 17.5 -17.1683 1.68916
    endloop
  endfacet
  facet normal -2.11177e-16 0.309017 0.951056
    outer loop
      vertex 17.5 -17.9795 1.95274
      vertex 27.5 -17.9795 1.95274
      vertex 17.5 -17.1683 1.68916
    endloop
  endfacet
  facet normal -1.92296e-16 0.5 0.866025
    outer loop
      vertex 27.5 -18.7182 2.37921
      vertex 27.5 -17.9795 1.95274
      vertex 17.5 -17.9795 1.95274
    endloop
  endfacet
  facet normal -1.92296e-16 0.5 0.866025
    outer loop
      vertex 17.5 -18.7182 2.37921
      vertex 27.5 -18.7182 2.37921
      vertex 17.5 -17.9795 1.95274
    endloop
  endfacet
  facet normal -1.65011e-16 0.66913 0.743145
    outer loop
      vertex 27.5 -19.352 2.94995
      vertex 27.5 -18.7182 2.37921
      vertex 17.5 -18.7182 2.37921
    endloop
  endfacet
  facet normal -1.65011e-16 0.66913 0.743145
    outer loop
      vertex 17.5 -19.352 2.94995
      vertex 27.5 -19.352 2.94995
      vertex 17.5 -18.7182 2.37921
    endloop
  endfacet
  facet normal -1.30515e-16 0.809017 0.587785
    outer loop
      vertex 27.5 -19.352 2.94995
      vertex 17.5 -19.352 2.94995
      vertex 27.5 -19.8534 3.64
    endloop
  endfacet
  facet normal -1.30515e-16 0.809017 0.587785
    outer loop
      vertex 27.5 -19.8534 3.64
      vertex 17.5 -19.352 2.94995
      vertex 17.5 -19.8534 3.64
    endloop
  endfacet
  facet normal -9.03137e-17 0.913545 0.406737
    outer loop
      vertex 27.5 -19.8534 3.64
      vertex 17.5 -19.8534 3.64
      vertex 27.5 -20.0137 4
    endloop
  endfacet
  facet normal -9.03137e-17 0.913545 0.406737
    outer loop
      vertex 27.5 -20.0137 4
      vertex 17.5 -19.8534 3.64
      vertex 17.5 -20.0137 4
    endloop
  endfacet
  facet normal 0 0 1
    outer loop
      vertex 17.5 -20.0137 4
      vertex 17.5 -23 4
      vertex 27.5 -23 4
    endloop
  endfacet
  facet normal 0 0 1
    outer loop
      vertex 27.5 -20.0137 4
      vertex 17.5 -20.0137 4
      vertex 27.5 -23 4
    endloop
  endfacet
  facet normal -2.11177e-16 -0.309017 0.951056
    outer loop
      vertex 27.5 17.1683 1.68916
      vertex 27.5 17.9795 1.95274
      vertex 17.5 17.9795 1.95274
    endloop
  endfacet
  facet normal -2.11177e-16 -0.309017 0.951056
    outer loop
      vertex 17.5 17.1683 1.68916
      vertex 27.5 17.1683 1.68916
      vertex 17.5 17.9795 1.95274
    endloop
  endfacet
  facet normal -1.92296e-16 -0.5 0.866025
    outer loop
      vertex 27.5 17.9795 1.95274
      vertex 27.5 18.7182 2.37921
      vertex 17.5 18.7182 2.37921
    endloop
  endfacet
  facet normal -1.92296e-16 -0.5 0.866025
    outer loop
      vertex 17.5 17.9795 1.95274
      vertex 27.5 17.9795 1.95274
      vertex 17.5 18.7182 2.37921
    endloop
  endfacet
  facet normal -1.65011e-16 -0.66913 0.743145
    outer loop
      vertex 27.5 18.7182 2.37921
      vertex 27.5 19.352 2.94995
      vertex 17.5 19.352 2.94995
    endloop
  endfacet
  facet normal -1.65011e-16 -0.66913 0.743145
    outer loop
      vertex 17.5 18.7182 2.37921
      vertex 27.5 18.7182 2.37921
      vertex 17.5 19.352 2.94995
    endloop
  endfacet
  facet normal -1.30515e-16 -0.809017 0.587785
    outer loop
      vertex 27.5 19.352 2.94995
      vertex 27.5 19.8534 3.64
      vertex 17.5 19.8534 3.64
    endloop
  endfacet
  facet normal -1.30515e-16 -0.809017 0.587785
    outer loop
      vertex 17.5 19.352 2.94995
      vertex 27.5 19.352 2.94995
      vertex 17.5 19.8534 3.64
    endloop
  endfacet
  facet normal -9.03137e-17 -0.913545 0.406737
    outer loop
      vertex 27.5 19.8534 3.64
      vertex 27.5 20.0137 4
      vertex 17.5 20.0137 4
    endloop
  endfacet
  facet normal -9.03137e-17 -0.913545 0.406737
    outer loop
      vertex 17.5 19.8534 3.64
      vertex 27.5 19.8534 3.64
      vertex 17.5 20.0137 4
    endloop
  endfacet
  facet normal 0 0 1
    outer loop
      vertex 17.5 23 4
      vertex 17.5 20.0137 4
      vertex 27.5 20.0137 4
    endloop
  endfacet
  facet normal 0 0 1
    outer loop
      vertex 27.5 23 4
      vertex 17.5 23 4
      vertex 27.5 20.0137 4
    endloop
  endfacet
endsolid OpenSCAD_Model
