solid OpenSCAD_Model
  facet normal -0.885456 -0.464723 0
    outer loop
      vertex -19.8838 -16.9573 0
      vertex -18.994 -18.6525 0
      vertex -19.8838 -16.9573 50
    endloop
  endfacet
  facet normal -0.885456 -0.464723 0
    outer loop
      vertex -19.8838 -16.9573 50
      vertex -18.994 -18.6525 0
      vertex -18.994 -18.6525 50
    endloop
  endfacet
  facet normal 0 0 -1
    outer loop
      vertex -19.8838 -16.9573 0
      vertex -19.8838 16.9573 0
      vertex -18.994 -18.6525 0
    endloop
  endfacet
  facet normal 0 0 -1
    outer loop
      vertex -18.994 -18.6525 0
      vertex -19.8838 16.9573 0
      vertex -18.994 18.6525 0
    endloop
  endfacet
  facet normal 0 0 -1
    outer loop
      vertex -18.994 -18.6525 0
      vertex -18.994 18.6525 0
      vertex -17.4184 19.7401 0
    endloop
  endfacet
  facet normal 0 0 -1
    outer loop
      vertex -18.994 -18.6525 0
      vertex -17.4184 19.7401 0
      vertex -15.5179 19.9708 0
    endloop
  endfacet
  facet normal 0 0 -1
    outer loop
      vertex -12.8 2 0
      vertex -15.5179 19.9708 0
      vertex 16.4821 19.9708 0
    endloop
  endfacet
  facet normal 0 0 -1
    outer loop
      vertex -18.994 -18.6525 0
      vertex 16.4821 19.9708 0
      vertex 18.2723 19.2919 0
    endloop
  endfacet
  facet normal 0 0 -1
    outer loop
      vertex -18.994 -18.6525 0
      vertex 18.2723 19.2919 0
      vertex 19.5418 17.8589 0
    endloop
  endfacet
  facet normal 0 0 -1
    outer loop
      vertex -18.994 -18.6525 0
      vertex 19.5418 17.8589 0
      vertex 20 16 0
    endloop
  endfacet
  facet normal 0 0 -1
    outer loop
      vertex -18.994 -18.6525 0
      vertex 20 16 0
      vertex 20 -16 0
    endloop
  endfacet
  facet normal 0 0 -1
    outer loop
      vertex -18.994 -18.6525 0
      vertex 20 -16 0
      vertex 19.5418 -17.8589 0
    endloop
  endfacet
  facet normal 0 0 -1
    outer loop
      vertex -18.994 -18.6525 0
      vertex 19.5418 -17.8589 0
      vertex 18.2723 -19.2919 0
    endloop
  endfacet
  facet normal 0 0 -1
    outer loop
      vertex -18.994 -18.6525 0
      vertex 18.2723 -19.2919 0
      vertex 16.4821 -19.9708 0
    endloop
  endfacet
  facet normal 0 0 -1
    outer loop
      vertex -18.994 -18.6525 0
      vertex 16.4821 -19.9708 0
      vertex -15.5179 -19.9708 0
    endloop
  endfacet
  facet normal 0 0 -1
    outer loop
      vertex -18.994 -18.6525 0
      vertex -15.5179 -19.9708 0
      vertex -17.4184 -19.7401 0
    endloop
  endfacet
  facet normal 0 0 -1
    outer loop
      vertex -18.994 -18.6525 0
      vertex -15.5179 19.9708 0
      vertex -14.8 0 0
    endloop
  endfacet
  facet normal 0 0 -1
    outer loop
      vertex -18.994 -18.6525 0
      vertex -14.8 0 0
      vertex -14.5321 -1 0
    endloop
  endfacet
  facet normal 0 0 -1
    outer loop
      vertex -18.994 -18.6525 0
      vertex -14.5321 -1 0
      vertex -13.8 -1.73205 0
    endloop
  endfacet
  facet normal 0 0 -1
    outer loop
      vertex -18.994 -18.6525 0
      vertex -13.8 -1.73205 0
      vertex -12.8 -2 0
    endloop
  endfacet
  facet normal 0 0 -1
    outer loop
      vertex -18.994 -18.6525 0
      vertex -12.8 -2 0
      vertex -11.8 -1.73205 0
    endloop
  endfacet
  facet normal 0 0 -1
    outer loop
      vertex -18.994 -18.6525 0
      vertex -11.8 -1.73205 0
      vertex 16.4821 19.9708 0
    endloop
  endfacet
  facet normal 0 0 -1
    outer loop
      vertex -11.8 -1.73205 0
      vertex -11.0679 -1 0
      vertex 16.4821 19.9708 0
    endloop
  endfacet
  facet normal 0 0 -1
    outer loop
      vertex -11.0679 1 0
      vertex 16.4821 19.9708 0
      vertex -10.8 0 0
    endloop
  endfacet
  facet normal 0 0 -1
    outer loop
      vertex -11.8 1.73205 0
      vertex 16.4821 19.9708 0
      vertex -11.0679 1 0
    endloop
  endfacet
  facet normal 0 0 -1
    outer loop
      vertex -12.8 2 0
      vertex 16.4821 19.9708 0
      vertex -11.8 1.73205 0
    endloop
  endfacet
  facet normal 0 0 -1
    outer loop
      vertex -13.8 1.73205 0
      vertex -15.5179 19.9708 0
      vertex -12.8 2 0
    endloop
  endfacet
  facet normal 0 0 -1
    outer loop
      vertex -14.5321 1 0
      vertex -15.5179 19.9708 0
      vertex -13.8 1.73205 0
    endloop
  endfacet
  facet normal 0 0 -1
    outer loop
      vertex -14.8 0 0
      vertex -15.5179 19.9708 0
      vertex -14.5321 1 0
    endloop
  endfacet
  facet normal 0 0 -1
    outer loop
      vertex -10.8 0 0
      vertex 16.4821 19.9708 0
      vertex -11.0679 -1 0
    endloop
  endfacet
  facet normal -1 0 0
    outer loop
      vertex -19.8838 -16.9573 0
      vertex -19.8838 -16.9573 50
      vertex -19.8838 -4 20
    endloop
  endfacet
  facet normal -1 0 0
    outer loop
      vertex -19.8838 -1.03528 16.1363
      vertex -19.8838 16.9573 0
      vertex -19.8838 -2 16.5359
    endloop
  endfacet
  facet normal -1 0 0
    outer loop
      vertex -19.8838 -16.9573 0
      vertex -19.8838 -4 20
      vertex -19.8838 -3.8637 18.9647
    endloop
  endfacet
  facet normal -1 0 0
    outer loop
      vertex -19.8838 -16.9573 0
      vertex -19.8838 -3.8637 18.9647
      vertex -19.8838 -3.4641 18
    endloop
  endfacet
  facet normal -1 0 0
    outer loop
      vertex -19.8838 -16.9573 0
      vertex -19.8838 -3.4641 18
      vertex -19.8838 -2.82843 17.1716
    endloop
  endfacet
  facet normal -1 0 0
    outer loop
      vertex -19.8838 -16.9573 0
      vertex -19.8838 -2.82843 17.1716
      vertex -19.8838 16.9573 0
    endloop
  endfacet
  facet normal -1 0 0
    outer loop
      vertex -19.8838 -2.82843 17.1716
      vertex -19.8838 -2 16.5359
      vertex -19.8838 16.9573 0
    endloop
  endfacet
  facet normal -1 0 0
    outer loop
      vertex -19.8838 0 16
      vertex -19.8838 16.9573 0
      vertex -19.8838 -1.03528 16.1363
    endloop
  endfacet
  facet normal -1 0 0
    outer loop
      vertex -19.8838 1.03528 16.1363
      vertex -19.8838 16.9573 0
      vertex -19.8838 0 16
    endloop
  endfacet
  facet normal -1 0 0
    outer loop
      vertex -19.8838 4 50
      vertex -19.8838 16.9573 0
      vertex -19.8838 4 20
    endloop
  endfacet
  facet normal -1 0 0
    outer loop
      vertex -19.8838 1.03528 16.1363
      vertex -19.8838 2 16.5359
      vertex -19.8838 16.9573 0
    endloop
  endfacet
  facet normal -1 0 0
    outer loop
      vertex -19.8838 2 16.5359
      vertex -19.8838 2.82843 17.1716
      vertex -19.8838 16.9573 0
    endloop
  endfacet
  facet normal -1 0 0
    outer loop
      vertex -19.8838 2.82843 17.1716
      vertex -19.8838 3.4641 18
      vertex -19.8838 16.9573 0
    endloop
  endfacet
  facet normal -1 0 0
    outer loop
      vertex -19.8838 3.4641 18
      vertex -19.8838 3.8637 18.9647
      vertex -19.8838 16.9573 0
    endloop
  endfacet
  facet normal -1 0 0
    outer loop
      vertex -19.8838 16.9573 0
      vertex -19.8838 4 50
      vertex -19.8838 16.9573 50
    endloop
  endfacet
  facet normal -1 0 0
    outer loop
      vertex -19.8838 -4 20
      vertex -19.8838 -16.9573 50
      vertex -19.8838 -4 50
    endloop
  endfacet
  facet normal -1 0 0
    outer loop
      vertex -19.8838 4 20
      vertex -19.8838 16.9573 0
      vertex -19.8838 3.8637 18.9647
    endloop
  endfacet
  facet normal 0 0 1
    outer loop
      vertex -18.994 -18.6525 50
      vertex -17.4184 -19.7401 50
      vertex -15.5179 -19.9708 50
    endloop
  endfacet
  facet normal 0 0 1
    outer loop
      vertex -3.75 -19.25 50
      vertex -18.994 -18.6525 50
      vertex -4.47083 -19.9708 50
    endloop
  endfacet
  facet normal 0 0 1
    outer loop
      vertex -4.47083 -19.9708 50
      vertex -18.994 -18.6525 50
      vertex -15.5179 -19.9708 50
    endloop
  endfacet
  facet normal 0 0 1
    outer loop
      vertex -3.75 -15.75 50
      vertex -18.994 -18.6525 50
      vertex -3.75 -19.25 50
    endloop
  endfacet
  facet normal 0 0 1
    outer loop
      vertex -7.25 -16 50
      vertex -18.994 -18.6525 50
      vertex -3.75 -15.75 50
    endloop
  endfacet
  facet normal 0 0 1
    outer loop
      vertex -9.25 -16 50
      vertex -9.25 -13 50
      vertex -18.994 -18.6525 50
    endloop
  endfacet
  facet normal 0 0 1
    outer loop
      vertex -4.5 -15 50
      vertex -7.25 -16 50
      vertex -3.75 -15.75 50
    endloop
  endfacet
  facet normal 0 0 1
    outer loop
      vertex -7.75 -10.5 50
      vertex -18.994 -18.6525 50
      vertex -9.25 -13 50
    endloop
  endfacet
  facet normal 0 0 1
    outer loop
      vertex -18.325 -10.5 50
      vertex -18.994 -18.6525 50
      vertex -7.75 -10.5 50
    endloop
  endfacet
  facet normal 0 0 1
    outer loop
      vertex -18.325 -4 50
      vertex -18.994 -18.6525 50
      vertex -18.325 -10.5 50
    endloop
  endfacet
  facet normal 0 0 1
    outer loop
      vertex -19.8838 -4 50
      vertex -18.994 -18.6525 50
      vertex -18.325 -4 50
    endloop
  endfacet
  facet normal 0 0 1
    outer loop
      vertex -19.8838 -16.9573 50
      vertex -18.994 -18.6525 50
      vertex -19.8838 -4 50
    endloop
  endfacet
  facet normal 0 0 1
    outer loop
      vertex -7.25 -16 50
      vertex -9.25 -16 50
      vertex -18.994 -18.6525 50
    endloop
  endfacet
  facet normal 0 0 1
    outer loop
      vertex -7.25 -15 50
      vertex -7.25 -16 50
      vertex -4.5 -15 50
    endloop
  endfacet
  facet normal -0.568065 -0.822984 0
    outer loop
      vertex -18.994 -18.6525 50
      vertex -18.994 -18.6525 0
      vertex -17.4184 -19.7401 0
    endloop
  endfacet
  facet normal -0.568065 -0.822984 0
    outer loop
      vertex -17.4184 -19.7401 50
      vertex -18.994 -18.6525 50
      vertex -17.4184 -19.7401 0
    endloop
  endfacet
  facet normal -0.120536 -0.992709 0
    outer loop
      vertex -17.4184 -19.7401 50
      vertex -17.4184 -19.7401 0
      vertex -15.5179 -19.9708 0
    endloop
  endfacet
  facet normal -0.120536 -0.992709 0
    outer loop
      vertex -15.5179 -19.9708 50
      vertex -17.4184 -19.7401 50
      vertex -15.5179 -19.9708 0
    endloop
  endfacet
  facet normal 0 -1 0
    outer loop
      vertex -15.5179 -19.9708 50
      vertex -15.5179 -19.9708 0
      vertex 16.4821 -19.9708 0
    endloop
  endfacet
  facet normal 0 -1 0
    outer loop
      vertex -4.47083 -19.9708 50
      vertex -15.5179 -19.9708 50
      vertex 16.4821 -19.9708 0
    endloop
  endfacet
  facet normal 0 -1 0
    outer loop
      vertex 4.47083 -19.9708 50
      vertex -4.47083 -19.9708 50
      vertex 16.4821 -19.9708 0
    endloop
  endfacet
  facet normal 0 -1 0
    outer loop
      vertex 16.4821 -19.9708 50
      vertex 4.47083 -19.9708 50
      vertex 16.4821 -19.9708 0
    endloop
  endfacet
  facet normal 0 -1 0
    outer loop
      vertex 4.47083 -19.9708 60
      vertex -4.47083 -19.9708 50
      vertex 4.47083 -19.9708 50
    endloop
  endfacet
  facet normal 0 -1 0
    outer loop
      vertex -4.47083 -19.9708 60
      vertex -4.47083 -19.9708 50
      vertex 4.47083 -19.9708 60
    endloop
  endfacet
  facet normal 0.354605 -0.935016 0
    outer loop
      vertex 16.4821 -19.9708 50
      vertex 16.4821 -19.9708 0
      vertex 18.2723 -19.2919 0
    endloop
  endfacet
  facet normal 0.354605 -0.935016 0
    outer loop
      vertex 18.2723 -19.2919 50
      vertex 16.4821 -19.9708 50
      vertex 18.2723 -19.2919 0
    endloop
  endfacet
  facet normal 0.748511 -0.663123 0
    outer loop
      vertex 18.2723 -19.2919 50
      vertex 18.2723 -19.2919 0
      vertex 19.5418 -17.8589 0
    endloop
  endfacet
  facet normal 0.748511 -0.663123 0
    outer loop
      vertex 19.5418 -17.8589 50
      vertex 18.2723 -19.2919 50
      vertex 19.5418 -17.8589 0
    endloop
  endfacet
  facet normal 0.970942 -0.239316 0
    outer loop
      vertex 19.5418 -17.8589 50
      vertex 19.5418 -17.8589 0
      vertex 20 -16 0
    endloop
  endfacet
  facet normal 0.970942 -0.239316 0
    outer loop
      vertex 20 -16 50
      vertex 19.5418 -17.8589 50
      vertex 20 -16 0
    endloop
  endfacet
  facet normal 1 0 0
    outer loop
      vertex 20 -16 50
      vertex 20 -16 0
      vertex 20 16 0
    endloop
  endfacet
  facet normal 1 0 0
    outer loop
      vertex 20 -4.5 50
      vertex 20 -16 50
      vertex 20 16 0
    endloop
  endfacet
  facet normal 1 0 0
    outer loop
      vertex 20 4.5 50
      vertex 20 -4.5 50
      vertex 20 16 0
    endloop
  endfacet
  facet normal 1 0 0
    outer loop
      vertex 20 16 50
      vertex 20 4.5 50
      vertex 20 16 0
    endloop
  endfacet
  facet normal 1 0 0
    outer loop
      vertex 20 4.5 60
      vertex 20 -4.5 50
      vertex 20 4.5 50
    endloop
  endfacet
  facet normal 1 0 0
    outer loop
      vertex 20 -4.5 60
      vertex 20 -4.5 50
      vertex 20 4.5 60
    endloop
  endfacet
  facet normal 0.970942 0.239316 0
    outer loop
      vertex 20 16 0
      vertex 19.5418 17.8589 0
      vertex 19.5418 17.8589 50
    endloop
  endfacet
  facet normal 0.970942 0.239316 0
    outer loop
      vertex 20 16 50
      vertex 20 16 0
      vertex 19.5418 17.8589 50
    endloop
  endfacet
  facet normal 0.748511 0.663123 0
    outer loop
      vertex 19.5418 17.8589 0
      vertex 18.2723 19.2919 0
      vertex 18.2723 19.2919 50
    endloop
  endfacet
  facet normal 0.748511 0.663123 0
    outer loop
      vertex 19.5418 17.8589 50
      vertex 19.5418 17.8589 0
      vertex 18.2723 19.2919 50
    endloop
  endfacet
  facet normal 0.354605 0.935016 0
    outer loop
      vertex 16.4821 19.9708 0
      vertex 16.4821 19.9708 50
      vertex 18.2723 19.2919 0
    endloop
  endfacet
  facet normal 0.354605 0.935016 0
    outer loop
      vertex 18.2723 19.2919 0
      vertex 16.4821 19.9708 50
      vertex 18.2723 19.2919 50
    endloop
  endfacet
  facet normal 0 1 0
    outer loop
      vertex -15.5179 19.9708 0
      vertex -15.5179 19.9708 50
      vertex 16.4821 19.9708 0
    endloop
  endfacet
  facet normal 0 1 0
    outer loop
      vertex 16.4821 19.9708 0
      vertex -15.5179 19.9708 50
      vertex -4.47083 19.9708 50
    endloop
  endfacet
  facet normal 0 1 0
    outer loop
      vertex 16.4821 19.9708 0
      vertex -4.47083 19.9708 50
      vertex -4.47083 19.9708 60
    endloop
  endfacet
  facet normal 0 1 0
    outer loop
      vertex 4.47084 19.9708 50
      vertex -4.47083 19.9708 60
      vertex 4.47084 19.9708 60
    endloop
  endfacet
  facet normal 0 1 0
    outer loop
      vertex 16.4821 19.9708 0
      vertex -4.47083 19.9708 60
      vertex 4.47084 19.9708 50
    endloop
  endfacet
  facet normal 0 1 0
    outer loop
      vertex 16.4821 19.9708 50
      vertex 16.4821 19.9708 0
      vertex 4.47084 19.9708 50
    endloop
  endfacet
  facet normal -0.120536 0.992709 0
    outer loop
      vertex -17.4184 19.7401 0
      vertex -17.4184 19.7401 50
      vertex -15.5179 19.9708 0
    endloop
  endfacet
  facet normal -0.120536 0.992709 0
    outer loop
      vertex -15.5179 19.9708 0
      vertex -17.4184 19.7401 50
      vertex -15.5179 19.9708 50
    endloop
  endfacet
  facet normal -0.568065 0.822984 0
    outer loop
      vertex -18.994 18.6525 0
      vertex -18.994 18.6525 50
      vertex -17.4184 19.7401 0
    endloop
  endfacet
  facet normal -0.568065 0.822984 0
    outer loop
      vertex -17.4184 19.7401 0
      vertex -18.994 18.6525 50
      vertex -17.4184 19.7401 50
    endloop
  endfacet
  facet normal -0.885456 0.464723 0
    outer loop
      vertex -19.8838 16.9573 0
      vertex -19.8838 16.9573 50
      vertex -18.994 18.6525 0
    endloop
  endfacet
  facet normal -0.885456 0.464723 0
    outer loop
      vertex -18.994 18.6525 0
      vertex -19.8838 16.9573 50
      vertex -18.994 18.6525 50
    endloop
  endfacet
  facet normal 0.965926 -0.258819 0
    outer loop
      vertex -14.5321 1 0
      vertex -14.5321 1 3
      vertex -14.8 0 3
    endloop
  endfacet
  facet normal 0.965926 -0.258819 0
    outer loop
      vertex -14.8 0 0
      vertex -14.5321 1 0
      vertex -14.8 0 3
    endloop
  endfacet
  facet normal 0.965926 0.258819 0
    outer loop
      vertex -14.8 0 3
      vertex -14.5321 -1 3
      vertex -14.5321 -1 0
    endloop
  endfacet
  facet normal 0.965926 0.258819 0
    outer loop
      vertex -14.8 0 0
      vertex -14.8 0 3
      vertex -14.5321 -1 0
    endloop
  endfacet
  facet normal 0.707107 -0.707107 0
    outer loop
      vertex -13.8 1.73205 0
      vertex -13.8 1.73205 3
      vertex -14.5321 1 3
    endloop
  endfacet
  facet normal 0.707107 -0.707107 0
    outer loop
      vertex -14.5321 1 0
      vertex -13.8 1.73205 0
      vertex -14.5321 1 3
    endloop
  endfacet
  facet normal 0.258819 -0.965926 0
    outer loop
      vertex -12.8 2 0
      vertex -12.8 2 3
      vertex -13.8 1.73205 3
    endloop
  endfacet
  facet normal 0.258819 -0.965926 0
    outer loop
      vertex -13.8 1.73205 0
      vertex -12.8 2 0
      vertex -13.8 1.73205 3
    endloop
  endfacet
  facet normal -0.258819 -0.965926 0
    outer loop
      vertex -11.8 1.73205 0
      vertex -11.8 1.73205 3
      vertex -12.8 2 3
    endloop
  endfacet
  facet normal -0.258819 -0.965926 0
    outer loop
      vertex -12.8 2 0
      vertex -11.8 1.73205 0
      vertex -12.8 2 3
    endloop
  endfacet
  facet normal -0.707107 -0.707107 0
    outer loop
      vertex -11.0679 1 0
      vertex -11.0679 1 3
      vertex -11.8 1.73205 3
    endloop
  endfacet
  facet normal -0.707107 -0.707107 0
    outer loop
      vertex -11.8 1.73205 0
      vertex -11.0679 1 0
      vertex -11.8 1.73205 3
    endloop
  endfacet
  facet normal -0.965926 -0.258819 0
    outer loop
      vertex -10.8 0 3
      vertex -11.0679 1 3
      vertex -10.8 0 0
    endloop
  endfacet
  facet normal -0.965926 -0.258819 0
    outer loop
      vertex -10.8 0 0
      vertex -11.0679 1 3
      vertex -11.0679 1 0
    endloop
  endfacet
  facet normal -0.965926 0.258819 0
    outer loop
      vertex -10.8 0 3
      vertex -10.8 0 0
      vertex -11.0679 -1 3
    endloop
  endfacet
  facet normal -0.965926 0.258819 0
    outer loop
      vertex -11.0679 -1 3
      vertex -10.8 0 0
      vertex -11.0679 -1 0
    endloop
  endfacet
  facet normal -0.707107 0.707107 0
    outer loop
      vertex -11.0679 -1 3
      vertex -11.0679 -1 0
      vertex -11.8 -1.73205 3
    endloop
  endfacet
  facet normal -0.707107 0.707107 0
    outer loop
      vertex -11.8 -1.73205 3
      vertex -11.0679 -1 0
      vertex -11.8 -1.73205 0
    endloop
  endfacet
  facet normal -0.258819 0.965926 0
    outer loop
      vertex -11.8 -1.73205 3
      vertex -11.8 -1.73205 0
      vertex -12.8 -2 3
    endloop
  endfacet
  facet normal -0.258819 0.965926 0
    outer loop
      vertex -12.8 -2 3
      vertex -11.8 -1.73205 0
      vertex -12.8 -2 0
    endloop
  endfacet
  facet normal 0.258819 0.965926 0
    outer loop
      vertex -12.8 -2 3
      vertex -12.8 -2 0
      vertex -13.8 -1.73205 3
    endloop
  endfacet
  facet normal 0.258819 0.965926 0
    outer loop
      vertex -13.8 -1.73205 3
      vertex -12.8 -2 0
      vertex -13.8 -1.73205 0
    endloop
  endfacet
  facet normal 0.707107 0.707107 0
    outer loop
      vertex -13.8 -1.73205 3
      vertex -13.8 -1.73205 0
      vertex -14.5321 -1 3
    endloop
  endfacet
  facet normal 0.707107 0.707107 0
    outer loop
      vertex -14.5321 -1 3
      vertex -13.8 -1.73205 0
      vertex -14.5321 -1 0
    endloop
  endfacet
  facet normal 0 0 1
    outer loop
      vertex -9.25 13 50
      vertex -18.325 10.5 50
      vertex -7.75 10.5 50
    endloop
  endfacet
  facet normal 0 0 1
    outer loop
      vertex -18.325 4 50
      vertex -18.325 10.5 50
      vertex -18.994 18.6525 50
    endloop
  endfacet
  facet normal 0 0 1
    outer loop
      vertex -9.25 16 50
      vertex -18.325 10.5 50
      vertex -9.25 13 50
    endloop
  endfacet
  facet normal 0 0 1
    outer loop
      vertex -4.47083 19.9708 50
      vertex -18.325 10.5 50
      vertex -9.25 16 50
    endloop
  endfacet
  facet normal 0 0 1
    outer loop
      vertex -3.75 19.25 50
      vertex -9.25 16 50
      vertex -7.25 16 50
    endloop
  endfacet
  facet normal 0 0 1
    outer loop
      vertex -4.5 15 50
      vertex -7.25 16 50
      vertex -7.25 15 50
    endloop
  endfacet
  facet normal 0 0 1
    outer loop
      vertex -3.75 15.75 50
      vertex -7.25 16 50
      vertex -4.5 15 50
    endloop
  endfacet
  facet normal 0 0 1
    outer loop
      vertex -3.75 19.25 50
      vertex -7.25 16 50
      vertex -3.75 15.75 50
    endloop
  endfacet
  facet normal 0 0 1
    outer loop
      vertex -4.47083 19.9708 50
      vertex -9.25 16 50
      vertex -3.75 19.25 50
    endloop
  endfacet
  facet normal 0 0 1
    outer loop
      vertex -15.5179 19.9708 50
      vertex -18.325 10.5 50
      vertex -4.47083 19.9708 50
    endloop
  endfacet
  facet normal 0 0 1
    outer loop
      vertex -17.4184 19.7401 50
      vertex -18.325 10.5 50
      vertex -15.5179 19.9708 50
    endloop
  endfacet
  facet normal 0 0 1
    outer loop
      vertex -18.994 18.6525 50
      vertex -18.325 10.5 50
      vertex -17.4184 19.7401 50
    endloop
  endfacet
  facet normal 0 0 1
    outer loop
      vertex -19.8838 16.9573 50
      vertex -18.325 4 50
      vertex -18.994 18.6525 50
    endloop
  endfacet
  facet normal 0 0 1
    outer loop
      vertex -19.8838 4 50
      vertex -18.325 4 50
      vertex -19.8838 16.9573 50
    endloop
  endfacet
  facet normal 0 -1 0
    outer loop
      vertex -19 4 20
      vertex -18.325 4 20
      vertex -18.325 4 50
    endloop
  endfacet
  facet normal 0 -1 0
    outer loop
      vertex -19.8838 4 20
      vertex -19 4 20
      vertex -19.8838 4 50
    endloop
  endfacet
  facet normal 0 -1 0
    outer loop
      vertex -19.8838 4 50
      vertex -19 4 20
      vertex -18.325 4 50
    endloop
  endfacet
  facet normal -2.89827e-17 -0.991445 0.130527
    outer loop
      vertex -18.325 3.8637 18.9647
      vertex -18.325 4 20
      vertex -19 4 20
    endloop
  endfacet
  facet normal -2.89827e-17 -0.991445 0.130527
    outer loop
      vertex -19.8838 3.8637 18.9647
      vertex -18.325 3.8637 18.9647
      vertex -19.8838 4 20
    endloop
  endfacet
  facet normal -2.89827e-17 -0.991445 0.130527
    outer loop
      vertex -19.8838 4 20
      vertex -18.325 3.8637 18.9647
      vertex -19 4 20
    endloop
  endfacet
  facet normal -8.49727e-17 -0.92388 0.382683
    outer loop
      vertex -18.325 3.4641 18
      vertex -18.325 3.8637 18.9647
      vertex -19.8838 3.8637 18.9647
    endloop
  endfacet
  facet normal -8.49727e-17 -0.92388 0.382683
    outer loop
      vertex -19.8838 3.4641 18
      vertex -18.325 3.4641 18
      vertex -19.8838 3.8637 18.9647
    endloop
  endfacet
  facet normal -1.35172e-16 -0.793353 0.608762
    outer loop
      vertex -18.325 2.82843 17.1716
      vertex -18.325 3.4641 18
      vertex -19.8838 3.4641 18
    endloop
  endfacet
  facet normal -1.35172e-16 -0.793353 0.608762
    outer loop
      vertex -19.8838 2.82843 17.1716
      vertex -18.325 2.82843 17.1716
      vertex -19.8838 3.4641 18
    endloop
  endfacet
  facet normal -1.7616e-16 -0.608762 0.793353
    outer loop
      vertex -18.325 2 16.5359
      vertex -18.325 2.82843 17.1716
      vertex -19.8838 2.82843 17.1716
    endloop
  endfacet
  facet normal -1.7616e-16 -0.608762 0.793353
    outer loop
      vertex -19.8838 2 16.5359
      vertex -18.325 2 16.5359
      vertex -19.8838 2.82843 17.1716
    endloop
  endfacet
  facet normal -2.05143e-16 -0.382683 0.92388
    outer loop
      vertex -18.325 1.03528 16.1363
      vertex -18.325 2 16.5359
      vertex -19.8838 2 16.5359
    endloop
  endfacet
  facet normal -2.05143e-16 -0.382683 0.92388
    outer loop
      vertex -19.8838 1.03528 16.1363
      vertex -18.325 1.03528 16.1363
      vertex -19.8838 2 16.5359
    endloop
  endfacet
  facet normal -2.20145e-16 -0.130527 0.991445
    outer loop
      vertex -18.325 0 16
      vertex -18.325 1.03528 16.1363
      vertex -19.8838 1.03528 16.1363
    endloop
  endfacet
  facet normal -2.20145e-16 -0.130527 0.991445
    outer loop
      vertex -19.8838 0 16
      vertex -18.325 0 16
      vertex -19.8838 1.03528 16.1363
    endloop
  endfacet
  facet normal -2.20145e-16 0.130527 0.991445
    outer loop
      vertex -18.325 -1.03528 16.1363
      vertex -18.325 0 16
      vertex -19.8838 0 16
    endloop
  endfacet
  facet normal -2.20145e-16 0.130527 0.991445
    outer loop
      vertex -19.8838 -1.03528 16.1363
      vertex -18.325 -1.03528 16.1363
      vertex -19.8838 0 16
    endloop
  endfacet
  facet normal -2.05143e-16 0.382683 0.92388
    outer loop
      vertex -18.325 -2 16.5359
      vertex -18.325 -1.03528 16.1363
      vertex -19.8838 -1.03528 16.1363
    endloop
  endfacet
  facet normal -2.05143e-16 0.382683 0.92388
    outer loop
      vertex -19.8838 -2 16.5359
      vertex -18.325 -2 16.5359
      vertex -19.8838 -1.03528 16.1363
    endloop
  endfacet
  facet normal -1.7616e-16 0.608762 0.793353
    outer loop
      vertex -18.325 -2.82843 17.1716
      vertex -18.325 -2 16.5359
      vertex -19.8838 -2 16.5359
    endloop
  endfacet
  facet normal -1.7616e-16 0.608762 0.793353
    outer loop
      vertex -19.8838 -2.82843 17.1716
      vertex -18.325 -2.82843 17.1716
      vertex -19.8838 -2 16.5359
    endloop
  endfacet
  facet normal -1.35172e-16 0.793353 0.608762
    outer loop
      vertex -18.325 -2.82843 17.1716
      vertex -19.8838 -2.82843 17.1716
      vertex -18.325 -3.4641 18
    endloop
  endfacet
  facet normal -1.35172e-16 0.793353 0.608762
    outer loop
      vertex -18.325 -3.4641 18
      vertex -19.8838 -2.82843 17.1716
      vertex -19.8838 -3.4641 18
    endloop
  endfacet
  facet normal -8.49727e-17 0.92388 0.382683
    outer loop
      vertex -18.325 -3.4641 18
      vertex -19.8838 -3.4641 18
      vertex -18.325 -3.8637 18.9647
    endloop
  endfacet
  facet normal -8.49727e-17 0.92388 0.382683
    outer loop
      vertex -18.325 -3.8637 18.9647
      vertex -19.8838 -3.4641 18
      vertex -19.8838 -3.8637 18.9647
    endloop
  endfacet
  facet normal -2.89827e-17 0.991445 0.130527
    outer loop
      vertex -18.325 -4 20
      vertex -18.325 -3.8637 18.9647
      vertex -19 -4 20
    endloop
  endfacet
  facet normal -2.89827e-17 0.991445 0.130527
    outer loop
      vertex -19 -4 20
      vertex -18.325 -3.8637 18.9647
      vertex -19.8838 -3.8637 18.9647
    endloop
  endfacet
  facet normal -2.89827e-17 0.991445 0.130527
    outer loop
      vertex -19 -4 20
      vertex -19.8838 -3.8637 18.9647
      vertex -19.8838 -4 20
    endloop
  endfacet
  facet normal 0 1 0
    outer loop
      vertex -18.325 -4 50
      vertex -18.325 -4 20
      vertex -19.8838 -4 50
    endloop
  endfacet
  facet normal 0 1 0
    outer loop
      vertex -19.8838 -4 50
      vertex -18.325 -4 20
      vertex -19 -4 20
    endloop
  endfacet
  facet normal 0 1 0
    outer loop
      vertex -19.8838 -4 50
      vertex -19 -4 20
      vertex -19.8838 -4 20
    endloop
  endfacet
  facet normal 1 0 0
    outer loop
      vertex -18.325 10.5 3
      vertex -18.325 10.5 50
      vertex -18.325 4 50
    endloop
  endfacet
  facet normal 1 0 0
    outer loop
      vertex -18.325 4 20
      vertex -18.325 10.5 3
      vertex -18.325 4 50
    endloop
  endfacet
  facet normal 1 0 0
    outer loop
      vertex -18.325 3.8637 18.9647
      vertex -18.325 10.5 3
      vertex -18.325 4 20
    endloop
  endfacet
  facet normal 1 0 0
    outer loop
      vertex -18.325 3.4641 18
      vertex -18.325 10.5 3
      vertex -18.325 3.8637 18.9647
    endloop
  endfacet
  facet normal 1 0 0
    outer loop
      vertex -18.325 2.82843 17.1716
      vertex -18.325 10.5 3
      vertex -18.325 3.4641 18
    endloop
  endfacet
  facet normal 1 0 0
    outer loop
      vertex -18.325 2 16.5359
      vertex -18.325 10.5 3
      vertex -18.325 2.82843 17.1716
    endloop
  endfacet
  facet normal 1 0 0
    outer loop
      vertex -18.325 1.03528 16.1363
      vertex -18.325 10.5 3
      vertex -18.325 2 16.5359
    endloop
  endfacet
  facet normal 1 0 0
    outer loop
      vertex -18.325 0 16
      vertex -18.325 10.5 3
      vertex -18.325 1.03528 16.1363
    endloop
  endfacet
  facet normal 1 0 0
    outer loop
      vertex -18.325 -1.03528 16.1363
      vertex -18.325 10.5 3
      vertex -18.325 0 16
    endloop
  endfacet
  facet normal 1 0 0
    outer loop
      vertex -18.325 -2 16.5359
      vertex -18.325 10.5 3
      vertex -18.325 -1.03528 16.1363
    endloop
  endfacet
  facet normal 1 0 0
    outer loop
      vertex -18.325 -2.82843 17.1716
      vertex -18.325 10.5 3
      vertex -18.325 -2 16.5359
    endloop
  endfacet
  facet normal 1 0 0
    outer loop
      vertex -18.325 -10.5 3
      vertex -18.325 10.5 3
      vertex -18.325 -2.82843 17.1716
    endloop
  endfacet
  facet normal 1 0 0
    outer loop
      vertex -18.325 -10.5 3
      vertex -18.325 -2.82843 17.1716
      vertex -18.325 -3.4641 18
    endloop
  endfacet
  facet normal 1 0 0
    outer loop
      vertex -18.325 -10.5 3
      vertex -18.325 -3.4641 18
      vertex -18.325 -3.8637 18.9647
    endloop
  endfacet
  facet normal 1 0 0
    outer loop
      vertex -18.325 -10.5 50
      vertex -18.325 -3.8637 18.9647
      vertex -18.325 -4 20
    endloop
  endfacet
  facet normal 1 0 0
    outer loop
      vertex -18.325 -10.5 50
      vertex -18.325 -4 20
      vertex -18.325 -4 50
    endloop
  endfacet
  facet normal 1 0 0
    outer loop
      vertex -18.325 -10.5 3
      vertex -18.325 -3.8637 18.9647
      vertex -18.325 -10.5 50
    endloop
  endfacet
  facet normal 0 1 0
    outer loop
      vertex -7.75 -10.5 50
      vertex -7.75 -10.5 60
      vertex 7.75 -10.5 60
    endloop
  endfacet
  facet normal 0 1 0
    outer loop
      vertex -7.75 -10.5 50
      vertex 7.75 -10.5 60
      vertex -7.2 -10.5 50
    endloop
  endfacet
  facet normal 0 1 0
    outer loop
      vertex 7.75 -10.5 50
      vertex 8.425 -10.5 50
      vertex 8.425 -10.5 3
    endloop
  endfacet
  facet normal 0 1 0
    outer loop
      vertex -7.2 -10.5 3
      vertex -7.75 -10.5 50
      vertex -7.2 -10.5 50
    endloop
  endfacet
  facet normal 0 1 0
    outer loop
      vertex 7.75 -10.5 50
      vertex 8.425 -10.5 3
      vertex -2.7 -10.5 50
    endloop
  endfacet
  facet normal 0 1 0
    outer loop
      vertex 7.75 -10.5 50
      vertex -2.7 -10.5 50
      vertex 7.75 -10.5 60
    endloop
  endfacet
  facet normal 0 1 0
    outer loop
      vertex -7.2 -10.5 3
      vertex -18.325 -10.5 50
      vertex -7.75 -10.5 50
    endloop
  endfacet
  facet normal 0 1 0
    outer loop
      vertex -2.7 -10.5 50
      vertex -7.2 -10.5 50
      vertex 7.75 -10.5 60
    endloop
  endfacet
  facet normal 0 1 0
    outer loop
      vertex -7.2 -10.5 3
      vertex -18.325 -10.5 3
      vertex -18.325 -10.5 50
    endloop
  endfacet
  facet normal 0 1 0
    outer loop
      vertex -2.7 -10.5 50
      vertex 8.425 -10.5 3
      vertex -2.7 -10.5 3
    endloop
  endfacet
  facet normal -0.857493 0.514496 0
    outer loop
      vertex -9.25 -13 50
      vertex -9.25 -13 60
      vertex -7.75 -10.5 50
    endloop
  endfacet
  facet normal -0.857493 0.514496 0
    outer loop
      vertex -7.75 -10.5 50
      vertex -9.25 -13 60
      vertex -7.75 -10.5 60
    endloop
  endfacet
  facet normal -1 0 0
    outer loop
      vertex -9.25 -16 50
      vertex -9.25 -16 60
      vertex -9.25 -13 50
    endloop
  endfacet
  facet normal -1 0 0
    outer loop
      vertex -9.25 -13 50
      vertex -9.25 -16 60
      vertex -9.25 -13 60
    endloop
  endfacet
  facet normal 0 -1 0
    outer loop
      vertex -9.25 -16 60
      vertex -9.25 -16 50
      vertex -7.25 -16 50
    endloop
  endfacet
  facet normal 0 -1 0
    outer loop
      vertex -7.25 -16 60
      vertex -9.25 -16 60
      vertex -7.25 -16 50
    endloop
  endfacet
  facet normal 1 0 0
    outer loop
      vertex -7.25 -16 60
      vertex -7.25 -16 50
      vertex -7.25 -15 50
    endloop
  endfacet
  facet normal 1 0 0
    outer loop
      vertex -7.25 -15 60
      vertex -7.25 -16 60
      vertex -7.25 -15 50
    endloop
  endfacet
  facet normal 0 -1 0
    outer loop
      vertex -7.25 -15 60
      vertex -7.25 -15 50
      vertex -4.5 -15 50
    endloop
  endfacet
  facet normal 0 -1 0
    outer loop
      vertex -4.5 -15 60
      vertex -7.25 -15 60
      vertex -4.5 -15 50
    endloop
  endfacet
  facet normal -0.707107 -0.707107 0
    outer loop
      vertex -4.5 -15 60
      vertex -4.5 -15 50
      vertex -3.75 -15.75 50
    endloop
  endfacet
  facet normal -0.707107 -0.707107 0
    outer loop
      vertex -3.75 -15.75 60
      vertex -4.5 -15 60
      vertex -3.75 -15.75 50
    endloop
  endfacet
  facet normal -1 0 0
    outer loop
      vertex -3.75 -19.25 50
      vertex -3.75 -19.25 60
      vertex -3.75 -15.75 50
    endloop
  endfacet
  facet normal -1 0 0
    outer loop
      vertex -3.75 -15.75 50
      vertex -3.75 -19.25 60
      vertex -3.75 -15.75 60
    endloop
  endfacet
  facet normal -0.707107 0.707107 0
    outer loop
      vertex -4.47083 -19.9708 50
      vertex -4.47083 -19.9708 60
      vertex -3.75 -19.25 50
    endloop
  endfacet
  facet normal -0.707107 0.707107 0
    outer loop
      vertex -3.75 -19.25 50
      vertex -4.47083 -19.9708 60
      vertex -3.75 -19.25 60
    endloop
  endfacet
  facet normal 0 0 1
    outer loop
      vertex 3.75 -19.25 60
      vertex 3.75 -15.75 60
      vertex -4.5 -15 60
    endloop
  endfacet
  facet normal 0 0 1
    outer loop
      vertex -9.25 -13 60
      vertex -9.25 -16 60
      vertex -7.25 -16 60
    endloop
  endfacet
  facet normal 0 0 1
    outer loop
      vertex -4.5 -15 60
      vertex -9.25 -13 60
      vertex -7.25 -15 60
    endloop
  endfacet
  facet normal 0 0 1
    outer loop
      vertex -7.25 -15 60
      vertex -9.25 -13 60
      vertex -7.25 -16 60
    endloop
  endfacet
  facet normal 0 0 1
    outer loop
      vertex 3.75 -15.75 60
      vertex -9.25 -13 60
      vertex -4.5 -15 60
    endloop
  endfacet
  facet normal 0 0 1
    outer loop
      vertex 4.47083 -19.9708 60
      vertex -4.5 -15 60
      vertex -3.75 -15.75 60
    endloop
  endfacet
  facet normal 0 0 1
    outer loop
      vertex 4.47083 -19.9708 60
      vertex -3.75 -15.75 60
      vertex -3.75 -19.25 60
    endloop
  endfacet
  facet normal 0 0 1
    outer loop
      vertex -4.47083 -19.9708 60
      vertex 4.47083 -19.9708 60
      vertex -3.75 -19.25 60
    endloop
  endfacet
  facet normal 0 0 1
    outer loop
      vertex 4.47083 -19.9708 60
      vertex 3.75 -19.25 60
      vertex -4.5 -15 60
    endloop
  endfacet
  facet normal 0 0 1
    outer loop
      vertex 4.5 -15 60
      vertex 7.25 -15 60
      vertex -9.25 -13 60
    endloop
  endfacet
  facet normal 0 0 1
    outer loop
      vertex 7.25 -15 60
      vertex 9.25 -13 60
      vertex -9.25 -13 60
    endloop
  endfacet
  facet normal 0 0 1
    outer loop
      vertex 3.75 -15.75 60
      vertex 4.5 -15 60
      vertex -9.25 -13 60
    endloop
  endfacet
  facet normal 0 0 1
    outer loop
      vertex 7.25 -16 60
      vertex 9.25 -16 60
      vertex 7.25 -15 60
    endloop
  endfacet
  facet normal 0 0 1
    outer loop
      vertex 9.25 -16 60
      vertex 9.25 -13 60
      vertex 7.25 -15 60
    endloop
  endfacet
  facet normal 0 0 1
    outer loop
      vertex 9.25 -13 60
      vertex 7.75 -10.5 60
      vertex -9.25 -13 60
    endloop
  endfacet
  facet normal 0 0 1
    outer loop
      vertex 7.75 -10.5 60
      vertex -7.75 -10.5 60
      vertex -9.25 -13 60
    endloop
  endfacet
  facet normal 0.707107 0.707107 0
    outer loop
      vertex 3.75 -19.25 50
      vertex 3.75 -19.25 60
      vertex 4.47083 -19.9708 50
    endloop
  endfacet
  facet normal 0.707107 0.707107 0
    outer loop
      vertex 4.47083 -19.9708 50
      vertex 3.75 -19.25 60
      vertex 4.47083 -19.9708 60
    endloop
  endfacet
  facet normal 0 0 1
    outer loop
      vertex 4.47083 -19.9708 50
      vertex 16.4821 -19.9708 50
      vertex 18.2723 -19.2919 50
    endloop
  endfacet
  facet normal 0 0 1
    outer loop
      vertex 20 -16 50
      vertex 4.47083 -19.9708 50
      vertex 19.5418 -17.8589 50
    endloop
  endfacet
  facet normal 0 0 1
    outer loop
      vertex 19.5418 -17.8589 50
      vertex 4.47083 -19.9708 50
      vertex 18.2723 -19.2919 50
    endloop
  endfacet
  facet normal 0 0 1
    outer loop
      vertex 9.25 -16 50
      vertex 4.47083 -19.9708 50
      vertex 20 -16 50
    endloop
  endfacet
  facet normal 0 0 1
    outer loop
      vertex 7.25 -16 50
      vertex 7.25 -15 50
      vertex 4.47083 -19.9708 50
    endloop
  endfacet
  facet normal 0 0 1
    outer loop
      vertex 13 -9.25 50
      vertex 10.5 -7.75 50
      vertex 9.25 -13 50
    endloop
  endfacet
  facet normal 0 0 1
    outer loop
      vertex 15.75 -3.75 50
      vertex 15 -7.25 50
      vertex 19.25 -3.75 50
    endloop
  endfacet
  facet normal 0 0 1
    outer loop
      vertex 15 -7.25 50
      vertex 16 -7.25 50
      vertex 19.25 -3.75 50
    endloop
  endfacet
  facet normal 0 0 1
    outer loop
      vertex 20 -4.5 50
      vertex 16 -9.25 50
      vertex 20 -16 50
    endloop
  endfacet
  facet normal 0 0 1
    outer loop
      vertex 9.25 -16 50
      vertex 7.25 -16 50
      vertex 4.47083 -19.9708 50
    endloop
  endfacet
  facet normal 0 0 1
    outer loop
      vertex 7.25 -15 50
      vertex 4.5 -15 50
      vertex 4.47083 -19.9708 50
    endloop
  endfacet
  facet normal 0 0 1
    outer loop
      vertex 9.25 -13 50
      vertex 16 -9.25 50
      vertex 13 -9.25 50
    endloop
  endfacet
  facet normal 0 0 1
    outer loop
      vertex 8.425 -5.21389 50
      vertex 8.425 -10.5 50
      vertex 10.5 -7.75 50
    endloop
  endfacet
  facet normal 0 0 1
    outer loop
      vertex 9.25 -13 50
      vertex 9.25 -16 50
      vertex 16 -9.25 50
    endloop
  endfacet
  facet normal 0 0 1
    outer loop
      vertex 8.425 -10.5 50
      vertex 9.25 -13 50
      vertex 10.5 -7.75 50
    endloop
  endfacet
  facet normal 0 0 1
    outer loop
      vertex 16 -9.25 50
      vertex 9.25 -16 50
      vertex 20 -16 50
    endloop
  endfacet
  facet normal 0 0 1
    outer loop
      vertex 16 -7.25 50
      vertex 20 -4.5 50
      vertex 19.25 -3.75 50
    endloop
  endfacet
  facet normal 0 0 1
    outer loop
      vertex 16 -7.25 50
      vertex 16 -9.25 50
      vertex 20 -4.5 50
    endloop
  endfacet
  facet normal 0 0 1
    outer loop
      vertex 3.75 -15.75 50
      vertex 4.47083 -19.9708 50
      vertex 4.5 -15 50
    endloop
  endfacet
  facet normal 0 0 1
    outer loop
      vertex 3.75 -19.25 50
      vertex 4.47083 -19.9708 50
      vertex 3.75 -15.75 50
    endloop
  endfacet
  facet normal 0 0 1
    outer loop
      vertex 7.75 -10.5 50
      vertex 9.25 -13 50
      vertex 8.425 -10.5 50
    endloop
  endfacet
  facet normal 0 0 1
    outer loop
      vertex 15 -4.5 50
      vertex 15 -7.25 50
      vertex 15.75 -3.75 50
    endloop
  endfacet
  facet normal -0.707107 -0.707107 0
    outer loop
      vertex 19.25 -3.75 50
      vertex 20 -4.5 50
      vertex 19.25 -3.75 60
    endloop
  endfacet
  facet normal -0.707107 -0.707107 0
    outer loop
      vertex 19.25 -3.75 60
      vertex 20 -4.5 50
      vertex 20 -4.5 60
    endloop
  endfacet
  facet normal 0 0 1
    outer loop
      vertex 8.425 5.21389 60
      vertex 8.425 -5.21389 60
      vertex 10.5 -7.75 60
    endloop
  endfacet
  facet normal 0 0 1
    outer loop
      vertex 16 -9.25 60
      vertex 8.425 5.21389 60
      vertex 13 -9.25 60
    endloop
  endfacet
  facet normal 0 0 1
    outer loop
      vertex 13 -9.25 60
      vertex 8.425 5.21389 60
      vertex 10.5 -7.75 60
    endloop
  endfacet
  facet normal 0 0 1
    outer loop
      vertex 15 -7.25 60
      vertex 8.425 5.21389 60
      vertex 16 -9.25 60
    endloop
  endfacet
  facet normal 0 0 1
    outer loop
      vertex 16 -7.25 60
      vertex 15 -7.25 60
      vertex 16 -9.25 60
    endloop
  endfacet
  facet normal 0 0 1
    outer loop
      vertex 15.75 3.75 60
      vertex 15 4.5 60
      vertex 8.425 5.21389 60
    endloop
  endfacet
  facet normal 0 0 1
    outer loop
      vertex 15.75 -3.75 60
      vertex 8.425 5.21389 60
      vertex 15 -4.5 60
    endloop
  endfacet
  facet normal 0 0 1
    outer loop
      vertex 19.25 -3.75 60
      vertex 8.425 5.21389 60
      vertex 15.75 -3.75 60
    endloop
  endfacet
  facet normal 0 0 1
    outer loop
      vertex 15.75 3.75 60
      vertex 8.425 5.21389 60
      vertex 19.25 -3.75 60
    endloop
  endfacet
  facet normal 0 0 1
    outer loop
      vertex 20 4.5 60
      vertex 19.25 -3.75 60
      vertex 20 -4.5 60
    endloop
  endfacet
  facet normal 0 0 1
    outer loop
      vertex 20 4.5 60
      vertex 19.25 3.75 60
      vertex 19.25 -3.75 60
    endloop
  endfacet
  facet normal 0 0 1
    outer loop
      vertex 19.25 3.75 60
      vertex 15.75 3.75 60
      vertex 19.25 -3.75 60
    endloop
  endfacet
  facet normal 0 0 1
    outer loop
      vertex 15 4.5 60
      vertex 15 7.25 60
      vertex 8.425 5.21389 60
    endloop
  endfacet
  facet normal 0 0 1
    outer loop
      vertex 16 9.25 60
      vertex 8.425 5.21389 60
      vertex 15 7.25 60
    endloop
  endfacet
  facet normal 0 0 1
    outer loop
      vertex 16 9.25 60
      vertex 15 7.25 60
      vertex 16 7.25 60
    endloop
  endfacet
  facet normal 0 0 1
    outer loop
      vertex 13 9.25 60
      vertex 8.425 5.21389 60
      vertex 16 9.25 60
    endloop
  endfacet
  facet normal 0 0 1
    outer loop
      vertex 10.5 7.75 60
      vertex 8.425 5.21389 60
      vertex 13 9.25 60
    endloop
  endfacet
  facet normal 0 0 1
    outer loop
      vertex 15 -7.25 60
      vertex 15 -4.5 60
      vertex 8.425 5.21389 60
    endloop
  endfacet
  facet normal -0.707107 0.707107 0
    outer loop
      vertex 19.25 3.75 50
      vertex 19.25 3.75 60
      vertex 20 4.5 50
    endloop
  endfacet
  facet normal -0.707107 0.707107 0
    outer loop
      vertex 20 4.5 50
      vertex 19.25 3.75 60
      vertex 20 4.5 60
    endloop
  endfacet
  facet normal 0 0 1
    outer loop
      vertex 9.25 16 50
      vertex 20 16 50
      vertex 7.25 16 50
    endloop
  endfacet
  facet normal 0 0 1
    outer loop
      vertex 4.5 15 50
      vertex 7.25 15 50
      vertex 7.25 16 50
    endloop
  endfacet
  facet normal 0 0 1
    outer loop
      vertex 9.25 13 50
      vertex 10.5 7.75 50
      vertex 9.25 16 50
    endloop
  endfacet
  facet normal 0 0 1
    outer loop
      vertex 16.4821 19.9708 50
      vertex 4.5 15 50
      vertex 7.25 16 50
    endloop
  endfacet
  facet normal 0 0 1
    outer loop
      vertex 9.25 13 50
      vertex 8.425 10.5 50
      vertex 8.425 5.21389 50
    endloop
  endfacet
  facet normal 0 0 1
    outer loop
      vertex 9.25 13 50
      vertex 7.75 10.5 50
      vertex 8.425 10.5 50
    endloop
  endfacet
  facet normal 0 0 1
    outer loop
      vertex 9.25 16 50
      vertex 10.5 7.75 50
      vertex 13 9.25 50
    endloop
  endfacet
  facet normal 0 0 1
    outer loop
      vertex 9.25 13 50
      vertex 8.425 5.21389 50
      vertex 10.5 7.75 50
    endloop
  endfacet
  facet normal 0 0 1
    outer loop
      vertex 9.25 16 50
      vertex 13 9.25 50
      vertex 16 9.25 50
    endloop
  endfacet
  facet normal 0 0 1
    outer loop
      vertex 9.25 16 50
      vertex 16 9.25 50
      vertex 20 16 50
    endloop
  endfacet
  facet normal 0 0 1
    outer loop
      vertex 16 9.25 50
      vertex 16 7.25 50
      vertex 19.25 3.75 50
    endloop
  endfacet
  facet normal 0 0 1
    outer loop
      vertex 16 7.25 50
      vertex 15 4.5 50
      vertex 15.75 3.75 50
    endloop
  endfacet
  facet normal 0 0 1
    outer loop
      vertex 16 7.25 50
      vertex 15.75 3.75 50
      vertex 19.25 3.75 50
    endloop
  endfacet
  facet normal 0 0 1
    outer loop
      vertex 16 9.25 50
      vertex 19.25 3.75 50
      vertex 20 4.5 50
    endloop
  endfacet
  facet normal 0 0 1
    outer loop
      vertex 16 9.25 50
      vertex 20 4.5 50
      vertex 20 16 50
    endloop
  endfacet
  facet normal 0 0 1
    outer loop
      vertex 7.25 16 50
      vertex 20 16 50
      vertex 19.5418 17.8589 50
    endloop
  endfacet
  facet normal 0 0 1
    outer loop
      vertex 7.25 16 50
      vertex 19.5418 17.8589 50
      vertex 18.2723 19.2919 50
    endloop
  endfacet
  facet normal 0 0 1
    outer loop
      vertex 7.25 16 50
      vertex 18.2723 19.2919 50
      vertex 16.4821 19.9708 50
    endloop
  endfacet
  facet normal 0 0 1
    outer loop
      vertex 4.5 15 50
      vertex 16.4821 19.9708 50
      vertex 4.47084 19.9708 50
    endloop
  endfacet
  facet normal 0 0 1
    outer loop
      vertex 4.5 15 50
      vertex 4.47084 19.9708 50
      vertex 3.75 19.25 50
    endloop
  endfacet
  facet normal 0 0 1
    outer loop
      vertex 4.5 15 50
      vertex 3.75 19.25 50
      vertex 3.75 15.75 50
    endloop
  endfacet
  facet normal 0 0 1
    outer loop
      vertex 15 7.25 50
      vertex 15 4.5 50
      vertex 16 7.25 50
    endloop
  endfacet
  facet normal 0.707107 -0.707107 0
    outer loop
      vertex 3.75 19.25 60
      vertex 3.75 19.25 50
      vertex 4.47084 19.9708 50
    endloop
  endfacet
  facet normal 0.707107 -0.707107 0
    outer loop
      vertex 4.47084 19.9708 60
      vertex 3.75 19.25 60
      vertex 4.47084 19.9708 50
    endloop
  endfacet
  facet normal 0 0 1
    outer loop
      vertex -9.25 16 60
      vertex -9.25 13 60
      vertex -7.75 10.5 60
    endloop
  endfacet
  facet normal 0 0 1
    outer loop
      vertex -7.25 15 60
      vertex -9.25 16 60
      vertex -7.75 10.5 60
    endloop
  endfacet
  facet normal 0 0 1
    outer loop
      vertex -4.5 15 60
      vertex -7.25 15 60
      vertex 7.75 10.5 60
    endloop
  endfacet
  facet normal 0 0 1
    outer loop
      vertex -3.75 15.75 60
      vertex 9.25 13 60
      vertex 4.5 15 60
    endloop
  endfacet
  facet normal 0 0 1
    outer loop
      vertex 9.25 16 60
      vertex 7.25 16 60
      vertex 9.25 13 60
    endloop
  endfacet
  facet normal 0 0 1
    outer loop
      vertex 7.25 16 60
      vertex 7.25 15 60
      vertex 9.25 13 60
    endloop
  endfacet
  facet normal 0 0 1
    outer loop
      vertex -3.75 15.75 60
      vertex -4.5 15 60
      vertex 9.25 13 60
    endloop
  endfacet
  facet normal 0 0 1
    outer loop
      vertex 7.25 15 60
      vertex 4.5 15 60
      vertex 9.25 13 60
    endloop
  endfacet
  facet normal 0 0 1
    outer loop
      vertex 4.47084 19.9708 60
      vertex -4.47083 19.9708 60
      vertex -3.75 19.25 60
    endloop
  endfacet
  facet normal 0 0 1
    outer loop
      vertex 9.25 13 60
      vertex -4.5 15 60
      vertex 7.75 10.5 60
    endloop
  endfacet
  facet normal 0 0 1
    outer loop
      vertex 7.75 10.5 60
      vertex -7.25 15 60
      vertex -7.75 10.5 60
    endloop
  endfacet
  facet normal 0 0 1
    outer loop
      vertex -7.25 15 60
      vertex -7.25 16 60
      vertex -9.25 16 60
    endloop
  endfacet
  facet normal 0 0 1
    outer loop
      vertex 4.5 15 60
      vertex 3.75 15.75 60
      vertex -3.75 15.75 60
    endloop
  endfacet
  facet normal 0 0 1
    outer loop
      vertex -3.75 19.25 60
      vertex 3.75 19.25 60
      vertex 4.47084 19.9708 60
    endloop
  endfacet
  facet normal 0 0 1
    outer loop
      vertex -3.75 19.25 60
      vertex 3.75 15.75 60
      vertex 3.75 19.25 60
    endloop
  endfacet
  facet normal 0 0 1
    outer loop
      vertex -3.75 19.25 60
      vertex -3.75 15.75 60
      vertex 3.75 15.75 60
    endloop
  endfacet
  facet normal -0.707107 -0.707107 0
    outer loop
      vertex -4.47083 19.9708 50
      vertex -3.75 19.25 50
      vertex -4.47083 19.9708 60
    endloop
  endfacet
  facet normal -0.707107 -0.707107 0
    outer loop
      vertex -4.47083 19.9708 60
      vertex -3.75 19.25 50
      vertex -3.75 19.25 60
    endloop
  endfacet
  facet normal 0 0 1
    outer loop
      vertex 8.425 10.5 3
      vertex -7.2 -4.8 3
      vertex -2.7 -4.8 3
    endloop
  endfacet
  facet normal 0 0 1
    outer loop
      vertex -11.0679 1 3
      vertex -10.8 0 3
      vertex -7.2 -4.8 3
    endloop
  endfacet
  facet normal 0 0 1
    outer loop
      vertex -2.7 -10.5 3
      vertex 8.425 -10.5 3
      vertex -2.7 -4.8 3
    endloop
  endfacet
  facet normal 0 0 1
    outer loop
      vertex 8.425 -10.5 3
      vertex 8.425 10.5 3
      vertex -2.7 -4.8 3
    endloop
  endfacet
  facet normal 0 0 1
    outer loop
      vertex 8.425 10.5 3
      vertex -2.7 4.8 3
      vertex -7.2 -4.8 3
    endloop
  endfacet
  facet normal 0 0 1
    outer loop
      vertex 8.425 10.5 3
      vertex -2.7 10.5 3
      vertex -2.7 4.8 3
    endloop
  endfacet
  facet normal 0 0 1
    outer loop
      vertex -7.2 10.5 3
      vertex -18.325 10.5 3
      vertex -7.2 4.8 3
    endloop
  endfacet
  facet normal 0 0 1
    outer loop
      vertex -13.8 -1.73205 3
      vertex -18.325 -10.5 3
      vertex -7.2 -10.5 3
    endloop
  endfacet
  facet normal 0 0 1
    outer loop
      vertex -18.325 10.5 3
      vertex -18.325 -10.5 3
      vertex -14.8 0 3
    endloop
  endfacet
  facet normal 0 0 1
    outer loop
      vertex -12.8 -2 3
      vertex -13.8 -1.73205 3
      vertex -7.2 -10.5 3
    endloop
  endfacet
  facet normal 0 0 1
    outer loop
      vertex -18.325 10.5 3
      vertex -14.8 0 3
      vertex -14.5321 1 3
    endloop
  endfacet
  facet normal 0 0 1
    outer loop
      vertex -12.8 2 3
      vertex -11.8 1.73205 3
      vertex -18.325 10.5 3
    endloop
  endfacet
  facet normal 0 0 1
    outer loop
      vertex -18.325 10.5 3
      vertex -14.5321 1 3
      vertex -13.8 1.73205 3
    endloop
  endfacet
  facet normal 0 0 1
    outer loop
      vertex -10.8 0 3
      vertex -11.0679 -1 3
      vertex -7.2 -4.8 3
    endloop
  endfacet
  facet normal 0 0 1
    outer loop
      vertex -7.2 4.8 3
      vertex -18.325 10.5 3
      vertex -11.8 1.73205 3
    endloop
  endfacet
  facet normal 0 0 1
    outer loop
      vertex -7.2 4.8 3
      vertex -11.0679 1 3
      vertex -7.2 -4.8 3
    endloop
  endfacet
  facet normal 0 0 1
    outer loop
      vertex -7.2 4.8 3
      vertex -11.8 1.73205 3
      vertex -11.0679 1 3
    endloop
  endfacet
  facet normal 0 0 1
    outer loop
      vertex -11.8 -1.73205 3
      vertex -12.8 -2 3
      vertex -7.2 -10.5 3
    endloop
  endfacet
  facet normal 0 0 1
    outer loop
      vertex -11.0679 -1 3
      vertex -11.8 -1.73205 3
      vertex -7.2 -10.5 3
    endloop
  endfacet
  facet normal 0 0 1
    outer loop
      vertex -7.2 -10.5 3
      vertex -7.2 -4.8 3
      vertex -11.0679 -1 3
    endloop
  endfacet
  facet normal 0 0 1
    outer loop
      vertex -14.5321 -1 3
      vertex -18.325 -10.5 3
      vertex -13.8 -1.73205 3
    endloop
  endfacet
  facet normal 0 0 1
    outer loop
      vertex -14.8 0 3
      vertex -18.325 -10.5 3
      vertex -14.5321 -1 3
    endloop
  endfacet
  facet normal 0 0 1
    outer loop
      vertex -2.7 4.8 3
      vertex -7.2 4.8 3
      vertex -7.2 -4.8 3
    endloop
  endfacet
  facet normal 0 0 1
    outer loop
      vertex -13.8 1.73205 3
      vertex -12.8 2 3
      vertex -18.325 10.5 3
    endloop
  endfacet
  facet normal -1 1.22465e-16 0
    outer loop
      vertex -3.75 15.75 50
      vertex -3.75 15.75 60
      vertex -3.75 19.25 50
    endloop
  endfacet
  facet normal -1 1.22465e-16 0
    outer loop
      vertex -3.75 19.25 50
      vertex -3.75 15.75 60
      vertex -3.75 19.25 60
    endloop
  endfacet
  facet normal -0.707107 0.707107 0
    outer loop
      vertex -4.5 15 50
      vertex -4.5 15 60
      vertex -3.75 15.75 50
    endloop
  endfacet
  facet normal -0.707107 0.707107 0
    outer loop
      vertex -3.75 15.75 50
      vertex -4.5 15 60
      vertex -3.75 15.75 60
    endloop
  endfacet
  facet normal 1.22465e-16 1 0
    outer loop
      vertex -7.25 15 50
      vertex -7.25 15 60
      vertex -4.5 15 50
    endloop
  endfacet
  facet normal 1.22465e-16 1 0
    outer loop
      vertex -4.5 15 50
      vertex -7.25 15 60
      vertex -4.5 15 60
    endloop
  endfacet
  facet normal 1 -1.22465e-16 0
    outer loop
      vertex -7.25 15 60
      vertex -7.25 15 50
      vertex -7.25 16 50
    endloop
  endfacet
  facet normal 1 -1.22465e-16 0
    outer loop
      vertex -7.25 16 60
      vertex -7.25 15 60
      vertex -7.25 16 50
    endloop
  endfacet
  facet normal 1.22465e-16 1 0
    outer loop
      vertex -9.25 16 50
      vertex -9.25 16 60
      vertex -7.25 16 50
    endloop
  endfacet
  facet normal 1.22465e-16 1 0
    outer loop
      vertex -7.25 16 50
      vertex -9.25 16 60
      vertex -7.25 16 60
    endloop
  endfacet
  facet normal -1 1.22465e-16 0
    outer loop
      vertex -9.25 13 50
      vertex -9.25 13 60
      vertex -9.25 16 50
    endloop
  endfacet
  facet normal -1 1.22465e-16 0
    outer loop
      vertex -9.25 16 50
      vertex -9.25 13 60
      vertex -9.25 16 60
    endloop
  endfacet
  facet normal -0.857493 -0.514496 0
    outer loop
      vertex -9.25 13 50
      vertex -7.75 10.5 50
      vertex -9.25 13 60
    endloop
  endfacet
  facet normal -0.857493 -0.514496 0
    outer loop
      vertex -9.25 13 60
      vertex -7.75 10.5 50
      vertex -7.75 10.5 60
    endloop
  endfacet
  facet normal 0 -1 0
    outer loop
      vertex 7.75 10.5 60
      vertex -7.2 10.5 50
      vertex -2.7 10.5 50
    endloop
  endfacet
  facet normal 0 -1 0
    outer loop
      vertex 7.75 10.5 50
      vertex 7.75 10.5 60
      vertex -2.7 10.5 50
    endloop
  endfacet
  facet normal 0 -1 0
    outer loop
      vertex -7.2 10.5 3
      vertex -7.2 10.5 50
      vertex -7.75 10.5 60
    endloop
  endfacet
  facet normal 0 -1 0
    outer loop
      vertex -2.7 10.5 3
      vertex 8.425 10.5 3
      vertex -2.7 10.5 50
    endloop
  endfacet
  facet normal 0 -1 0
    outer loop
      vertex 8.425 10.5 3
      vertex 7.75 10.5 50
      vertex -2.7 10.5 50
    endloop
  endfacet
  facet normal 0 -1 0
    outer loop
      vertex 8.425 10.5 3
      vertex 8.425 10.5 50
      vertex 7.75 10.5 50
    endloop
  endfacet
  facet normal 0 -1 0
    outer loop
      vertex -7.2 10.5 50
      vertex 7.75 10.5 60
      vertex -7.75 10.5 60
    endloop
  endfacet
  facet normal 0 -1 0
    outer loop
      vertex -7.2 10.5 3
      vertex -7.75 10.5 50
      vertex -18.325 10.5 50
    endloop
  endfacet
  facet normal 0 -1 0
    outer loop
      vertex -7.2 10.5 3
      vertex -7.75 10.5 60
      vertex -7.75 10.5 50
    endloop
  endfacet
  facet normal 0 -1 0
    outer loop
      vertex -7.2 10.5 3
      vertex -18.325 10.5 50
      vertex -18.325 10.5 3
    endloop
  endfacet
  facet normal -1 0 0
    outer loop
      vertex -7.2 -10.5 3
      vertex -7.2 -10.5 50
      vertex -7.2 -4.8 3
    endloop
  endfacet
  facet normal -1 0 0
    outer loop
      vertex -7.2 -4.8 3
      vertex -7.2 -10.5 50
      vertex -7.2 -4.8 50
    endloop
  endfacet
  facet normal 0 0 1
    outer loop
      vertex -2.7 -10.5 50
      vertex -2.7 -4.8 50
      vertex -7.2 -4.8 50
    endloop
  endfacet
  facet normal 0 0 1
    outer loop
      vertex -7.2 -10.5 50
      vertex -2.7 -10.5 50
      vertex -7.2 -4.8 50
    endloop
  endfacet
  facet normal 1 0 0
    outer loop
      vertex -2.7 -10.5 50
      vertex -2.7 -10.5 3
      vertex -2.7 -4.8 3
    endloop
  endfacet
  facet normal 1 0 0
    outer loop
      vertex -2.7 -4.8 50
      vertex -2.7 -10.5 50
      vertex -2.7 -4.8 3
    endloop
  endfacet
  facet normal -1 0 0
    outer loop
      vertex 8.425 -5.21389 50
      vertex 8.425 -5.21389 60
      vertex 8.425 5.21389 60
    endloop
  endfacet
  facet normal -1 0 0
    outer loop
      vertex 8.425 -5.21389 50
      vertex 8.425 5.21389 60
      vertex 8.425 5.21389 50
    endloop
  endfacet
  facet normal -1 0 0
    outer loop
      vertex 8.425 -5.21389 50
      vertex 8.425 10.5 3
      vertex 8.425 -10.5 50
    endloop
  endfacet
  facet normal -1 0 0
    outer loop
      vertex 8.425 5.21389 50
      vertex 8.425 10.5 50
      vertex 8.425 10.5 3
    endloop
  endfacet
  facet normal -1 0 0
    outer loop
      vertex 8.425 5.21389 50
      vertex 8.425 10.5 3
      vertex 8.425 -5.21389 50
    endloop
  endfacet
  facet normal -1 0 0
    outer loop
      vertex 8.425 10.5 3
      vertex 8.425 -10.5 3
      vertex 8.425 -10.5 50
    endloop
  endfacet
  facet normal 0.857493 0.514496 0
    outer loop
      vertex 9.25 -13 50
      vertex 7.75 -10.5 50
      vertex 7.75 -10.5 60
    endloop
  endfacet
  facet normal 0.857493 0.514496 0
    outer loop
      vertex 9.25 -13 60
      vertex 9.25 -13 50
      vertex 7.75 -10.5 60
    endloop
  endfacet
  facet normal 1 0 0
    outer loop
      vertex 9.25 -16 60
      vertex 9.25 -16 50
      vertex 9.25 -13 50
    endloop
  endfacet
  facet normal 1 0 0
    outer loop
      vertex 9.25 -13 60
      vertex 9.25 -16 60
      vertex 9.25 -13 50
    endloop
  endfacet
  facet normal 0 -1 0
    outer loop
      vertex 7.25 -16 60
      vertex 7.25 -16 50
      vertex 9.25 -16 50
    endloop
  endfacet
  facet normal 0 -1 0
    outer loop
      vertex 9.25 -16 60
      vertex 7.25 -16 60
      vertex 9.25 -16 50
    endloop
  endfacet
  facet normal -1 0 0
    outer loop
      vertex 7.25 -16 50
      vertex 7.25 -16 60
      vertex 7.25 -15 50
    endloop
  endfacet
  facet normal -1 0 0
    outer loop
      vertex 7.25 -15 50
      vertex 7.25 -16 60
      vertex 7.25 -15 60
    endloop
  endfacet
  facet normal 0 -1 0
    outer loop
      vertex 4.5 -15 60
      vertex 4.5 -15 50
      vertex 7.25 -15 50
    endloop
  endfacet
  facet normal 0 -1 0
    outer loop
      vertex 7.25 -15 60
      vertex 4.5 -15 60
      vertex 7.25 -15 50
    endloop
  endfacet
  facet normal 0.707107 -0.707107 0
    outer loop
      vertex 3.75 -15.75 60
      vertex 3.75 -15.75 50
      vertex 4.5 -15 50
    endloop
  endfacet
  facet normal 0.707107 -0.707107 0
    outer loop
      vertex 4.5 -15 60
      vertex 3.75 -15.75 60
      vertex 4.5 -15 50
    endloop
  endfacet
  facet normal 1 0 0
    outer loop
      vertex 3.75 -19.25 60
      vertex 3.75 -19.25 50
      vertex 3.75 -15.75 50
    endloop
  endfacet
  facet normal 1 0 0
    outer loop
      vertex 3.75 -15.75 60
      vertex 3.75 -19.25 60
      vertex 3.75 -15.75 50
    endloop
  endfacet
  facet normal -0.773957 -0.633238 0
    outer loop
      vertex 8.425 -5.21389 50
      vertex 10.5 -7.75 50
      vertex 8.425 -5.21389 60
    endloop
  endfacet
  facet normal -0.773957 -0.633238 0
    outer loop
      vertex 8.425 -5.21389 60
      vertex 10.5 -7.75 50
      vertex 10.5 -7.75 60
    endloop
  endfacet
  facet normal -0.514496 -0.857493 0
    outer loop
      vertex 10.5 -7.75 60
      vertex 10.5 -7.75 50
      vertex 13 -9.25 50
    endloop
  endfacet
  facet normal -0.514496 -0.857493 0
    outer loop
      vertex 13 -9.25 60
      vertex 10.5 -7.75 60
      vertex 13 -9.25 50
    endloop
  endfacet
  facet normal -2.22045e-16 -1 0
    outer loop
      vertex 13 -9.25 60
      vertex 13 -9.25 50
      vertex 16 -9.25 50
    endloop
  endfacet
  facet normal -2.22045e-16 -1 0
    outer loop
      vertex 16 -9.25 60
      vertex 13 -9.25 60
      vertex 16 -9.25 50
    endloop
  endfacet
  facet normal 1 -2.22045e-16 0
    outer loop
      vertex 16 -9.25 60
      vertex 16 -9.25 50
      vertex 16 -7.25 50
    endloop
  endfacet
  facet normal 1 -2.22045e-16 0
    outer loop
      vertex 16 -7.25 60
      vertex 16 -9.25 60
      vertex 16 -7.25 50
    endloop
  endfacet
  facet normal 2.22045e-16 1 0
    outer loop
      vertex 15 -7.25 50
      vertex 15 -7.25 60
      vertex 16 -7.25 50
    endloop
  endfacet
  facet normal 2.22045e-16 1 0
    outer loop
      vertex 16 -7.25 50
      vertex 15 -7.25 60
      vertex 16 -7.25 60
    endloop
  endfacet
  facet normal 1 -2.22045e-16 0
    outer loop
      vertex 15 -7.25 60
      vertex 15 -7.25 50
      vertex 15 -4.5 50
    endloop
  endfacet
  facet normal 1 -2.22045e-16 0
    outer loop
      vertex 15 -4.5 60
      vertex 15 -7.25 60
      vertex 15 -4.5 50
    endloop
  endfacet
  facet normal 0.707107 -0.707107 0
    outer loop
      vertex 15 -4.5 60
      vertex 15 -4.5 50
      vertex 15.75 -3.75 50
    endloop
  endfacet
  facet normal 0.707107 -0.707107 0
    outer loop
      vertex 15.75 -3.75 60
      vertex 15 -4.5 60
      vertex 15.75 -3.75 50
    endloop
  endfacet
  facet normal -2.22045e-16 -1 0
    outer loop
      vertex 15.75 -3.75 60
      vertex 15.75 -3.75 50
      vertex 19.25 -3.75 50
    endloop
  endfacet
  facet normal -2.22045e-16 -1 0
    outer loop
      vertex 19.25 -3.75 60
      vertex 15.75 -3.75 60
      vertex 19.25 -3.75 50
    endloop
  endfacet
  facet normal -0.773957 0.633238 0
    outer loop
      vertex 8.425 5.21389 50
      vertex 8.425 5.21389 60
      vertex 10.5 7.75 50
    endloop
  endfacet
  facet normal -0.773957 0.633238 0
    outer loop
      vertex 10.5 7.75 50
      vertex 8.425 5.21389 60
      vertex 10.5 7.75 60
    endloop
  endfacet
  facet normal -0.514496 0.857493 0
    outer loop
      vertex 10.5 7.75 50
      vertex 10.5 7.75 60
      vertex 13 9.25 50
    endloop
  endfacet
  facet normal -0.514496 0.857493 0
    outer loop
      vertex 13 9.25 50
      vertex 10.5 7.75 60
      vertex 13 9.25 60
    endloop
  endfacet
  facet normal 2.22045e-16 1 0
    outer loop
      vertex 13 9.25 50
      vertex 13 9.25 60
      vertex 16 9.25 50
    endloop
  endfacet
  facet normal 2.22045e-16 1 0
    outer loop
      vertex 16 9.25 50
      vertex 13 9.25 60
      vertex 16 9.25 60
    endloop
  endfacet
  facet normal 1 -2.22045e-16 0
    outer loop
      vertex 16 7.25 60
      vertex 16 7.25 50
      vertex 16 9.25 50
    endloop
  endfacet
  facet normal 1 -2.22045e-16 0
    outer loop
      vertex 16 9.25 60
      vertex 16 7.25 60
      vertex 16 9.25 50
    endloop
  endfacet
  facet normal -2.22045e-16 -1 0
    outer loop
      vertex 15 7.25 60
      vertex 15 7.25 50
      vertex 16 7.25 50
    endloop
  endfacet
  facet normal -2.22045e-16 -1 0
    outer loop
      vertex 16 7.25 60
      vertex 15 7.25 60
      vertex 16 7.25 50
    endloop
  endfacet
  facet normal 1 -2.22045e-16 0
    outer loop
      vertex 15 4.5 60
      vertex 15 4.5 50
      vertex 15 7.25 50
    endloop
  endfacet
  facet normal 1 -2.22045e-16 0
    outer loop
      vertex 15 7.25 60
      vertex 15 4.5 60
      vertex 15 7.25 50
    endloop
  endfacet
  facet normal 0.707107 0.707107 0
    outer loop
      vertex 15.75 3.75 50
      vertex 15 4.5 50
      vertex 15 4.5 60
    endloop
  endfacet
  facet normal 0.707107 0.707107 0
    outer loop
      vertex 15.75 3.75 60
      vertex 15.75 3.75 50
      vertex 15 4.5 60
    endloop
  endfacet
  facet normal 2.22045e-16 1 0
    outer loop
      vertex 15.75 3.75 50
      vertex 15.75 3.75 60
      vertex 19.25 3.75 50
    endloop
  endfacet
  facet normal 2.22045e-16 1 0
    outer loop
      vertex 19.25 3.75 50
      vertex 15.75 3.75 60
      vertex 19.25 3.75 60
    endloop
  endfacet
  facet normal 1.22465e-16 1 0
    outer loop
      vertex 4.5 15 50
      vertex 4.5 15 60
      vertex 7.25 15 50
    endloop
  endfacet
  facet normal 1.22465e-16 1 0
    outer loop
      vertex 7.25 15 50
      vertex 4.5 15 60
      vertex 7.25 15 60
    endloop
  endfacet
  facet normal 0.707107 0.707107 0
    outer loop
      vertex 4.5 15 50
      vertex 3.75 15.75 50
      vertex 3.75 15.75 60
    endloop
  endfacet
  facet normal 0.707107 0.707107 0
    outer loop
      vertex 4.5 15 60
      vertex 4.5 15 50
      vertex 3.75 15.75 60
    endloop
  endfacet
  facet normal 1 -1.22465e-16 0
    outer loop
      vertex 3.75 15.75 60
      vertex 3.75 15.75 50
      vertex 3.75 19.25 50
    endloop
  endfacet
  facet normal 1 -1.22465e-16 0
    outer loop
      vertex 3.75 19.25 60
      vertex 3.75 15.75 60
      vertex 3.75 19.25 50
    endloop
  endfacet
  facet normal 0.857493 -0.514496 0
    outer loop
      vertex 7.75 10.5 60
      vertex 7.75 10.5 50
      vertex 9.25 13 50
    endloop
  endfacet
  facet normal 0.857493 -0.514496 0
    outer loop
      vertex 9.25 13 60
      vertex 7.75 10.5 60
      vertex 9.25 13 50
    endloop
  endfacet
  facet normal 1 -1.22465e-16 0
    outer loop
      vertex 9.25 13 60
      vertex 9.25 13 50
      vertex 9.25 16 50
    endloop
  endfacet
  facet normal 1 -1.22465e-16 0
    outer loop
      vertex 9.25 16 60
      vertex 9.25 13 60
      vertex 9.25 16 50
    endloop
  endfacet
  facet normal 1.22465e-16 1 0
    outer loop
      vertex 7.25 16 50
      vertex 7.25 16 60
      vertex 9.25 16 50
    endloop
  endfacet
  facet normal 1.22465e-16 1 0
    outer loop
      vertex 9.25 16 50
      vertex 7.25 16 60
      vertex 9.25 16 60
    endloop
  endfacet
  facet normal -1 1.22465e-16 0
    outer loop
      vertex 7.25 15 50
      vertex 7.25 15 60
      vertex 7.25 16 50
    endloop
  endfacet
  facet normal -1 1.22465e-16 0
    outer loop
      vertex 7.25 16 50
      vertex 7.25 15 60
      vertex 7.25 16 60
    endloop
  endfacet
  facet normal -1 0 0
    outer loop
      vertex -7.2 4.8 3
      vertex -7.2 4.8 50
      vertex -7.2 10.5 3
    endloop
  endfacet
  facet normal -1 0 0
    outer loop
      vertex -7.2 10.5 3
      vertex -7.2 4.8 50
      vertex -7.2 10.5 50
    endloop
  endfacet
  facet normal 0 -1 0
    outer loop
      vertex -7.2 4.8 50
      vertex -7.2 4.8 3
      vertex -2.7 4.8 3
    endloop
  endfacet
  facet normal 0 -1 0
    outer loop
      vertex -2.7 4.8 50
      vertex -7.2 4.8 50
      vertex -2.7 4.8 3
    endloop
  endfacet
  facet normal 1 0 0
    outer loop
      vertex -2.7 4.8 50
      vertex -2.7 4.8 3
      vertex -2.7 10.5 3
    endloop
  endfacet
  facet normal 1 0 0
    outer loop
      vertex -2.7 10.5 50
      vertex -2.7 4.8 50
      vertex -2.7 10.5 3
    endloop
  endfacet
  facet normal 0 1 0
    outer loop
      vertex -7.2 -4.8 3
      vertex -7.2 -4.8 50
      vertex -2.7 -4.8 3
    endloop
  endfacet
  facet normal 0 1 0
    outer loop
      vertex -2.7 -4.8 3
      vertex -7.2 -4.8 50
      vertex -2.7 -4.8 50
    endloop
  endfacet
  facet normal 0 0 1
    outer loop
      vertex -2.7 4.8 50
      vertex -2.7 10.5 50
      vertex -7.2 10.5 50
    endloop
  endfacet
  facet normal 0 0 1
    outer loop
      vertex -7.2 4.8 50
      vertex -2.7 4.8 50
      vertex -7.2 10.5 50
    endloop
  endfacet
endsolid OpenSCAD_Model
